<mxfile host="Electron" modified="2024-06-18T14:57:06.530Z" agent="Mozilla/5.0 (Macintosh; Intel Mac OS X 10_15_7) AppleWebKit/537.36 (KHTML, like Gecko) draw.io/24.2.5 Chrome/120.0.6099.109 Electron/28.1.0 Safari/537.36" etag="cWtnRuTlVi7h6h0zjlUc" version="24.2.5" type="device" pages="2">
  <diagram name="Basic" id="rJtAdyn2ItCwGOce5TL7">
    <mxGraphModel dx="2941" dy="2340" grid="1" gridSize="10" guides="1" tooltips="1" connect="1" arrows="1" fold="1" page="1" pageScale="1" pageWidth="850" pageHeight="1100" math="0" shadow="0">
      <root>
        <mxCell id="0" />
        <mxCell id="1" parent="0" />
        <mxCell id="UUSq_2UDcAGou4G-HE2J-80" value="&lt;span style=&quot;color: rgb(35, 47, 62); font-family: &amp;quot;Gloria Hallelujah&amp;quot;; font-size: 14px; font-style: normal; font-variant-ligatures: normal; font-variant-caps: normal; letter-spacing: normal; orphans: 2; text-align: center; text-indent: 0px; text-transform: none; widows: 2; word-spacing: 0px; -webkit-text-stroke-width: 0px; white-space: nowrap; text-decoration-thickness: initial; text-decoration-style: initial; text-decoration-color: initial; float: none; display: inline !important;&quot;&gt;Cloud Native Application&lt;/span&gt;&lt;div style=&quot;forced-color-adjust: none; color: rgb(35, 47, 62); font-family: &amp;quot;Gloria Hallelujah&amp;quot;; font-size: 14px; font-style: normal; font-variant-ligatures: normal; font-variant-caps: normal; letter-spacing: normal; orphans: 2; text-align: center; text-indent: 0px; text-transform: none; widows: 2; word-spacing: 0px; -webkit-text-stroke-width: 0px; white-space: nowrap; text-decoration-thickness: initial; text-decoration-style: initial; text-decoration-color: initial;&quot;&gt;Protection platform&lt;/div&gt;&lt;div style=&quot;forced-color-adjust: none; color: rgb(35, 47, 62); font-family: &amp;quot;Gloria Hallelujah&amp;quot;; font-size: 14px; font-style: normal; font-variant-ligatures: normal; font-variant-caps: normal; letter-spacing: normal; orphans: 2; text-align: center; text-indent: 0px; text-transform: none; widows: 2; word-spacing: 0px; -webkit-text-stroke-width: 0px; white-space: nowrap; text-decoration-thickness: initial; text-decoration-style: initial; text-decoration-color: initial;&quot;&gt;(CNAPP)&lt;/div&gt;" style="shape=trapezoid;perimeter=trapezoidPerimeter;whiteSpace=wrap;html=1;fixedSize=1;rounded=0;dashed=0;strokeColor=none;align=center;verticalAlign=middle;fontFamily=Gloria Hallelujah;fontSource=https%3A%2F%2Ffonts.googleapis.com%2Fcss%3Ffamily%3DGloria%2BHallelujah;fontSize=14;fontStyle=1;labelBackgroundColor=none;fillColor=#FFFFFF;flipV=1;gradientColor=#7ea6e0;size=200;opacity=50;" parent="1" vertex="1">
          <mxGeometry x="-720" y="390" width="640" height="100" as="geometry" />
        </mxCell>
        <mxCell id="UUSq_2UDcAGou4G-HE2J-1" value="AWS - Customer Owned Cloud Accounts" style="rounded=0;whiteSpace=wrap;html=1;sketch=1;hachureGap=4;jiggle=2;curveFitting=1;fontFamily=Architects Daughter;fontSource=https%3A%2F%2Ffonts.googleapis.com%2Fcss%3Ffamily%3DArchitects%2BDaughter;verticalAlign=bottom;fontSize=14;fontStyle=1;labelBackgroundColor=none;" parent="1" vertex="1">
          <mxGeometry x="160" y="190" width="1210" height="830" as="geometry" />
        </mxCell>
        <mxCell id="UUSq_2UDcAGou4G-HE2J-2" value="" style="shape=image;verticalLabelPosition=bottom;labelBackgroundColor=none;verticalAlign=top;aspect=fixed;imageAspect=0;image=https://zeevector.com/wp-content/uploads/Aws-Logo-PNG-White.png;fontStyle=1" parent="1" vertex="1">
          <mxGeometry x="160" y="190" width="65.21" height="41" as="geometry" />
        </mxCell>
        <mxCell id="UUSq_2UDcAGou4G-HE2J-4" value="IAM" style="sketch=0;points=[[0,0,0],[0.25,0,0],[0.5,0,0],[0.75,0,0],[1,0,0],[0,1,0],[0.25,1,0],[0.5,1,0],[0.75,1,0],[1,1,0],[0,0.25,0],[0,0.5,0],[0,0.75,0],[1,0.25,0],[1,0.5,0],[1,0.75,0]];outlineConnect=0;fontColor=#232F3E;fillColor=#DD344C;strokeColor=#ffffff;dashed=0;verticalLabelPosition=bottom;verticalAlign=top;align=center;html=1;fontSize=14;fontStyle=1;aspect=fixed;shape=mxgraph.aws4.resourceIcon;resIcon=mxgraph.aws4.identity_and_access_management;hachureGap=4;jiggle=2;curveFitting=1;fontFamily=Gloria Hallelujah;fontSource=https%3A%2F%2Ffonts.googleapis.com%2Fcss%3Ffamily%3DGloria%2BHallelujah;labelBackgroundColor=none;" parent="1" vertex="1">
          <mxGeometry x="240" y="280" width="78" height="78" as="geometry" />
        </mxCell>
        <mxCell id="UUSq_2UDcAGou4G-HE2J-5" value="Security VPC" style="points=[[0,0],[0.25,0],[0.5,0],[0.75,0],[1,0],[1,0.25],[1,0.5],[1,0.75],[1,1],[0.75,1],[0.5,1],[0.25,1],[0,1],[0,0.75],[0,0.5],[0,0.25]];outlineConnect=0;gradientColor=none;html=1;whiteSpace=wrap;fontSize=14;fontStyle=1;container=1;pointerEvents=0;collapsible=0;recursiveResize=0;shape=mxgraph.aws4.group;grIcon=mxgraph.aws4.group_vpc2;strokeColor=#8C4FFF;fillColor=none;verticalAlign=top;align=left;spacingLeft=30;fontColor=#AAB7B8;dashed=0;sketch=0;hachureGap=4;jiggle=2;curveFitting=1;fontFamily=Architects Daughter;fontSource=https%3A%2F%2Ffonts.googleapis.com%2Fcss%3Ffamily%3DArchitects%2BDaughter;labelBackgroundColor=none;" parent="1" vertex="1">
          <mxGeometry x="240" y="485" width="220" height="350" as="geometry" />
        </mxCell>
        <mxCell id="UUSq_2UDcAGou4G-HE2J-6" value="Transit Gateway" style="sketch=0;points=[[0,0,0],[0.25,0,0],[0.5,0,0],[0.75,0,0],[1,0,0],[0,1,0],[0.25,1,0],[0.5,1,0],[0.75,1,0],[1,1,0],[0,0.25,0],[0,0.5,0],[0,0.75,0],[1,0.25,0],[1,0.5,0],[1,0.75,0]];outlineConnect=0;fontColor=#232F3E;fillColor=#8C4FFF;strokeColor=#ffffff;dashed=0;verticalLabelPosition=bottom;verticalAlign=top;align=center;html=1;fontSize=14;fontStyle=1;aspect=fixed;shape=mxgraph.aws4.resourceIcon;resIcon=mxgraph.aws4.transit_gateway;hachureGap=4;jiggle=2;curveFitting=1;fontFamily=Gloria Hallelujah;fontSource=https%3A%2F%2Ffonts.googleapis.com%2Fcss%3Ffamily%3DGloria%2BHallelujah;labelBackgroundColor=none;" parent="1" vertex="1">
          <mxGeometry x="520" y="621" width="78" height="78" as="geometry" />
        </mxCell>
        <mxCell id="UUSq_2UDcAGou4G-HE2J-7" style="edgeStyle=orthogonalEdgeStyle;rounded=0;hachureGap=4;orthogonalLoop=1;jettySize=auto;html=1;exitX=1;exitY=0.5;exitDx=0;exitDy=0;entryX=0;entryY=0.5;entryDx=0;entryDy=0;entryPerimeter=0;fontFamily=Architects Daughter;fontSource=https%3A%2F%2Ffonts.googleapis.com%2Fcss%3Ffamily%3DArchitects%2BDaughter;fontSize=15;fontColor=#232F3E;fontStyle=1;curved=1;flowAnimation=1;strokeWidth=2;strokeColor=#7F00FF;labelBackgroundColor=none;" parent="1" source="UUSq_2UDcAGou4G-HE2J-5" target="UUSq_2UDcAGou4G-HE2J-6" edge="1">
          <mxGeometry relative="1" as="geometry" />
        </mxCell>
        <mxCell id="UUSq_2UDcAGou4G-HE2J-8" value="On-Premise Environment" style="rounded=0;whiteSpace=wrap;html=1;sketch=1;hachureGap=4;jiggle=2;curveFitting=1;fontFamily=Architects Daughter;fontSource=https%3A%2F%2Ffonts.googleapis.com%2Fcss%3Ffamily%3DArchitects%2BDaughter;fontSize=14;verticalAlign=bottom;fontStyle=1;labelBackgroundColor=none;" parent="1" vertex="1">
          <mxGeometry x="-680" y="659" width="570" height="360" as="geometry" />
        </mxCell>
        <mxCell id="UUSq_2UDcAGou4G-HE2J-14" style="edgeStyle=orthogonalEdgeStyle;curved=1;rounded=0;hachureGap=4;orthogonalLoop=1;jettySize=auto;html=1;strokeColor=#7F00FF;strokeWidth=2;align=center;verticalAlign=middle;fontFamily=Architects Daughter;fontSource=https%3A%2F%2Ffonts.googleapis.com%2Fcss%3Ffamily%3DArchitects%2BDaughter;fontSize=15;fontColor=#232F3E;fontStyle=1;labelBackgroundColor=none;endArrow=classic;flowAnimation=1;entryX=1;entryY=0.25;entryDx=0;entryDy=0;entryPerimeter=0;" parent="1" source="UUSq_2UDcAGou4G-HE2J-9" target="UUSq_2UDcAGou4G-HE2J-6" edge="1">
          <mxGeometry relative="1" as="geometry" />
        </mxCell>
        <mxCell id="UUSq_2UDcAGou4G-HE2J-9" value="Application VPC 01" style="sketch=0;outlineConnect=0;gradientColor=none;html=1;whiteSpace=wrap;fontSize=14;fontStyle=1;shape=mxgraph.aws4.group;grIcon=mxgraph.aws4.group_vpc;strokeColor=#879196;fillColor=none;verticalAlign=top;align=left;spacingLeft=30;fontColor=#879196;dashed=0;hachureGap=4;jiggle=2;curveFitting=1;fontFamily=Architects Daughter;fontSource=https%3A%2F%2Ffonts.googleapis.com%2Fcss%3Ffamily%3DArchitects%2BDaughter;labelBackgroundColor=none;" parent="1" vertex="1">
          <mxGeometry x="700" y="420" width="500" height="230" as="geometry" />
        </mxCell>
        <mxCell id="UUSq_2UDcAGou4G-HE2J-15" style="edgeStyle=orthogonalEdgeStyle;curved=1;rounded=0;hachureGap=4;orthogonalLoop=1;jettySize=auto;html=1;entryX=1;entryY=0.75;entryDx=0;entryDy=0;entryPerimeter=0;strokeColor=#7F00FF;strokeWidth=2;align=center;verticalAlign=middle;fontFamily=Architects Daughter;fontSource=https%3A%2F%2Ffonts.googleapis.com%2Fcss%3Ffamily%3DArchitects%2BDaughter;fontSize=15;fontColor=#232F3E;fontStyle=1;labelBackgroundColor=none;endArrow=classic;flowAnimation=1;" parent="1" source="UUSq_2UDcAGou4G-HE2J-23" target="UUSq_2UDcAGou4G-HE2J-6" edge="1">
          <mxGeometry relative="1" as="geometry">
            <mxPoint x="770" y="795.0000000000002" as="sourcePoint" />
          </mxGeometry>
        </mxCell>
        <mxCell id="UUSq_2UDcAGou4G-HE2J-16" value="NGFW for Cloud" style="shape=image;verticalLabelPosition=bottom;labelBackgroundColor=none;verticalAlign=top;aspect=fixed;imageAspect=0;image=https://www.paloaltonetworks.com/content/dam/pan/en_US/includes/igw/cloud-ngfw/assets/images/overview/circle-logo-1.png;fontSize=14;fontFamily=Gloria Hallelujah;fontSource=https%3A%2F%2Ffonts.googleapis.com%2Fcss%3Ffamily%3DGloria%2BHallelujah;fontStyle=1" parent="1" vertex="1">
          <mxGeometry x="294.77" y="870" width="110.47" height="110" as="geometry" />
        </mxCell>
        <mxCell id="UUSq_2UDcAGou4G-HE2J-21" value="Private subnet" style="points=[[0,0],[0.25,0],[0.5,0],[0.75,0],[1,0],[1,0.25],[1,0.5],[1,0.75],[1,1],[0.75,1],[0.5,1],[0.25,1],[0,1],[0,0.75],[0,0.5],[0,0.25]];outlineConnect=0;gradientColor=none;html=1;whiteSpace=wrap;fontSize=14;fontStyle=1;container=1;pointerEvents=0;collapsible=0;recursiveResize=0;shape=mxgraph.aws4.group;grIcon=mxgraph.aws4.group_security_group;grStroke=0;strokeColor=#00A4A6;fillColor=#E6F6F7;verticalAlign=top;align=left;spacingLeft=30;fontColor=#147EBA;dashed=0;sketch=0;fontFamily=Gloria Hallelujah;fontSource=https%3A%2F%2Ffonts.googleapis.com%2Fcss%3Ffamily%3DGloria%2BHallelujah;labelBackgroundColor=none;" parent="1" vertex="1">
          <mxGeometry x="720" y="460" width="460" height="170" as="geometry" />
        </mxCell>
        <mxCell id="UUSq_2UDcAGou4G-HE2J-17" value="EC2" style="sketch=0;points=[[0,0,0],[0.25,0,0],[0.5,0,0],[0.75,0,0],[1,0,0],[0,1,0],[0.25,1,0],[0.5,1,0],[0.75,1,0],[1,1,0],[0,0.25,0],[0,0.5,0],[0,0.75,0],[1,0.25,0],[1,0.5,0],[1,0.75,0]];outlineConnect=0;fontColor=#232F3E;fillColor=#ED7100;strokeColor=#ffffff;dashed=0;verticalLabelPosition=bottom;verticalAlign=top;align=center;html=1;fontSize=14;fontStyle=1;aspect=fixed;shape=mxgraph.aws4.resourceIcon;resIcon=mxgraph.aws4.ec2;fontFamily=Gloria Hallelujah;fontSource=https%3A%2F%2Ffonts.googleapis.com%2Fcss%3Ffamily%3DGloria%2BHallelujah;labelBackgroundColor=none;" parent="UUSq_2UDcAGou4G-HE2J-21" vertex="1">
          <mxGeometry x="40" y="46" width="78" height="78" as="geometry" />
        </mxCell>
        <mxCell id="UUSq_2UDcAGou4G-HE2J-34" style="edgeStyle=orthogonalEdgeStyle;curved=1;rounded=0;hachureGap=4;orthogonalLoop=1;jettySize=auto;html=1;exitX=1;exitY=0.5;exitDx=0;exitDy=0;exitPerimeter=0;strokeColor=#7F00FF;strokeWidth=2;align=center;verticalAlign=middle;fontFamily=Gloria Hallelujah;fontSource=https%3A%2F%2Ffonts.googleapis.com%2Fcss%3Ffamily%3DGloria%2BHallelujah;fontSize=14;fontColor=#232F3E;fontStyle=1;labelBackgroundColor=none;endArrow=classic;flowAnimation=1;" parent="UUSq_2UDcAGou4G-HE2J-21" source="UUSq_2UDcAGou4G-HE2J-18" target="UUSq_2UDcAGou4G-HE2J-22" edge="1">
          <mxGeometry relative="1" as="geometry" />
        </mxCell>
        <mxCell id="UUSq_2UDcAGou4G-HE2J-18" value="EC2&lt;br&gt;(EKS Node)" style="sketch=0;points=[[0,0,0],[0.25,0,0],[0.5,0,0],[0.75,0,0],[1,0,0],[0,1,0],[0.25,1,0],[0.5,1,0],[0.75,1,0],[1,1,0],[0,0.25,0],[0,0.5,0],[0,0.75,0],[1,0.25,0],[1,0.5,0],[1,0.75,0]];outlineConnect=0;fontColor=#232F3E;fillColor=#ED7100;strokeColor=#ffffff;dashed=0;verticalLabelPosition=bottom;verticalAlign=top;align=center;html=1;fontSize=14;fontStyle=1;aspect=fixed;shape=mxgraph.aws4.resourceIcon;resIcon=mxgraph.aws4.ec2;fontFamily=Gloria Hallelujah;fontSource=https%3A%2F%2Ffonts.googleapis.com%2Fcss%3Ffamily%3DGloria%2BHallelujah;labelBackgroundColor=none;" parent="UUSq_2UDcAGou4G-HE2J-21" vertex="1">
          <mxGeometry x="170" y="46" width="78" height="78" as="geometry" />
        </mxCell>
        <mxCell id="UUSq_2UDcAGou4G-HE2J-22" value="Private Endpoint" style="sketch=0;outlineConnect=0;fontColor=#232F3E;gradientColor=none;fillColor=#8C4FFF;strokeColor=none;dashed=0;verticalLabelPosition=bottom;verticalAlign=top;align=center;html=1;fontSize=14;fontStyle=1;aspect=fixed;pointerEvents=1;shape=mxgraph.aws4.endpoints;fontFamily=Gloria Hallelujah;fontSource=https%3A%2F%2Ffonts.googleapis.com%2Fcss%3Ffamily%3DGloria%2BHallelujah;labelBackgroundColor=none;" parent="UUSq_2UDcAGou4G-HE2J-21" vertex="1">
          <mxGeometry x="350" y="46" width="78" height="78" as="geometry" />
        </mxCell>
        <mxCell id="UUSq_2UDcAGou4G-HE2J-23" value="Application VPC 02" style="sketch=0;outlineConnect=0;gradientColor=none;html=1;whiteSpace=wrap;fontSize=14;fontStyle=1;shape=mxgraph.aws4.group;grIcon=mxgraph.aws4.group_vpc;strokeColor=#879196;fillColor=none;verticalAlign=top;align=left;spacingLeft=30;fontColor=#879196;dashed=0;hachureGap=4;jiggle=2;curveFitting=1;fontFamily=Architects Daughter;fontSource=https%3A%2F%2Ffonts.googleapis.com%2Fcss%3Ffamily%3DArchitects%2BDaughter;labelBackgroundColor=none;" parent="1" vertex="1">
          <mxGeometry x="700" y="680" width="500" height="230" as="geometry" />
        </mxCell>
        <mxCell id="UUSq_2UDcAGou4G-HE2J-24" value="Private subnet" style="points=[[0,0],[0.25,0],[0.5,0],[0.75,0],[1,0],[1,0.25],[1,0.5],[1,0.75],[1,1],[0.75,1],[0.5,1],[0.25,1],[0,1],[0,0.75],[0,0.5],[0,0.25]];outlineConnect=0;gradientColor=none;html=1;whiteSpace=wrap;fontSize=14;fontStyle=1;container=1;pointerEvents=0;collapsible=0;recursiveResize=0;shape=mxgraph.aws4.group;grIcon=mxgraph.aws4.group_security_group;grStroke=0;strokeColor=#00A4A6;fillColor=#E6F6F7;verticalAlign=top;align=left;spacingLeft=30;fontColor=#147EBA;dashed=0;sketch=0;fontFamily=Gloria Hallelujah;fontSource=https%3A%2F%2Ffonts.googleapis.com%2Fcss%3Ffamily%3DGloria%2BHallelujah;labelBackgroundColor=none;" parent="1" vertex="1">
          <mxGeometry x="720" y="720" width="460" height="170" as="geometry" />
        </mxCell>
        <mxCell id="UUSq_2UDcAGou4G-HE2J-25" value="EC2" style="sketch=0;points=[[0,0,0],[0.25,0,0],[0.5,0,0],[0.75,0,0],[1,0,0],[0,1,0],[0.25,1,0],[0.5,1,0],[0.75,1,0],[1,1,0],[0,0.25,0],[0,0.5,0],[0,0.75,0],[1,0.25,0],[1,0.5,0],[1,0.75,0]];outlineConnect=0;fontColor=#232F3E;fillColor=#ED7100;strokeColor=#ffffff;dashed=0;verticalLabelPosition=bottom;verticalAlign=top;align=center;html=1;fontSize=14;fontStyle=1;aspect=fixed;shape=mxgraph.aws4.resourceIcon;resIcon=mxgraph.aws4.ec2;fontFamily=Gloria Hallelujah;fontSource=https%3A%2F%2Ffonts.googleapis.com%2Fcss%3Ffamily%3DGloria%2BHallelujah;labelBackgroundColor=none;" parent="UUSq_2UDcAGou4G-HE2J-24" vertex="1">
          <mxGeometry x="40" y="46" width="78" height="78" as="geometry" />
        </mxCell>
        <mxCell id="UUSq_2UDcAGou4G-HE2J-37" style="edgeStyle=orthogonalEdgeStyle;curved=1;rounded=0;hachureGap=4;orthogonalLoop=1;jettySize=auto;html=1;exitX=1;exitY=0.5;exitDx=0;exitDy=0;exitPerimeter=0;strokeColor=#7F00FF;strokeWidth=2;align=center;verticalAlign=middle;fontFamily=Gloria Hallelujah;fontSource=https%3A%2F%2Ffonts.googleapis.com%2Fcss%3Ffamily%3DGloria%2BHallelujah;fontSize=14;fontColor=#232F3E;fontStyle=1;labelBackgroundColor=none;endArrow=classic;flowAnimation=1;" parent="UUSq_2UDcAGou4G-HE2J-24" source="UUSq_2UDcAGou4G-HE2J-26" target="UUSq_2UDcAGou4G-HE2J-27" edge="1">
          <mxGeometry relative="1" as="geometry" />
        </mxCell>
        <mxCell id="UUSq_2UDcAGou4G-HE2J-26" value="EC2" style="sketch=0;points=[[0,0,0],[0.25,0,0],[0.5,0,0],[0.75,0,0],[1,0,0],[0,1,0],[0.25,1,0],[0.5,1,0],[0.75,1,0],[1,1,0],[0,0.25,0],[0,0.5,0],[0,0.75,0],[1,0.25,0],[1,0.5,0],[1,0.75,0]];outlineConnect=0;fontColor=#232F3E;fillColor=#ED7100;strokeColor=#ffffff;dashed=0;verticalLabelPosition=bottom;verticalAlign=top;align=center;html=1;fontSize=14;fontStyle=1;aspect=fixed;shape=mxgraph.aws4.resourceIcon;resIcon=mxgraph.aws4.ec2;fontFamily=Gloria Hallelujah;fontSource=https%3A%2F%2Ffonts.googleapis.com%2Fcss%3Ffamily%3DGloria%2BHallelujah;labelBackgroundColor=none;" parent="UUSq_2UDcAGou4G-HE2J-24" vertex="1">
          <mxGeometry x="170" y="46" width="78" height="78" as="geometry" />
        </mxCell>
        <mxCell id="UUSq_2UDcAGou4G-HE2J-27" value="Private Endpoint" style="sketch=0;outlineConnect=0;fontColor=#232F3E;gradientColor=none;fillColor=#8C4FFF;strokeColor=none;dashed=0;verticalLabelPosition=bottom;verticalAlign=top;align=center;html=1;fontSize=14;fontStyle=1;aspect=fixed;pointerEvents=1;shape=mxgraph.aws4.endpoints;fontFamily=Gloria Hallelujah;fontSource=https%3A%2F%2Ffonts.googleapis.com%2Fcss%3Ffamily%3DGloria%2BHallelujah;labelBackgroundColor=none;" parent="UUSq_2UDcAGou4G-HE2J-24" vertex="1">
          <mxGeometry x="350" y="46" width="78" height="78" as="geometry" />
        </mxCell>
        <mxCell id="UUSq_2UDcAGou4G-HE2J-96" value="" style="group;fontStyle=1;labelBackgroundColor=none;" parent="UUSq_2UDcAGou4G-HE2J-24" vertex="1" connectable="0">
          <mxGeometry x="230" y="110" width="30" height="30.5" as="geometry" />
        </mxCell>
        <mxCell id="UUSq_2UDcAGou4G-HE2J-97" value="" style="rounded=0;whiteSpace=wrap;html=1;dashed=0;strokeColor=#000000;align=center;verticalAlign=middle;fontFamily=Gloria Hallelujah;fontSource=https%3A%2F%2Ffonts.googleapis.com%2Fcss%3Ffamily%3DGloria%2BHallelujah;fontSize=14;fontColor=#232F3E;fontStyle=1;labelBackgroundColor=none;fillColor=#000000;" parent="UUSq_2UDcAGou4G-HE2J-96" vertex="1">
          <mxGeometry width="30" height="29.737499999999997" as="geometry" />
        </mxCell>
        <mxCell id="UUSq_2UDcAGou4G-HE2J-98" value="" style="shape=image;imageAspect=0;aspect=fixed;verticalLabelPosition=bottom;verticalAlign=top;rounded=1;dashed=0;sketch=1;jiggle=2;curveFitting=1;strokeColor=#000000;align=center;fontFamily=Gloria Hallelujah;fontSource=https%3A%2F%2Ffonts.googleapis.com%2Fcss%3Ffamily%3DGloria%2BHallelujah;fontSize=14;fontColor=#232F3E;fontStyle=1;labelBackgroundColor=none;fillColor=none;image=https://images.crunchbase.com/image/upload/c_pad,f_auto,q_auto:eco,dpr_1/rfuwf3yqq2cermkmrej6;" parent="UUSq_2UDcAGou4G-HE2J-96" vertex="1">
          <mxGeometry x="3.4800000000000004" width="23.025" height="30" as="geometry" />
        </mxCell>
        <mxCell id="UUSq_2UDcAGou4G-HE2J-28" value="Firewall Subnet" style="points=[[0,0],[0.25,0],[0.5,0],[0.75,0],[1,0],[1,0.25],[1,0.5],[1,0.75],[1,1],[0.75,1],[0.5,1],[0.25,1],[0,1],[0,0.75],[0,0.5],[0,0.25]];outlineConnect=0;gradientColor=none;html=1;whiteSpace=wrap;fontSize=14;fontStyle=1;container=1;pointerEvents=0;collapsible=0;recursiveResize=0;shape=mxgraph.aws4.group;grIcon=mxgraph.aws4.group_security_group;grStroke=0;strokeColor=#7AA116;fillColor=#F2F6E8;verticalAlign=top;align=left;spacingLeft=30;fontColor=#248814;dashed=0;sketch=0;fontFamily=Gloria Hallelujah;fontSource=https%3A%2F%2Ffonts.googleapis.com%2Fcss%3Ffamily%3DGloria%2BHallelujah;labelBackgroundColor=none;" parent="1" vertex="1">
          <mxGeometry x="260" y="550" width="180" height="180" as="geometry" />
        </mxCell>
        <mxCell id="UUSq_2UDcAGou4G-HE2J-31" value="NGFW Endpoint" style="sketch=0;outlineConnect=0;fontColor=#232F3E;gradientColor=none;fillColor=#DD344C;strokeColor=none;dashed=0;verticalLabelPosition=bottom;verticalAlign=top;align=center;html=1;fontSize=12;fontStyle=1;aspect=fixed;pointerEvents=1;shape=mxgraph.aws4.network_firewall_endpoints;jiggle=2;curveFitting=1;fontFamily=Gloria Hallelujah;fontSource=https://fonts.googleapis.com/css?family=Gloria+Hallelujah;labelBackgroundColor=none;" parent="UUSq_2UDcAGou4G-HE2J-28" vertex="1">
          <mxGeometry x="55.50999999999999" y="61" width="69" height="69" as="geometry" />
        </mxCell>
        <mxCell id="UUSq_2UDcAGou4G-HE2J-32" style="edgeStyle=orthogonalEdgeStyle;curved=1;rounded=0;hachureGap=4;orthogonalLoop=1;jettySize=auto;html=1;strokeColor=#CC6600;strokeWidth=2;align=center;verticalAlign=middle;fontFamily=Gloria Hallelujah;fontSource=https%3A%2F%2Ffonts.googleapis.com%2Fcss%3Ffamily%3DGloria%2BHallelujah;fontSize=14;fontColor=#232F3E;fontStyle=1;labelBackgroundColor=none;endArrow=classic;flowAnimation=1;startArrow=classic;startFill=1;" parent="1" target="UUSq_2UDcAGou4G-HE2J-16" edge="1">
          <mxGeometry relative="1" as="geometry">
            <mxPoint x="350" y="730" as="sourcePoint" />
            <Array as="points">
              <mxPoint x="350" y="730" />
              <mxPoint x="350" y="730" />
            </Array>
          </mxGeometry>
        </mxCell>
        <mxCell id="UUSq_2UDcAGou4G-HE2J-33" value="S3 Buckets" style="sketch=0;points=[[0,0,0],[0.25,0,0],[0.5,0,0],[0.75,0,0],[1,0,0],[0,1,0],[0.25,1,0],[0.5,1,0],[0.75,1,0],[1,1,0],[0,0.25,0],[0,0.5,0],[0,0.75,0],[1,0.25,0],[1,0.5,0],[1,0.75,0]];outlineConnect=0;fontColor=#232F3E;fillColor=#7AA116;strokeColor=#ffffff;dashed=0;verticalLabelPosition=bottom;verticalAlign=top;align=center;html=1;fontSize=14;fontStyle=1;aspect=fixed;shape=mxgraph.aws4.resourceIcon;resIcon=mxgraph.aws4.s3;fontFamily=Gloria Hallelujah;fontSource=https%3A%2F%2Ffonts.googleapis.com%2Fcss%3Ffamily%3DGloria%2BHallelujah;labelBackgroundColor=none;" parent="1" vertex="1">
          <mxGeometry x="1250" y="506" width="78" height="78" as="geometry" />
        </mxCell>
        <mxCell id="UUSq_2UDcAGou4G-HE2J-35" value="Private&lt;div&gt;Link&lt;/div&gt;" style="edgeStyle=orthogonalEdgeStyle;curved=1;rounded=0;hachureGap=4;orthogonalLoop=1;jettySize=auto;html=1;entryX=0;entryY=0.5;entryDx=0;entryDy=0;entryPerimeter=0;strokeColor=#7F00FF;strokeWidth=2;align=center;verticalAlign=middle;fontFamily=Gloria Hallelujah;fontSource=https%3A%2F%2Ffonts.googleapis.com%2Fcss%3Ffamily%3DGloria%2BHallelujah;fontSize=14;fontColor=#232F3E;fontStyle=1;labelBackgroundColor=none;endArrow=classic;flowAnimation=1;" parent="1" source="UUSq_2UDcAGou4G-HE2J-22" target="UUSq_2UDcAGou4G-HE2J-33" edge="1">
          <mxGeometry relative="1" as="geometry" />
        </mxCell>
        <mxCell id="UUSq_2UDcAGou4G-HE2J-36" value="RDS" style="sketch=0;points=[[0,0,0],[0.25,0,0],[0.5,0,0],[0.75,0,0],[1,0,0],[0,1,0],[0.25,1,0],[0.5,1,0],[0.75,1,0],[1,1,0],[0,0.25,0],[0,0.5,0],[0,0.75,0],[1,0.25,0],[1,0.5,0],[1,0.75,0]];outlineConnect=0;fontColor=#232F3E;fillColor=#C925D1;strokeColor=#ffffff;dashed=0;verticalLabelPosition=bottom;verticalAlign=top;align=center;html=1;fontSize=14;fontStyle=1;aspect=fixed;shape=mxgraph.aws4.resourceIcon;resIcon=mxgraph.aws4.rds;fontFamily=Gloria Hallelujah;fontSource=https%3A%2F%2Ffonts.googleapis.com%2Fcss%3Ffamily%3DGloria%2BHallelujah;labelBackgroundColor=none;" parent="1" vertex="1">
          <mxGeometry x="1250" y="766" width="78" height="78" as="geometry" />
        </mxCell>
        <mxCell id="UUSq_2UDcAGou4G-HE2J-38" style="edgeStyle=orthogonalEdgeStyle;curved=1;rounded=0;hachureGap=4;orthogonalLoop=1;jettySize=auto;html=1;entryX=0;entryY=0.5;entryDx=0;entryDy=0;entryPerimeter=0;strokeColor=#7F00FF;strokeWidth=2;align=center;verticalAlign=middle;fontFamily=Gloria Hallelujah;fontSource=https%3A%2F%2Ffonts.googleapis.com%2Fcss%3Ffamily%3DGloria%2BHallelujah;fontSize=14;fontColor=#232F3E;fontStyle=1;labelBackgroundColor=none;endArrow=classic;flowAnimation=1;" parent="1" source="UUSq_2UDcAGou4G-HE2J-27" target="UUSq_2UDcAGou4G-HE2J-36" edge="1">
          <mxGeometry relative="1" as="geometry" />
        </mxCell>
        <mxCell id="UUSq_2UDcAGou4G-HE2J-40" value="CloudTrial" style="sketch=0;points=[[0,0,0],[0.25,0,0],[0.5,0,0],[0.75,0,0],[1,0,0],[0,1,0],[0.25,1,0],[0.5,1,0],[0.75,1,0],[1,1,0],[0,0.25,0],[0,0.5,0],[0,0.75,0],[1,0.25,0],[1,0.5,0],[1,0.75,0]];points=[[0,0,0],[0.25,0,0],[0.5,0,0],[0.75,0,0],[1,0,0],[0,1,0],[0.25,1,0],[0.5,1,0],[0.75,1,0],[1,1,0],[0,0.25,0],[0,0.5,0],[0,0.75,0],[1,0.25,0],[1,0.5,0],[1,0.75,0]];outlineConnect=0;fontColor=#232F3E;fillColor=#E7157B;strokeColor=#ffffff;dashed=0;verticalLabelPosition=bottom;verticalAlign=top;align=center;html=1;fontSize=14;fontStyle=1;aspect=fixed;shape=mxgraph.aws4.resourceIcon;resIcon=mxgraph.aws4.cloudtrail;fontFamily=Gloria Hallelujah;fontSource=https%3A%2F%2Ffonts.googleapis.com%2Fcss%3Ffamily%3DGloria%2BHallelujah;labelBackgroundColor=none;" parent="1" vertex="1">
          <mxGeometry x="370" y="280" width="78" height="78" as="geometry" />
        </mxCell>
        <mxCell id="UUSq_2UDcAGou4G-HE2J-41" value="S3 Buckets&lt;div&gt;&lt;br&gt;&lt;/div&gt;" style="sketch=0;points=[[0,0,0],[0.25,0,0],[0.5,0,0],[0.75,0,0],[1,0,0],[0,1,0],[0.25,1,0],[0.5,1,0],[0.75,1,0],[1,1,0],[0,0.25,0],[0,0.5,0],[0,0.75,0],[1,0.25,0],[1,0.5,0],[1,0.75,0]];outlineConnect=0;fontColor=#232F3E;fillColor=#7AA116;strokeColor=#ffffff;dashed=0;verticalLabelPosition=bottom;verticalAlign=top;align=center;html=1;fontSize=14;fontStyle=1;aspect=fixed;shape=mxgraph.aws4.resourceIcon;resIcon=mxgraph.aws4.s3;fontFamily=Gloria Hallelujah;fontSource=https%3A%2F%2Ffonts.googleapis.com%2Fcss%3Ffamily%3DGloria%2BHallelujah;labelBackgroundColor=none;" parent="1" vertex="1">
          <mxGeometry x="642" y="280" width="78" height="78" as="geometry" />
        </mxCell>
        <mxCell id="UUSq_2UDcAGou4G-HE2J-42" value="Runtime Analysis" style="edgeStyle=orthogonalEdgeStyle;curved=1;rounded=0;hachureGap=4;orthogonalLoop=1;jettySize=auto;html=1;entryX=1;entryY=0.5;entryDx=0;entryDy=0;entryPerimeter=0;strokeColor=#FF00FF;strokeWidth=2;align=center;verticalAlign=middle;fontFamily=Gloria Hallelujah;fontSource=https%3A%2F%2Ffonts.googleapis.com%2Fcss%3Ffamily%3DGloria%2BHallelujah;fontSize=14;fontColor=#232F3E;fontStyle=1;labelBackgroundColor=none;endArrow=classic;flowAnimation=1;exitX=0.376;exitY=-0.004;exitDx=0;exitDy=0;exitPerimeter=0;" parent="1" source="UUSq_2UDcAGou4G-HE2J-9" target="UUSq_2UDcAGou4G-HE2J-41" edge="1">
          <mxGeometry x="-0.0827" y="21" relative="1" as="geometry">
            <mxPoint as="offset" />
          </mxGeometry>
        </mxCell>
        <mxCell id="UUSq_2UDcAGou4G-HE2J-43" value="CloudWatch&lt;div style=&quot;font-size: 14px;&quot;&gt;&lt;br style=&quot;font-size: 14px;&quot;&gt;&lt;/div&gt;" style="sketch=0;points=[[0,0,0],[0.25,0,0],[0.5,0,0],[0.75,0,0],[1,0,0],[0,1,0],[0.25,1,0],[0.5,1,0],[0.75,1,0],[1,1,0],[0,0.25,0],[0,0.5,0],[0,0.75,0],[1,0.25,0],[1,0.5,0],[1,0.75,0]];points=[[0,0,0],[0.25,0,0],[0.5,0,0],[0.75,0,0],[1,0,0],[0,1,0],[0.25,1,0],[0.5,1,0],[0.75,1,0],[1,1,0],[0,0.25,0],[0,0.5,0],[0,0.75,0],[1,0.25,0],[1,0.5,0],[1,0.75,0]];outlineConnect=0;fontColor=#232F3E;fillColor=#E7157B;strokeColor=#ffffff;dashed=0;verticalLabelPosition=bottom;verticalAlign=top;align=center;html=1;fontSize=14;fontStyle=1;aspect=fixed;shape=mxgraph.aws4.resourceIcon;resIcon=mxgraph.aws4.cloudwatch_2;fontFamily=Gloria Hallelujah;fontSource=https%3A%2F%2Ffonts.googleapis.com%2Fcss%3Ffamily%3DGloria%2BHallelujah;labelBackgroundColor=none;" parent="1" vertex="1">
          <mxGeometry x="520" y="280" width="78" height="78" as="geometry" />
        </mxCell>
        <mxCell id="UUSq_2UDcAGou4G-HE2J-45" value="" style="shape=curlyBracket;whiteSpace=wrap;html=1;rounded=1;labelPosition=left;verticalLabelPosition=middle;align=right;verticalAlign=middle;dashed=0;sketch=1;strokeColor=#000000;fontFamily=Gloria Hallelujah;fontSource=https%3A%2F%2Ffonts.googleapis.com%2Fcss%3Ffamily%3DGloria%2BHallelujah;fontSize=14;fontColor=#000000;fontStyle=1;labelBackgroundColor=none;fillColor=#ED7100;rotation=90;curveFitting=1;jiggle=2;" parent="1" vertex="1">
          <mxGeometry x="615" y="160" width="10" height="200" as="geometry" />
        </mxCell>
        <mxCell id="UUSq_2UDcAGou4G-HE2J-46" value="VPC Flow Log" style="text;html=1;align=center;verticalAlign=middle;whiteSpace=wrap;rounded=0;fontFamily=Gloria Hallelujah;fontSource=https%3A%2F%2Ffonts.googleapis.com%2Fcss%3Ffamily%3DGloria%2BHallelujah;fontSize=14;fontColor=#232F3E;fontStyle=1;labelBackgroundColor=none;" parent="1" vertex="1">
          <mxGeometry x="570" y="220" width="100" height="30" as="geometry" />
        </mxCell>
        <mxCell id="UUSq_2UDcAGou4G-HE2J-47" value="OR" style="text;html=1;align=center;verticalAlign=middle;whiteSpace=wrap;rounded=0;fontFamily=Gloria Hallelujah;fontSource=https%3A%2F%2Ffonts.googleapis.com%2Fcss%3Ffamily%3DGloria%2BHallelujah;fontSize=14;fontColor=#232F3E;fontStyle=1;labelBackgroundColor=none;" parent="1" vertex="1">
          <mxGeometry x="602" y="304" width="40" height="30" as="geometry" />
        </mxCell>
        <mxCell id="UUSq_2UDcAGou4G-HE2J-51" style="edgeStyle=orthogonalEdgeStyle;curved=1;rounded=0;hachureGap=4;orthogonalLoop=1;jettySize=auto;html=1;exitX=0;exitY=0.5;exitDx=0;exitDy=0;exitPerimeter=0;strokeColor=#7F00FF;strokeWidth=2;align=center;verticalAlign=middle;fontFamily=Gloria Hallelujah;fontSource=https%3A%2F%2Ffonts.googleapis.com%2Fcss%3Ffamily%3DGloria%2BHallelujah;fontSize=14;fontColor=#232F3E;fontStyle=1;labelBackgroundColor=none;endArrow=classic;flowAnimation=1;" parent="1" source="UUSq_2UDcAGou4G-HE2J-48" target="UUSq_2UDcAGou4G-HE2J-8" edge="1">
          <mxGeometry relative="1" as="geometry" />
        </mxCell>
        <mxCell id="UUSq_2UDcAGou4G-HE2J-48" value="Direct Connect" style="sketch=0;points=[[0,0,0],[0.25,0,0],[0.5,0,0],[0.75,0,0],[1,0,0],[0,1,0],[0.25,1,0],[0.5,1,0],[0.75,1,0],[1,1,0],[0,0.25,0],[0,0.5,0],[0,0.75,0],[1,0.25,0],[1,0.5,0],[1,0.75,0]];outlineConnect=0;fontColor=#232F3E;fillColor=#8C4FFF;strokeColor=#ffffff;dashed=0;verticalLabelPosition=bottom;verticalAlign=top;align=center;html=1;fontSize=14;fontStyle=1;aspect=fixed;shape=mxgraph.aws4.resourceIcon;resIcon=mxgraph.aws4.direct_connect;fontFamily=Gloria Hallelujah;fontSource=https%3A%2F%2Ffonts.googleapis.com%2Fcss%3Ffamily%3DGloria%2BHallelujah;labelBackgroundColor=none;" parent="1" vertex="1">
          <mxGeometry x="-20" y="800" width="78" height="78" as="geometry" />
        </mxCell>
        <mxCell id="UUSq_2UDcAGou4G-HE2J-49" value="" style="sketch=0;outlineConnect=0;fontColor=#232F3E;gradientColor=none;fillColor=#8C4FFF;strokeColor=none;dashed=0;verticalLabelPosition=bottom;verticalAlign=top;align=center;html=1;fontSize=12;fontStyle=1;aspect=fixed;pointerEvents=1;shape=mxgraph.aws4.gateway;fontFamily=Gloria Hallelujah;fontSource=https%3A%2F%2Ffonts.googleapis.com%2Fcss%3Ffamily%3DGloria%2BHallelujah;labelBackgroundColor=none;" parent="1" vertex="1">
          <mxGeometry x="270" y="760" width="56.51" height="58" as="geometry" />
        </mxCell>
        <mxCell id="UUSq_2UDcAGou4G-HE2J-50" value="Hybrid Cloud&lt;div&gt;Networking&lt;/div&gt;" style="edgeStyle=orthogonalEdgeStyle;curved=1;rounded=0;hachureGap=4;orthogonalLoop=1;jettySize=auto;html=1;entryX=1;entryY=0.5;entryDx=0;entryDy=0;entryPerimeter=0;strokeColor=#7F00FF;strokeWidth=2;align=center;verticalAlign=middle;fontFamily=Gloria Hallelujah;fontSource=https%3A%2F%2Ffonts.googleapis.com%2Fcss%3Ffamily%3DGloria%2BHallelujah;fontSize=14;fontColor=#232F3E;fontStyle=1;labelBackgroundColor=none;endArrow=classic;flowAnimation=1;" parent="1" source="UUSq_2UDcAGou4G-HE2J-49" target="UUSq_2UDcAGou4G-HE2J-48" edge="1">
          <mxGeometry x="-0.031" y="-24" relative="1" as="geometry">
            <mxPoint as="offset" />
          </mxGeometry>
        </mxCell>
        <mxCell id="UUSq_2UDcAGou4G-HE2J-85" style="edgeStyle=orthogonalEdgeStyle;curved=1;rounded=0;hachureGap=4;orthogonalLoop=1;jettySize=auto;html=1;exitX=0.5;exitY=1;exitDx=0;exitDy=0;exitPerimeter=0;entryX=1;entryY=0.25;entryDx=0;entryDy=0;strokeColor=#808080;strokeWidth=2;align=center;verticalAlign=middle;fontFamily=Gloria Hallelujah;fontSource=https%3A%2F%2Ffonts.googleapis.com%2Fcss%3Ffamily%3DGloria%2BHallelujah;fontSize=14;fontColor=#232F3E;fontStyle=1;labelBackgroundColor=none;endArrow=classic;flowAnimation=1;" parent="1" source="UUSq_2UDcAGou4G-HE2J-52" target="UUSq_2UDcAGou4G-HE2J-63" edge="1">
          <mxGeometry relative="1" as="geometry" />
        </mxCell>
        <mxCell id="UUSq_2UDcAGou4G-HE2J-52" value="" style="sketch=0;points=[[0.015,0.015,0],[0.985,0.015,0],[0.985,0.985,0],[0.015,0.985,0],[0.25,0,0],[0.5,0,0],[0.75,0,0],[1,0.25,0],[1,0.5,0],[1,0.75,0],[0.75,1,0],[0.5,1,0],[0.25,1,0],[0,0.75,0],[0,0.5,0],[0,0.25,0]];verticalLabelPosition=bottom;html=1;verticalAlign=top;aspect=fixed;align=center;pointerEvents=1;shape=mxgraph.cisco19.rect;prIcon=firewall;fillColor=#FF8000;strokeColor=#005073;dashed=0;fontFamily=Gloria Hallelujah;fontSource=https%3A%2F%2Ffonts.googleapis.com%2Fcss%3Ffamily%3DGloria%2BHallelujah;fontSize=14;fontColor=#232F3E;fontStyle=1;labelBackgroundColor=none;" parent="1" vertex="1">
          <mxGeometry x="-150" y="630" width="64" height="50" as="geometry" />
        </mxCell>
        <mxCell id="UUSq_2UDcAGou4G-HE2J-53" value="Internal Network" style="sketch=0;outlineConnect=0;gradientColor=none;html=1;whiteSpace=wrap;fontSize=14;fontStyle=1;shape=mxgraph.aws4.group;grIcon=mxgraph.aws4.group_subnet;strokeColor=#879196;fillColor=none;verticalAlign=top;align=left;spacingLeft=30;fontColor=#879196;dashed=0;fontFamily=Gloria Hallelujah;fontSource=https%3A%2F%2Ffonts.googleapis.com%2Fcss%3Ffamily%3DGloria%2BHallelujah;labelBackgroundColor=none;" parent="1" vertex="1">
          <mxGeometry x="-660" y="690" width="250" height="160" as="geometry" />
        </mxCell>
        <mxCell id="UUSq_2UDcAGou4G-HE2J-54" value="DMZ Network" style="sketch=0;outlineConnect=0;gradientColor=none;html=1;whiteSpace=wrap;fontSize=14;fontStyle=1;shape=mxgraph.aws4.group;grIcon=mxgraph.aws4.group_subnet;strokeColor=#879196;fillColor=none;verticalAlign=top;align=left;spacingLeft=30;fontColor=#879196;dashed=0;fontFamily=Gloria Hallelujah;fontSource=https%3A%2F%2Ffonts.googleapis.com%2Fcss%3Ffamily%3DGloria%2BHallelujah;labelBackgroundColor=none;" parent="1" vertex="1">
          <mxGeometry x="-390" y="690" width="250" height="160" as="geometry" />
        </mxCell>
        <mxCell id="UUSq_2UDcAGou4G-HE2J-55" value="Management network" style="sketch=0;outlineConnect=0;gradientColor=none;html=1;whiteSpace=wrap;fontSize=14;fontStyle=1;shape=mxgraph.aws4.group;grIcon=mxgraph.aws4.group_subnet;strokeColor=#879196;fillColor=none;verticalAlign=top;align=left;spacingLeft=30;fontColor=#879196;dashed=0;fontFamily=Gloria Hallelujah;fontSource=https%3A%2F%2Ffonts.googleapis.com%2Fcss%3Ffamily%3DGloria%2BHallelujah;labelBackgroundColor=none;" parent="1" vertex="1">
          <mxGeometry x="-660" y="870" width="250" height="110" as="geometry" />
        </mxCell>
        <mxCell id="UUSq_2UDcAGou4G-HE2J-56" value="Storage" style="shape=cylinder3;whiteSpace=wrap;html=1;boundedLbl=1;backgroundOutline=1;size=15;dashed=0;sketch=1;strokeColor=#000000;align=center;verticalAlign=top;fontFamily=Gloria Hallelujah;fontSource=https%3A%2F%2Ffonts.googleapis.com%2Fcss%3Ffamily%3DGloria%2BHallelujah;fontSize=14;fontColor=#232F3E;fontStyle=1;labelBackgroundColor=none;fillColor=none;curveFitting=1;jiggle=2;" parent="1" vertex="1">
          <mxGeometry x="-360" y="885" width="80" height="80" as="geometry" />
        </mxCell>
        <mxCell id="UUSq_2UDcAGou4G-HE2J-57" value="VM" style="whiteSpace=wrap;html=1;aspect=fixed;dashed=0;sketch=1;strokeColor=#000000;align=center;verticalAlign=middle;fontFamily=Gloria Hallelujah;fontSource=https%3A%2F%2Ffonts.googleapis.com%2Fcss%3Ffamily%3DGloria%2BHallelujah;fontSize=16;fontColor=#232F3E;fontStyle=1;labelBackgroundColor=none;fillColor=default;curveFitting=1;jiggle=2;rounded=1;" parent="1" vertex="1">
          <mxGeometry x="-620" y="742.5" width="65" height="65" as="geometry" />
        </mxCell>
        <mxCell id="UUSq_2UDcAGou4G-HE2J-58" value="VM" style="whiteSpace=wrap;html=1;aspect=fixed;dashed=0;sketch=1;strokeColor=#000000;align=center;verticalAlign=middle;fontFamily=Gloria Hallelujah;fontSource=https%3A%2F%2Ffonts.googleapis.com%2Fcss%3Ffamily%3DGloria%2BHallelujah;fontSize=16;fontColor=#232F3E;fontStyle=1;labelBackgroundColor=none;fillColor=default;curveFitting=1;jiggle=2;rounded=1;" parent="1" vertex="1">
          <mxGeometry x="-520" y="742.5" width="65" height="65" as="geometry" />
        </mxCell>
        <mxCell id="UUSq_2UDcAGou4G-HE2J-59" value="VM" style="whiteSpace=wrap;html=1;aspect=fixed;dashed=0;sketch=1;strokeColor=#000000;align=center;verticalAlign=middle;fontFamily=Gloria Hallelujah;fontSource=https%3A%2F%2Ffonts.googleapis.com%2Fcss%3Ffamily%3DGloria%2BHallelujah;fontSize=16;fontColor=#232F3E;fontStyle=1;labelBackgroundColor=none;fillColor=default;curveFitting=1;jiggle=2;rounded=1;" parent="1" vertex="1">
          <mxGeometry x="-610" y="900" width="65" height="65" as="geometry" />
        </mxCell>
        <mxCell id="UUSq_2UDcAGou4G-HE2J-60" value="VM" style="whiteSpace=wrap;html=1;aspect=fixed;dashed=0;sketch=1;strokeColor=#000000;align=center;verticalAlign=middle;fontFamily=Gloria Hallelujah;fontSource=https%3A%2F%2Ffonts.googleapis.com%2Fcss%3Ffamily%3DGloria%2BHallelujah;fontSize=16;fontColor=#232F3E;fontStyle=1;labelBackgroundColor=none;fillColor=default;curveFitting=1;jiggle=2;rounded=1;" parent="1" vertex="1">
          <mxGeometry x="-510" y="900" width="65" height="65" as="geometry" />
        </mxCell>
        <mxCell id="UUSq_2UDcAGou4G-HE2J-86" style="edgeStyle=orthogonalEdgeStyle;curved=1;rounded=0;hachureGap=4;orthogonalLoop=1;jettySize=auto;html=1;exitX=0;exitY=0.25;exitDx=0;exitDy=0;entryX=1;entryY=0.25;entryDx=0;entryDy=0;strokeColor=#808080;strokeWidth=2;align=center;verticalAlign=middle;fontFamily=Gloria Hallelujah;fontSource=https%3A%2F%2Ffonts.googleapis.com%2Fcss%3Ffamily%3DGloria%2BHallelujah;fontSize=14;fontColor=#232F3E;fontStyle=1;labelBackgroundColor=none;endArrow=classic;flowAnimation=1;" parent="1" source="UUSq_2UDcAGou4G-HE2J-63" target="UUSq_2UDcAGou4G-HE2J-58" edge="1">
          <mxGeometry relative="1" as="geometry" />
        </mxCell>
        <mxCell id="UUSq_2UDcAGou4G-HE2J-63" value="VM" style="whiteSpace=wrap;html=1;aspect=fixed;dashed=0;sketch=1;strokeColor=#000000;align=center;verticalAlign=middle;fontFamily=Gloria Hallelujah;fontSource=https%3A%2F%2Ffonts.googleapis.com%2Fcss%3Ffamily%3DGloria%2BHallelujah;fontSize=16;fontColor=#232F3E;fontStyle=1;labelBackgroundColor=none;fillColor=default;curveFitting=1;jiggle=2;rounded=1;" parent="1" vertex="1">
          <mxGeometry x="-340" y="742.5" width="65" height="65" as="geometry" />
        </mxCell>
        <mxCell id="UUSq_2UDcAGou4G-HE2J-64" value="VM" style="whiteSpace=wrap;html=1;aspect=fixed;dashed=0;sketch=1;strokeColor=#000000;align=center;verticalAlign=middle;fontFamily=Gloria Hallelujah;fontSource=https%3A%2F%2Ffonts.googleapis.com%2Fcss%3Ffamily%3DGloria%2BHallelujah;fontSize=16;fontColor=#232F3E;fontStyle=1;labelBackgroundColor=none;fillColor=default;curveFitting=1;jiggle=2;rounded=1;" parent="1" vertex="1">
          <mxGeometry x="-240" y="742.5" width="65" height="65" as="geometry" />
        </mxCell>
        <mxCell id="UUSq_2UDcAGou4G-HE2J-66" value="Prisma Cloud&lt;br&gt;(SaaS)" style="ellipse;shape=cloud;whiteSpace=wrap;html=1;rounded=1;dashed=0;sketch=1;jiggle=2;curveFitting=1;strokeColor=#000000;align=center;verticalAlign=middle;fontFamily=Gloria Hallelujah;fontSource=https%3A%2F%2Ffonts.googleapis.com%2Fcss%3Ffamily%3DGloria%2BHallelujah;fontSize=16;fontColor=#232F3E;fontStyle=1;labelBackgroundColor=none;fillColor=none;" parent="1" vertex="1">
          <mxGeometry x="-515" y="480" width="220" height="140" as="geometry" />
        </mxCell>
        <mxCell id="UUSq_2UDcAGou4G-HE2J-67" value="" style="shape=image;imageAspect=0;aspect=fixed;verticalLabelPosition=bottom;verticalAlign=top;rounded=1;dashed=0;sketch=1;jiggle=2;curveFitting=1;strokeColor=#000000;align=center;fontFamily=Gloria Hallelujah;fontSource=https%3A%2F%2Ffonts.googleapis.com%2Fcss%3Ffamily%3DGloria%2BHallelujah;fontSize=14;fontColor=#232F3E;fontStyle=1;labelBackgroundColor=none;fillColor=none;image=https://images.crunchbase.com/image/upload/c_pad,f_auto,q_auto:eco,dpr_1/rfuwf3yqq2cermkmrej6;" parent="1" vertex="1">
          <mxGeometry x="-520" y="460" width="69.06" height="90" as="geometry" />
        </mxCell>
        <mxCell id="UUSq_2UDcAGou4G-HE2J-69" value="Vulnerabilities" style="rounded=1;whiteSpace=wrap;html=1;dashed=0;sketch=1;jiggle=2;curveFitting=1;strokeColor=#d79b00;align=center;verticalAlign=middle;fontFamily=Gloria Hallelujah;fontSource=https%3A%2F%2Ffonts.googleapis.com%2Fcss%3Ffamily%3DGloria%2BHallelujah;fontSize=14;fontStyle=1;labelBackgroundColor=none;fillColor=#ffcd28;gradientColor=#ffa500;" parent="1" vertex="1">
          <mxGeometry x="-575" y="-10" width="140" height="60" as="geometry" />
        </mxCell>
        <mxCell id="UUSq_2UDcAGou4G-HE2J-70" value="Compliance" style="rounded=1;whiteSpace=wrap;html=1;dashed=0;sketch=1;jiggle=2;curveFitting=1;strokeColor=#d79b00;align=center;verticalAlign=middle;fontFamily=Gloria Hallelujah;fontSource=https%3A%2F%2Ffonts.googleapis.com%2Fcss%3Ffamily%3DGloria%2BHallelujah;fontSize=14;fontStyle=1;labelBackgroundColor=none;fillColor=#ffcd28;gradientColor=#ffa500;" parent="1" vertex="1">
          <mxGeometry x="-415" y="-10" width="140" height="60" as="geometry" />
        </mxCell>
        <mxCell id="UUSq_2UDcAGou4G-HE2J-71" value="Runtime" style="rounded=1;whiteSpace=wrap;html=1;dashed=0;sketch=1;jiggle=2;curveFitting=1;strokeColor=#d79b00;align=center;verticalAlign=middle;fontFamily=Gloria Hallelujah;fontSource=https%3A%2F%2Ffonts.googleapis.com%2Fcss%3Ffamily%3DGloria%2BHallelujah;fontSize=14;fontStyle=1;labelBackgroundColor=none;fillColor=#ffcd28;gradientColor=#ffa500;" parent="1" vertex="1">
          <mxGeometry x="-255" y="-10" width="140" height="60" as="geometry" />
        </mxCell>
        <mxCell id="UUSq_2UDcAGou4G-HE2J-72" value="Web App&lt;div&gt;API Security&lt;/div&gt;" style="rounded=1;whiteSpace=wrap;html=1;dashed=0;sketch=1;jiggle=2;curveFitting=1;strokeColor=#d79b00;align=center;verticalAlign=middle;fontFamily=Gloria Hallelujah;fontSource=https%3A%2F%2Ffonts.googleapis.com%2Fcss%3Ffamily%3DGloria%2BHallelujah;fontSize=14;fontStyle=1;labelBackgroundColor=none;fillColor=#ffcd28;gradientColor=#ffa500;" parent="1" vertex="1">
          <mxGeometry x="-95" y="-10" width="140" height="60" as="geometry" />
        </mxCell>
        <mxCell id="UUSq_2UDcAGou4G-HE2J-73" value="Cloud" style="rounded=1;whiteSpace=wrap;html=1;dashed=0;sketch=1;jiggle=2;curveFitting=1;strokeColor=#d6b656;align=center;verticalAlign=middle;fontFamily=Gloria Hallelujah;fontSource=https%3A%2F%2Ffonts.googleapis.com%2Fcss%3Ffamily%3DGloria%2BHallelujah;fontSize=14;fontStyle=1;labelBackgroundColor=none;fillColor=#fff2cc;gradientColor=#ffd966;" parent="1" vertex="1">
          <mxGeometry x="-740" y="70" width="140" height="60" as="geometry" />
        </mxCell>
        <mxCell id="UUSq_2UDcAGou4G-HE2J-74" value="Cluster / Host" style="rounded=1;whiteSpace=wrap;html=1;dashed=0;sketch=1;jiggle=2;curveFitting=1;strokeColor=#d6b656;align=center;verticalAlign=middle;fontFamily=Gloria Hallelujah;fontSource=https%3A%2F%2Ffonts.googleapis.com%2Fcss%3Ffamily%3DGloria%2BHallelujah;fontSize=14;fontStyle=1;labelBackgroundColor=none;fillColor=#fff2cc;gradientColor=#ffd966;" parent="1" vertex="1">
          <mxGeometry x="-740" y="150" width="140" height="60" as="geometry" />
        </mxCell>
        <mxCell id="UUSq_2UDcAGou4G-HE2J-75" value="Container" style="rounded=1;whiteSpace=wrap;html=1;dashed=0;sketch=1;jiggle=2;curveFitting=1;strokeColor=#d6b656;align=center;verticalAlign=middle;fontFamily=Gloria Hallelujah;fontSource=https%3A%2F%2Ffonts.googleapis.com%2Fcss%3Ffamily%3DGloria%2BHallelujah;fontSize=14;fontStyle=1;labelBackgroundColor=none;fillColor=#fff2cc;gradientColor=#ffd966;" parent="1" vertex="1">
          <mxGeometry x="-740" y="230" width="140" height="60" as="geometry" />
        </mxCell>
        <mxCell id="UUSq_2UDcAGou4G-HE2J-76" value="Code" style="rounded=1;whiteSpace=wrap;html=1;dashed=0;sketch=1;jiggle=2;curveFitting=1;strokeColor=#d6b656;align=center;verticalAlign=middle;fontFamily=Gloria Hallelujah;fontSource=https%3A%2F%2Ffonts.googleapis.com%2Fcss%3Ffamily%3DGloria%2BHallelujah;fontSize=14;fontStyle=1;labelBackgroundColor=none;fillColor=#fff2cc;gradientColor=#ffd966;" parent="1" vertex="1">
          <mxGeometry x="-740" y="315" width="140" height="60" as="geometry" />
        </mxCell>
        <mxCell id="UUSq_2UDcAGou4G-HE2J-77" value="&lt;div&gt;CSPM / CIEM / DSPM&lt;br&gt;&lt;/div&gt;" style="rounded=1;whiteSpace=wrap;html=1;dashed=0;sketch=1;jiggle=2;curveFitting=1;strokeColor=#82b366;align=center;verticalAlign=middle;fontFamily=Gloria Hallelujah;fontSource=https%3A%2F%2Ffonts.googleapis.com%2Fcss%3Ffamily%3DGloria%2BHallelujah;fontSize=14;fontStyle=1;labelBackgroundColor=none;fillColor=#d5e8d4;" parent="1" vertex="1">
          <mxGeometry x="-575" y="70" width="525" height="60" as="geometry" />
        </mxCell>
        <mxCell id="UUSq_2UDcAGou4G-HE2J-78" value="CWPP&lt;br&gt;&lt;br&gt;(Cloud Workload Protection Platform)&lt;br&gt;&lt;div&gt;&lt;br&gt;&lt;/div&gt;&lt;div&gt;Supporting Both Agent &amp;amp; Agentless Approach&lt;/div&gt;" style="rounded=1;whiteSpace=wrap;html=1;dashed=0;sketch=1;jiggle=2;curveFitting=1;strokeColor=#82b366;align=center;verticalAlign=middle;fontFamily=Gloria Hallelujah;fontSource=https%3A%2F%2Ffonts.googleapis.com%2Fcss%3Ffamily%3DGloria%2BHallelujah;fontSize=14;fontStyle=1;labelBackgroundColor=none;fillColor=#d5e8d4;" parent="1" vertex="1">
          <mxGeometry x="-575" y="150" width="615" height="140" as="geometry" />
        </mxCell>
        <mxCell id="UUSq_2UDcAGou4G-HE2J-79" value="&lt;div&gt;CAS&lt;br&gt;&lt;/div&gt;&lt;div&gt;(Cloud Application Security)&lt;/div&gt;" style="rounded=1;whiteSpace=wrap;html=1;dashed=0;sketch=1;jiggle=2;curveFitting=1;strokeColor=#82b366;align=center;verticalAlign=middle;fontFamily=Gloria Hallelujah;fontSource=https%3A%2F%2Ffonts.googleapis.com%2Fcss%3Ffamily%3DGloria%2BHallelujah;fontSize=14;fontStyle=1;labelBackgroundColor=none;fillColor=#d5e8d4;" parent="1" vertex="1">
          <mxGeometry x="-575" y="315" width="305" height="60" as="geometry" />
        </mxCell>
        <mxCell id="UUSq_2UDcAGou4G-HE2J-81" value="CNCF&lt;div&gt;4C&lt;/div&gt;&lt;div&gt;Security&lt;/div&gt;" style="shape=curlyBracket;whiteSpace=wrap;html=1;rounded=1;labelPosition=left;verticalLabelPosition=middle;align=center;verticalAlign=middle;dashed=0;sketch=1;jiggle=2;curveFitting=1;strokeColor=#000000;fontFamily=Gloria Hallelujah;fontSource=https%3A%2F%2Ffonts.googleapis.com%2Fcss%3Ffamily%3DGloria%2BHallelujah;fontSize=14;fontColor=#232F3E;fontStyle=1;labelBackgroundColor=none;fillColor=none;" parent="1" vertex="1">
          <mxGeometry x="-790" y="70" width="20" height="310" as="geometry" />
        </mxCell>
        <mxCell id="UUSq_2UDcAGou4G-HE2J-82" value="Prisma Cloud Security Protection Area" style="endArrow=classic;startArrow=classic;html=1;rounded=0;hachureGap=4;strokeColor=#7F00FF;strokeWidth=2;align=center;verticalAlign=middle;fontFamily=Gloria Hallelujah;fontSource=https%3A%2F%2Ffonts.googleapis.com%2Fcss%3Ffamily%3DGloria%2BHallelujah;fontSize=14;fontColor=#232F3E;fontStyle=1;labelBackgroundColor=none;edgeStyle=orthogonalEdgeStyle;flowAnimation=1;curved=1;" parent="1" edge="1">
          <mxGeometry x="-0.0081" y="10" width="50" height="50" relative="1" as="geometry">
            <mxPoint x="-575" y="-40" as="sourcePoint" />
            <mxPoint x="40" y="-40" as="targetPoint" />
            <mxPoint as="offset" />
          </mxGeometry>
        </mxCell>
        <mxCell id="UUSq_2UDcAGou4G-HE2J-83" value="" style="shape=image;imageAspect=0;aspect=fixed;verticalLabelPosition=bottom;verticalAlign=top;rounded=1;dashed=0;sketch=1;jiggle=2;curveFitting=1;strokeColor=#000000;align=center;fontFamily=Gloria Hallelujah;fontSource=https%3A%2F%2Ffonts.googleapis.com%2Fcss%3Ffamily%3DGloria%2BHallelujah;fontSize=14;fontColor=#232F3E;fontStyle=1;labelBackgroundColor=none;fillColor=none;image=https://images.crunchbase.com/image/upload/c_pad,f_auto,q_auto:eco,dpr_1/rfuwf3yqq2cermkmrej6;" parent="1" vertex="1">
          <mxGeometry x="-441.67999999999995" y="-80" width="38.37" height="50" as="geometry" />
        </mxCell>
        <mxCell id="UUSq_2UDcAGou4G-HE2J-87" style="edgeStyle=orthogonalEdgeStyle;curved=1;rounded=0;hachureGap=4;orthogonalLoop=1;jettySize=auto;html=1;exitX=1;exitY=0.75;exitDx=0;exitDy=0;entryX=0;entryY=0.5;entryDx=0;entryDy=0;entryPerimeter=0;strokeColor=#808080;strokeWidth=2;align=center;verticalAlign=middle;fontFamily=Gloria Hallelujah;fontSource=https%3A%2F%2Ffonts.googleapis.com%2Fcss%3Ffamily%3DGloria%2BHallelujah;fontSize=14;fontColor=#232F3E;fontStyle=1;labelBackgroundColor=none;endArrow=classic;flowAnimation=1;" parent="1" source="UUSq_2UDcAGou4G-HE2J-58" target="UUSq_2UDcAGou4G-HE2J-56" edge="1">
          <mxGeometry relative="1" as="geometry" />
        </mxCell>
        <mxCell id="UUSq_2UDcAGou4G-HE2J-90" style="edgeStyle=orthogonalEdgeStyle;curved=1;rounded=0;hachureGap=4;orthogonalLoop=1;jettySize=auto;html=1;strokeColor=#00CC66;strokeWidth=2;align=center;verticalAlign=middle;fontFamily=Gloria Hallelujah;fontSource=https%3A%2F%2Ffonts.googleapis.com%2Fcss%3Ffamily%3DGloria%2BHallelujah;fontSize=14;fontColor=#232F3E;fontStyle=1;labelBackgroundColor=none;endArrow=classic;flowAnimation=1;" parent="1" source="UUSq_2UDcAGou4G-HE2J-88" target="UUSq_2UDcAGou4G-HE2J-31" edge="1">
          <mxGeometry relative="1" as="geometry" />
        </mxCell>
        <mxCell id="UUSq_2UDcAGou4G-HE2J-88" value="Application&lt;div&gt;Users&lt;/div&gt;" style="shape=umlActor;verticalLabelPosition=bottom;verticalAlign=top;html=1;outlineConnect=0;rounded=1;dashed=0;sketch=1;jiggle=2;curveFitting=1;strokeColor=#000000;align=center;fontFamily=Gloria Hallelujah;fontSource=https%3A%2F%2Ffonts.googleapis.com%2Fcss%3Ffamily%3DGloria%2BHallelujah;fontSize=14;fontColor=#232F3E;fontStyle=1;labelBackgroundColor=none;fillColor=none;" parent="1" vertex="1">
          <mxGeometry x="45" y="560" width="40.5" height="81" as="geometry" />
        </mxCell>
        <mxCell id="UUSq_2UDcAGou4G-HE2J-89" style="edgeStyle=orthogonalEdgeStyle;curved=1;rounded=0;hachureGap=4;orthogonalLoop=1;jettySize=auto;html=1;entryX=1;entryY=0.5;entryDx=0;entryDy=0;entryPerimeter=0;strokeColor=#00CC66;strokeWidth=2;align=center;verticalAlign=middle;fontFamily=Gloria Hallelujah;fontSource=https%3A%2F%2Ffonts.googleapis.com%2Fcss%3Ffamily%3DGloria%2BHallelujah;fontSize=14;fontColor=#232F3E;fontStyle=1;labelBackgroundColor=none;endArrow=classic;flowAnimation=1;" parent="1" source="UUSq_2UDcAGou4G-HE2J-88" target="UUSq_2UDcAGou4G-HE2J-52" edge="1">
          <mxGeometry relative="1" as="geometry" />
        </mxCell>
        <mxCell id="UUSq_2UDcAGou4G-HE2J-94" value="" style="group;fontStyle=1;labelBackgroundColor=none;" parent="1" vertex="1" connectable="0">
          <mxGeometry x="-295" y="789.75" width="30" height="30.5" as="geometry" />
        </mxCell>
        <mxCell id="UUSq_2UDcAGou4G-HE2J-92" value="" style="rounded=0;whiteSpace=wrap;html=1;dashed=0;strokeColor=#000000;align=center;verticalAlign=middle;fontFamily=Gloria Hallelujah;fontSource=https%3A%2F%2Ffonts.googleapis.com%2Fcss%3Ffamily%3DGloria%2BHallelujah;fontSize=14;fontColor=#232F3E;fontStyle=1;labelBackgroundColor=none;fillColor=#000000;" parent="UUSq_2UDcAGou4G-HE2J-94" vertex="1">
          <mxGeometry width="30" height="29.737499999999997" as="geometry" />
        </mxCell>
        <mxCell id="UUSq_2UDcAGou4G-HE2J-91" value="" style="shape=image;imageAspect=0;aspect=fixed;verticalLabelPosition=bottom;verticalAlign=top;rounded=1;dashed=0;sketch=1;jiggle=2;curveFitting=1;strokeColor=#000000;align=center;fontFamily=Gloria Hallelujah;fontSource=https%3A%2F%2Ffonts.googleapis.com%2Fcss%3Ffamily%3DGloria%2BHallelujah;fontSize=14;fontColor=#232F3E;fontStyle=1;labelBackgroundColor=none;fillColor=none;image=https://images.crunchbase.com/image/upload/c_pad,f_auto,q_auto:eco,dpr_1/rfuwf3yqq2cermkmrej6;" parent="UUSq_2UDcAGou4G-HE2J-94" vertex="1">
          <mxGeometry x="3.4800000000000004" width="23.025" height="30" as="geometry" />
        </mxCell>
        <mxCell id="UUSq_2UDcAGou4G-HE2J-100" style="edgeStyle=orthogonalEdgeStyle;curved=1;rounded=0;hachureGap=4;orthogonalLoop=1;jettySize=auto;html=1;exitX=0;exitY=0.5;exitDx=0;exitDy=0;entryX=0.5;entryY=1;entryDx=0;entryDy=0;strokeColor=#000000;strokeWidth=1;align=center;verticalAlign=middle;fontFamily=Gloria Hallelujah;fontSource=https%3A%2F%2Ffonts.googleapis.com%2Fcss%3Ffamily%3DGloria%2BHallelujah;fontSize=14;fontColor=#232F3E;fontStyle=1;labelBackgroundColor=none;endArrow=classic;flowAnimation=0;sketch=1;curveFitting=1;jiggle=2;" parent="1" source="UUSq_2UDcAGou4G-HE2J-99" target="UUSq_2UDcAGou4G-HE2J-97" edge="1">
          <mxGeometry relative="1" as="geometry" />
        </mxCell>
        <mxCell id="UUSq_2UDcAGou4G-HE2J-99" value="Agent Base CWPP Protection" style="text;html=1;align=center;verticalAlign=middle;whiteSpace=wrap;rounded=0;fontFamily=Gloria Hallelujah;fontSource=https%3A%2F%2Ffonts.googleapis.com%2Fcss%3Ffamily%3DGloria%2BHallelujah;fontSize=14;fontColor=#232F3E;fontStyle=1;labelBackgroundColor=none;" parent="1" vertex="1">
          <mxGeometry x="1030" y="935" width="120" height="30" as="geometry" />
        </mxCell>
        <mxCell id="UUSq_2UDcAGou4G-HE2J-101" value="" style="group;fontStyle=1;labelBackgroundColor=none;" parent="1" vertex="1" connectable="0">
          <mxGeometry x="300" y="260" width="30" height="30.5" as="geometry" />
        </mxCell>
        <mxCell id="UUSq_2UDcAGou4G-HE2J-102" value="" style="rounded=0;whiteSpace=wrap;html=1;dashed=0;strokeColor=#000000;align=center;verticalAlign=middle;fontFamily=Gloria Hallelujah;fontSource=https%3A%2F%2Ffonts.googleapis.com%2Fcss%3Ffamily%3DGloria%2BHallelujah;fontSize=14;fontColor=#232F3E;fontStyle=1;labelBackgroundColor=none;fillColor=#000000;" parent="UUSq_2UDcAGou4G-HE2J-101" vertex="1">
          <mxGeometry width="30" height="29.737499999999997" as="geometry" />
        </mxCell>
        <mxCell id="UUSq_2UDcAGou4G-HE2J-103" value="" style="shape=image;imageAspect=0;aspect=fixed;verticalLabelPosition=bottom;verticalAlign=top;rounded=1;dashed=0;sketch=1;jiggle=2;curveFitting=1;strokeColor=#000000;align=center;fontFamily=Gloria Hallelujah;fontSource=https%3A%2F%2Ffonts.googleapis.com%2Fcss%3Ffamily%3DGloria%2BHallelujah;fontSize=14;fontColor=#232F3E;fontStyle=1;labelBackgroundColor=none;fillColor=none;image=https://images.crunchbase.com/image/upload/c_pad,f_auto,q_auto:eco,dpr_1/rfuwf3yqq2cermkmrej6;" parent="UUSq_2UDcAGou4G-HE2J-101" vertex="1">
          <mxGeometry x="3.4800000000000004" width="23.025" height="30" as="geometry" />
        </mxCell>
        <mxCell id="UUSq_2UDcAGou4G-HE2J-105" style="edgeStyle=orthogonalEdgeStyle;curved=1;rounded=0;sketch=1;hachureGap=4;jiggle=2;curveFitting=1;orthogonalLoop=1;jettySize=auto;html=1;entryX=0.5;entryY=0;entryDx=0;entryDy=0;strokeColor=#000000;strokeWidth=1;align=center;verticalAlign=middle;fontFamily=Gloria Hallelujah;fontSource=https%3A%2F%2Ffonts.googleapis.com%2Fcss%3Ffamily%3DGloria%2BHallelujah;fontSize=14;fontColor=#232F3E;fontStyle=1;labelBackgroundColor=none;endArrow=classic;flowAnimation=0;" parent="1" source="UUSq_2UDcAGou4G-HE2J-104" target="UUSq_2UDcAGou4G-HE2J-103" edge="1">
          <mxGeometry relative="1" as="geometry" />
        </mxCell>
        <mxCell id="UUSq_2UDcAGou4G-HE2J-104" value="IAM Security" style="text;html=1;align=center;verticalAlign=middle;whiteSpace=wrap;rounded=0;fontFamily=Gloria Hallelujah;fontSource=https%3A%2F%2Ffonts.googleapis.com%2Fcss%3Ffamily%3DGloria%2BHallelujah;fontSize=14;fontColor=#232F3E;fontStyle=1;labelBackgroundColor=none;" parent="1" vertex="1">
          <mxGeometry x="358" y="210" width="62" height="30" as="geometry" />
        </mxCell>
        <mxCell id="UUSq_2UDcAGou4G-HE2J-107" style="edgeStyle=orthogonalEdgeStyle;curved=1;rounded=0;sketch=1;hachureGap=4;jiggle=2;curveFitting=1;orthogonalLoop=1;jettySize=auto;html=1;entryX=0.5;entryY=0;entryDx=0;entryDy=0;strokeColor=#000000;strokeWidth=1;align=center;verticalAlign=middle;fontFamily=Gloria Hallelujah;fontSource=https%3A%2F%2Ffonts.googleapis.com%2Fcss%3Ffamily%3DGloria%2BHallelujah;fontSize=14;fontColor=#232F3E;fontStyle=1;labelBackgroundColor=none;endArrow=classic;flowAnimation=0;" parent="1" source="UUSq_2UDcAGou4G-HE2J-106" target="UUSq_2UDcAGou4G-HE2J-2" edge="1">
          <mxGeometry relative="1" as="geometry" />
        </mxCell>
        <mxCell id="UUSq_2UDcAGou4G-HE2J-106" value="CSPM" style="text;html=1;align=center;verticalAlign=middle;whiteSpace=wrap;rounded=0;fontFamily=Gloria Hallelujah;fontSource=https%3A%2F%2Ffonts.googleapis.com%2Fcss%3Ffamily%3DGloria%2BHallelujah;fontSize=14;fontColor=#232F3E;fontStyle=1;labelBackgroundColor=none;" parent="1" vertex="1">
          <mxGeometry x="240" y="110" width="62" height="30" as="geometry" />
        </mxCell>
        <mxCell id="UUSq_2UDcAGou4G-HE2J-110" style="edgeStyle=orthogonalEdgeStyle;curved=1;rounded=0;sketch=1;hachureGap=4;jiggle=2;curveFitting=1;orthogonalLoop=1;jettySize=auto;html=1;strokeColor=#000000;strokeWidth=1;align=center;verticalAlign=middle;fontFamily=Gloria Hallelujah;fontSource=https%3A%2F%2Ffonts.googleapis.com%2Fcss%3Ffamily%3DGloria%2BHallelujah;fontSize=14;fontColor=#232F3E;fontStyle=1;labelBackgroundColor=none;endArrow=classic;flowAnimation=0;" parent="1" source="UUSq_2UDcAGou4G-HE2J-109" target="UUSq_2UDcAGou4G-HE2J-33" edge="1">
          <mxGeometry relative="1" as="geometry" />
        </mxCell>
        <mxCell id="UUSq_2UDcAGou4G-HE2J-109" value="Data Security" style="text;html=1;align=center;verticalAlign=middle;whiteSpace=wrap;rounded=0;fontFamily=Gloria Hallelujah;fontSource=https%3A%2F%2Ffonts.googleapis.com%2Fcss%3Ffamily%3DGloria%2BHallelujah;fontSize=14;fontColor=#232F3E;fontStyle=1;labelBackgroundColor=none;" parent="1" vertex="1">
          <mxGeometry x="1258" y="410" width="62" height="30" as="geometry" />
        </mxCell>
        <mxCell id="UUSq_2UDcAGou4G-HE2J-111" value="" style="group;fontStyle=1;labelBackgroundColor=none;" parent="1" vertex="1" connectable="0">
          <mxGeometry x="1310" y="480" width="30" height="30.5" as="geometry" />
        </mxCell>
        <mxCell id="UUSq_2UDcAGou4G-HE2J-112" value="" style="rounded=0;whiteSpace=wrap;html=1;dashed=0;strokeColor=#000000;align=center;verticalAlign=middle;fontFamily=Gloria Hallelujah;fontSource=https%3A%2F%2Ffonts.googleapis.com%2Fcss%3Ffamily%3DGloria%2BHallelujah;fontSize=14;fontColor=#232F3E;fontStyle=1;labelBackgroundColor=none;fillColor=#000000;" parent="UUSq_2UDcAGou4G-HE2J-111" vertex="1">
          <mxGeometry width="30" height="29.737499999999997" as="geometry" />
        </mxCell>
        <mxCell id="UUSq_2UDcAGou4G-HE2J-113" value="" style="shape=image;imageAspect=0;aspect=fixed;verticalLabelPosition=bottom;verticalAlign=top;rounded=1;dashed=0;sketch=1;jiggle=2;curveFitting=1;strokeColor=#000000;align=center;fontFamily=Gloria Hallelujah;fontSource=https%3A%2F%2Ffonts.googleapis.com%2Fcss%3Ffamily%3DGloria%2BHallelujah;fontSize=14;fontColor=#232F3E;fontStyle=1;labelBackgroundColor=none;fillColor=none;image=https://images.crunchbase.com/image/upload/c_pad,f_auto,q_auto:eco,dpr_1/rfuwf3yqq2cermkmrej6;" parent="UUSq_2UDcAGou4G-HE2J-111" vertex="1">
          <mxGeometry x="3.4800000000000004" width="23.025" height="30" as="geometry" />
        </mxCell>
        <mxCell id="UUSq_2UDcAGou4G-HE2J-114" value="Code Pipeline" style="sketch=0;points=[[0,0,0],[0.25,0,0],[0.5,0,0],[0.75,0,0],[1,0,0],[0,1,0],[0.25,1,0],[0.5,1,0],[0.75,1,0],[1,1,0],[0,0.25,0],[0,0.5,0],[0,0.75,0],[1,0.25,0],[1,0.5,0],[1,0.75,0]];outlineConnect=0;fontColor=#232F3E;fillColor=#C925D1;strokeColor=#ffffff;dashed=0;verticalLabelPosition=bottom;verticalAlign=top;align=center;html=1;fontSize=14;fontStyle=1;aspect=fixed;shape=mxgraph.aws4.resourceIcon;resIcon=mxgraph.aws4.codepipeline;rounded=1;jiggle=2;curveFitting=1;fontFamily=Gloria Hallelujah;fontSource=https%3A%2F%2Ffonts.googleapis.com%2Fcss%3Ffamily%3DGloria%2BHallelujah;labelBackgroundColor=none;" parent="1" vertex="1">
          <mxGeometry x="1051" y="280" width="78" height="78" as="geometry" />
        </mxCell>
        <mxCell id="UUSq_2UDcAGou4G-HE2J-116" value="" style="group;fontStyle=1;labelBackgroundColor=none;" parent="1" vertex="1" connectable="0">
          <mxGeometry x="1110" y="260" width="30" height="30.5" as="geometry" />
        </mxCell>
        <mxCell id="UUSq_2UDcAGou4G-HE2J-117" value="" style="rounded=0;whiteSpace=wrap;html=1;dashed=0;strokeColor=#000000;align=center;verticalAlign=middle;fontFamily=Gloria Hallelujah;fontSource=https%3A%2F%2Ffonts.googleapis.com%2Fcss%3Ffamily%3DGloria%2BHallelujah;fontSize=14;fontColor=#232F3E;fontStyle=1;labelBackgroundColor=none;fillColor=#000000;" parent="UUSq_2UDcAGou4G-HE2J-116" vertex="1">
          <mxGeometry width="30" height="29.737499999999997" as="geometry" />
        </mxCell>
        <mxCell id="UUSq_2UDcAGou4G-HE2J-118" value="" style="shape=image;imageAspect=0;aspect=fixed;verticalLabelPosition=bottom;verticalAlign=top;rounded=1;dashed=0;sketch=1;jiggle=2;curveFitting=1;strokeColor=#000000;align=center;fontFamily=Gloria Hallelujah;fontSource=https%3A%2F%2Ffonts.googleapis.com%2Fcss%3Ffamily%3DGloria%2BHallelujah;fontSize=14;fontColor=#232F3E;fontStyle=1;labelBackgroundColor=none;fillColor=none;image=https://images.crunchbase.com/image/upload/c_pad,f_auto,q_auto:eco,dpr_1/rfuwf3yqq2cermkmrej6;" parent="UUSq_2UDcAGou4G-HE2J-116" vertex="1">
          <mxGeometry x="3.4800000000000004" width="23.025" height="30" as="geometry" />
        </mxCell>
        <mxCell id="UUSq_2UDcAGou4G-HE2J-121" style="edgeStyle=orthogonalEdgeStyle;curved=1;rounded=0;sketch=1;hachureGap=4;jiggle=2;curveFitting=1;orthogonalLoop=1;jettySize=auto;html=1;exitX=0.5;exitY=1;exitDx=0;exitDy=0;entryX=1;entryY=0.75;entryDx=0;entryDy=0;strokeColor=#000000;strokeWidth=1;align=center;verticalAlign=middle;fontFamily=Gloria Hallelujah;fontSource=https%3A%2F%2Ffonts.googleapis.com%2Fcss%3Ffamily%3DGloria%2BHallelujah;fontSize=14;fontColor=#232F3E;fontStyle=1;labelBackgroundColor=none;endArrow=classic;flowAnimation=0;entryPerimeter=0;" parent="1" source="UUSq_2UDcAGou4G-HE2J-120" target="UUSq_2UDcAGou4G-HE2J-114" edge="1">
          <mxGeometry relative="1" as="geometry" />
        </mxCell>
        <mxCell id="UUSq_2UDcAGou4G-HE2J-120" value="Code&lt;div&gt;Security&lt;/div&gt;" style="text;html=1;align=center;verticalAlign=middle;whiteSpace=wrap;rounded=0;fontFamily=Gloria Hallelujah;fontSource=https%3A%2F%2Ffonts.googleapis.com%2Fcss%3Ffamily%3DGloria%2BHallelujah;fontSize=14;fontColor=#232F3E;fontStyle=1;labelBackgroundColor=none;" parent="1" vertex="1">
          <mxGeometry x="1180" y="220" width="62" height="30" as="geometry" />
        </mxCell>
        <mxCell id="UUSq_2UDcAGou4G-HE2J-122" value="CI/CD" style="edgeStyle=orthogonalEdgeStyle;curved=1;rounded=0;hachureGap=4;orthogonalLoop=1;jettySize=auto;html=1;exitX=0;exitY=0.75;exitDx=0;exitDy=0;exitPerimeter=0;entryX=0.75;entryY=0;entryDx=0;entryDy=0;entryPerimeter=0;strokeColor=#FF00FF;strokeWidth=2;align=center;verticalAlign=middle;fontFamily=Gloria Hallelujah;fontSource=https%3A%2F%2Ffonts.googleapis.com%2Fcss%3Ffamily%3DGloria%2BHallelujah;fontSize=14;fontColor=#232F3E;fontStyle=1;labelBackgroundColor=none;endArrow=classic;flowAnimation=1;" parent="1" source="UUSq_2UDcAGou4G-HE2J-114" target="UUSq_2UDcAGou4G-HE2J-18" edge="1">
          <mxGeometry x="0.1405" y="21" relative="1" as="geometry">
            <mxPoint y="1" as="offset" />
          </mxGeometry>
        </mxCell>
        <mxCell id="UUSq_2UDcAGou4G-HE2J-124" style="edgeStyle=orthogonalEdgeStyle;curved=1;rounded=0;sketch=1;hachureGap=4;jiggle=2;curveFitting=1;orthogonalLoop=1;jettySize=auto;html=1;strokeColor=#000000;strokeWidth=1;align=center;verticalAlign=middle;fontFamily=Gloria Hallelujah;fontSource=https%3A%2F%2Ffonts.googleapis.com%2Fcss%3Ffamily%3DGloria%2BHallelujah;fontSize=14;fontColor=#232F3E;fontStyle=1;labelBackgroundColor=none;endArrow=classic;flowAnimation=0;" parent="1" source="UUSq_2UDcAGou4G-HE2J-123" edge="1">
          <mxGeometry relative="1" as="geometry">
            <mxPoint x="-280" y="820" as="targetPoint" />
          </mxGeometry>
        </mxCell>
        <mxCell id="UUSq_2UDcAGou4G-HE2J-123" value="Agent Base CWPP Protection" style="text;html=1;align=center;verticalAlign=middle;whiteSpace=wrap;rounded=0;fontFamily=Gloria Hallelujah;fontSource=https%3A%2F%2Ffonts.googleapis.com%2Fcss%3Ffamily%3DGloria%2BHallelujah;fontSize=14;fontColor=#232F3E;fontStyle=1;labelBackgroundColor=none;" parent="1" vertex="1">
          <mxGeometry x="-240" y="878" width="75" height="30" as="geometry" />
        </mxCell>
        <mxCell id="u5a6upmUQcXs81g3mwhG-1" value="GCP" style="ellipse;shape=cloud;whiteSpace=wrap;html=1;sketch=1;curveFitting=1;jiggle=2;fontSize=16;fontFamily=Gloria Hallelujah;fontSource=https%3A%2F%2Ffonts.googleapis.com%2Fcss%3Ffamily%3DGloria%2BHallelujah;fontStyle=1" parent="1" vertex="1">
          <mxGeometry x="170" y="-20" width="120" height="80" as="geometry" />
        </mxCell>
        <mxCell id="u5a6upmUQcXs81g3mwhG-2" value="Azure" style="ellipse;shape=cloud;whiteSpace=wrap;html=1;sketch=1;curveFitting=1;jiggle=2;fontSize=16;fontFamily=Gloria Hallelujah;fontSource=https%3A%2F%2Ffonts.googleapis.com%2Fcss%3Ffamily%3DGloria%2BHallelujah;fontStyle=1" parent="1" vertex="1">
          <mxGeometry x="230" y="10" width="130" height="86.67" as="geometry" />
        </mxCell>
        <mxCell id="u5a6upmUQcXs81g3mwhG-3" value="AliCloud" style="ellipse;shape=cloud;whiteSpace=wrap;html=1;sketch=1;curveFitting=1;jiggle=2;fontSize=16;fontFamily=Gloria Hallelujah;fontSource=https%3A%2F%2Ffonts.googleapis.com%2Fcss%3Ffamily%3DGloria%2BHallelujah;fontStyle=1" parent="1" vertex="1">
          <mxGeometry x="260" y="-45" width="120" height="80" as="geometry" />
        </mxCell>
        <mxCell id="u5a6upmUQcXs81g3mwhG-4" value="Oracle&lt;div&gt;Cloud&lt;/div&gt;" style="ellipse;shape=cloud;whiteSpace=wrap;html=1;sketch=1;curveFitting=1;jiggle=2;fontSize=16;fontFamily=Gloria Hallelujah;fontSource=https%3A%2F%2Ffonts.googleapis.com%2Fcss%3Ffamily%3DGloria%2BHallelujah;fontStyle=1" parent="1" vertex="1">
          <mxGeometry x="326.51" y="18" width="138" height="92" as="geometry" />
        </mxCell>
        <mxCell id="u5a6upmUQcXs81g3mwhG-5" value="IBM&lt;div&gt;Cloud&lt;/div&gt;" style="ellipse;shape=cloud;whiteSpace=wrap;html=1;sketch=1;curveFitting=1;jiggle=2;fontSize=16;fontFamily=Gloria Hallelujah;fontSource=https%3A%2F%2Ffonts.googleapis.com%2Fcss%3Ffamily%3DGloria%2BHallelujah;fontStyle=1" parent="1" vertex="1">
          <mxGeometry x="358" y="-45" width="135" height="90" as="geometry" />
        </mxCell>
        <mxCell id="u5a6upmUQcXs81g3mwhG-6" value="SnowFlake" style="ellipse;shape=cloud;whiteSpace=wrap;html=1;sketch=1;curveFitting=1;jiggle=2;fontSize=16;fontFamily=Gloria Hallelujah;fontSource=https%3A%2F%2Ffonts.googleapis.com%2Fcss%3Ffamily%3DGloria%2BHallelujah;fontStyle=1" parent="1" vertex="1">
          <mxGeometry x="440" y="10" width="120" height="80" as="geometry" />
        </mxCell>
        <mxCell id="u5a6upmUQcXs81g3mwhG-7" value="" style="edgeStyle=orthogonalEdgeStyle;curved=1;rounded=0;hachureGap=4;orthogonalLoop=1;jettySize=auto;html=1;exitX=0.96;exitY=0.7;exitDx=0;exitDy=0;exitPerimeter=0;entryX=0.31;entryY=0.8;entryDx=0;entryDy=0;strokeColor=#808080;strokeWidth=2;align=center;verticalAlign=middle;fontFamily=Gloria Hallelujah;fontSource=https%3A%2F%2Ffonts.googleapis.com%2Fcss%3Ffamily%3DGloria%2BHallelujah;fontSize=14;fontColor=#232F3E;fontStyle=1;labelBackgroundColor=none;endArrow=classic;flowAnimation=1;entryPerimeter=0;" parent="1" source="UUSq_2UDcAGou4G-HE2J-66" target="u5a6upmUQcXs81g3mwhG-1" edge="1">
          <mxGeometry relative="1" as="geometry">
            <Array as="points">
              <mxPoint x="60" y="578" />
              <mxPoint x="60" y="44" />
            </Array>
            <mxPoint x="-294" y="588" as="sourcePoint" />
            <mxPoint x="170" y="221" as="targetPoint" />
          </mxGeometry>
        </mxCell>
        <mxCell id="UUSq_2UDcAGou4G-HE2J-68" value="API Integration" style="edgeStyle=orthogonalEdgeStyle;curved=1;rounded=0;hachureGap=4;orthogonalLoop=1;jettySize=auto;html=1;exitX=0.96;exitY=0.7;exitDx=0;exitDy=0;exitPerimeter=0;entryX=0;entryY=0.5;entryDx=0;entryDy=0;strokeColor=#808080;strokeWidth=2;align=center;verticalAlign=middle;fontFamily=Gloria Hallelujah;fontSource=https%3A%2F%2Ffonts.googleapis.com%2Fcss%3Ffamily%3DGloria%2BHallelujah;fontSize=14;fontColor=#232F3E;fontStyle=1;labelBackgroundColor=default;endArrow=classic;flowAnimation=1;" parent="1" source="UUSq_2UDcAGou4G-HE2J-66" target="UUSq_2UDcAGou4G-HE2J-2" edge="1">
          <mxGeometry x="0.135" y="70" relative="1" as="geometry">
            <Array as="points">
              <mxPoint x="80" y="578" />
              <mxPoint x="80" y="210" />
            </Array>
            <mxPoint as="offset" />
          </mxGeometry>
        </mxCell>
      </root>
    </mxGraphModel>
  </diagram>
  <diagram name="Cloud Native" id="pESJzkORSTKOJdAc0Fak">
    <mxGraphModel dx="4154" dy="1214" grid="0" gridSize="10" guides="1" tooltips="1" connect="1" arrows="1" fold="1" page="0" pageScale="1" pageWidth="850" pageHeight="1100" math="0" shadow="0">
      <root>
        <mxCell id="bHU1ZNU5g2B9R8OCuO9E-0" />
        <mxCell id="bHU1ZNU5g2B9R8OCuO9E-1" parent="bHU1ZNU5g2B9R8OCuO9E-0" />
        <mxCell id="bHU1ZNU5g2B9R8OCuO9E-2" value="&lt;span style=&quot;color: rgb(35, 47, 62); font-family: &amp;quot;Gloria Hallelujah&amp;quot;; font-size: 16px; font-style: normal; font-variant-ligatures: normal; font-variant-caps: normal; letter-spacing: normal; orphans: 2; text-align: center; text-indent: 0px; text-transform: none; widows: 2; word-spacing: 0px; -webkit-text-stroke-width: 0px; white-space: nowrap; text-decoration-thickness: initial; text-decoration-style: initial; text-decoration-color: initial; float: none; display: inline !important;&quot;&gt;Cloud Native Application&lt;/span&gt;&lt;div style=&quot;forced-color-adjust: none; color: rgb(35, 47, 62); font-family: &amp;quot;Gloria Hallelujah&amp;quot;; font-size: 16px; font-style: normal; font-variant-ligatures: normal; font-variant-caps: normal; letter-spacing: normal; orphans: 2; text-align: center; text-indent: 0px; text-transform: none; widows: 2; word-spacing: 0px; -webkit-text-stroke-width: 0px; white-space: nowrap; text-decoration-thickness: initial; text-decoration-style: initial; text-decoration-color: initial;&quot;&gt;Protection platform&lt;/div&gt;&lt;div style=&quot;forced-color-adjust: none; color: rgb(35, 47, 62); font-family: &amp;quot;Gloria Hallelujah&amp;quot;; font-size: 16px; font-style: normal; font-variant-ligatures: normal; font-variant-caps: normal; letter-spacing: normal; orphans: 2; text-align: center; text-indent: 0px; text-transform: none; widows: 2; word-spacing: 0px; -webkit-text-stroke-width: 0px; white-space: nowrap; text-decoration-thickness: initial; text-decoration-style: initial; text-decoration-color: initial;&quot;&gt;(CNAPP)&lt;/div&gt;" style="shape=trapezoid;perimeter=trapezoidPerimeter;whiteSpace=wrap;html=1;fixedSize=1;rounded=0;dashed=0;strokeColor=none;align=center;verticalAlign=middle;fontFamily=Gloria Hallelujah;fontSource=https%3A%2F%2Ffonts.googleapis.com%2Fcss%3Ffamily%3DGloria%2BHallelujah;fontSize=16;fontStyle=1;labelBackgroundColor=none;fillColor=#FFFFFF;flipV=1;gradientColor=#7ea6e0;size=200;opacity=50;" vertex="1" parent="bHU1ZNU5g2B9R8OCuO9E-1">
          <mxGeometry x="-720" y="670" width="640" height="100" as="geometry" />
        </mxCell>
        <mxCell id="bHU1ZNU5g2B9R8OCuO9E-3" value="AWS - Customer Owned Cloud Accounts" style="rounded=0;whiteSpace=wrap;html=1;sketch=1;hachureGap=4;jiggle=2;curveFitting=1;fontFamily=Architects Daughter;fontSource=https%3A%2F%2Ffonts.googleapis.com%2Fcss%3Ffamily%3DArchitects%2BDaughter;verticalAlign=bottom;fontSize=14;fontStyle=1;labelBackgroundColor=none;" vertex="1" parent="bHU1ZNU5g2B9R8OCuO9E-1">
          <mxGeometry x="160" y="190" width="1300" height="1120" as="geometry" />
        </mxCell>
        <mxCell id="bHU1ZNU5g2B9R8OCuO9E-4" value="" style="shape=image;verticalLabelPosition=bottom;labelBackgroundColor=none;verticalAlign=top;aspect=fixed;imageAspect=0;image=https://zeevector.com/wp-content/uploads/Aws-Logo-PNG-White.png;fontStyle=1" vertex="1" parent="bHU1ZNU5g2B9R8OCuO9E-1">
          <mxGeometry x="160" y="190" width="65.21" height="41" as="geometry" />
        </mxCell>
        <mxCell id="bHU1ZNU5g2B9R8OCuO9E-5" value="IAM" style="sketch=0;points=[[0,0,0],[0.25,0,0],[0.5,0,0],[0.75,0,0],[1,0,0],[0,1,0],[0.25,1,0],[0.5,1,0],[0.75,1,0],[1,1,0],[0,0.25,0],[0,0.5,0],[0,0.75,0],[1,0.25,0],[1,0.5,0],[1,0.75,0]];outlineConnect=0;fontColor=#232F3E;fillColor=#DD344C;strokeColor=#ffffff;dashed=0;verticalLabelPosition=bottom;verticalAlign=top;align=center;html=1;fontSize=14;fontStyle=1;aspect=fixed;shape=mxgraph.aws4.resourceIcon;resIcon=mxgraph.aws4.identity_and_access_management;hachureGap=4;jiggle=2;curveFitting=1;fontFamily=Gloria Hallelujah;fontSource=https%3A%2F%2Ffonts.googleapis.com%2Fcss%3Ffamily%3DGloria%2BHallelujah;labelBackgroundColor=none;" vertex="1" parent="bHU1ZNU5g2B9R8OCuO9E-1">
          <mxGeometry x="240" y="280" width="78" height="78" as="geometry" />
        </mxCell>
        <mxCell id="bHU1ZNU5g2B9R8OCuO9E-6" value="Security VPC" style="points=[[0,0],[0.25,0],[0.5,0],[0.75,0],[1,0],[1,0.25],[1,0.5],[1,0.75],[1,1],[0.75,1],[0.5,1],[0.25,1],[0,1],[0,0.75],[0,0.5],[0,0.25]];outlineConnect=0;gradientColor=none;html=1;whiteSpace=wrap;fontSize=14;fontStyle=1;container=1;pointerEvents=0;collapsible=0;recursiveResize=0;shape=mxgraph.aws4.group;grIcon=mxgraph.aws4.group_vpc2;strokeColor=#8C4FFF;fillColor=none;verticalAlign=top;align=left;spacingLeft=30;fontColor=#AAB7B8;dashed=0;sketch=0;hachureGap=4;jiggle=2;curveFitting=1;fontFamily=Architects Daughter;fontSource=https%3A%2F%2Ffonts.googleapis.com%2Fcss%3Ffamily%3DArchitects%2BDaughter;labelBackgroundColor=none;" vertex="1" parent="bHU1ZNU5g2B9R8OCuO9E-1">
          <mxGeometry x="240" y="485" width="220" height="350" as="geometry" />
        </mxCell>
        <mxCell id="bHU1ZNU5g2B9R8OCuO9E-7" value="Transit Gateway" style="sketch=0;points=[[0,0,0],[0.25,0,0],[0.5,0,0],[0.75,0,0],[1,0,0],[0,1,0],[0.25,1,0],[0.5,1,0],[0.75,1,0],[1,1,0],[0,0.25,0],[0,0.5,0],[0,0.75,0],[1,0.25,0],[1,0.5,0],[1,0.75,0]];outlineConnect=0;fontColor=#232F3E;fillColor=#8C4FFF;strokeColor=#ffffff;dashed=0;verticalLabelPosition=bottom;verticalAlign=top;align=center;html=1;fontSize=14;fontStyle=1;aspect=fixed;shape=mxgraph.aws4.resourceIcon;resIcon=mxgraph.aws4.transit_gateway;hachureGap=4;jiggle=2;curveFitting=1;fontFamily=Gloria Hallelujah;fontSource=https%3A%2F%2Ffonts.googleapis.com%2Fcss%3Ffamily%3DGloria%2BHallelujah;labelBackgroundColor=none;" vertex="1" parent="bHU1ZNU5g2B9R8OCuO9E-1">
          <mxGeometry x="520" y="621" width="78" height="78" as="geometry" />
        </mxCell>
        <mxCell id="bHU1ZNU5g2B9R8OCuO9E-8" style="edgeStyle=orthogonalEdgeStyle;rounded=0;hachureGap=4;orthogonalLoop=1;jettySize=auto;html=1;exitX=1;exitY=0.5;exitDx=0;exitDy=0;entryX=0;entryY=0.5;entryDx=0;entryDy=0;entryPerimeter=0;fontFamily=Architects Daughter;fontSource=https%3A%2F%2Ffonts.googleapis.com%2Fcss%3Ffamily%3DArchitects%2BDaughter;fontSize=15;fontColor=#232F3E;fontStyle=1;curved=1;flowAnimation=1;strokeWidth=2;strokeColor=#7F00FF;labelBackgroundColor=none;" edge="1" parent="bHU1ZNU5g2B9R8OCuO9E-1" source="bHU1ZNU5g2B9R8OCuO9E-6" target="bHU1ZNU5g2B9R8OCuO9E-7">
          <mxGeometry relative="1" as="geometry" />
        </mxCell>
        <mxCell id="bHU1ZNU5g2B9R8OCuO9E-10" style="edgeStyle=orthogonalEdgeStyle;curved=1;rounded=0;hachureGap=4;orthogonalLoop=1;jettySize=auto;html=1;strokeColor=#7F00FF;strokeWidth=2;align=center;verticalAlign=middle;fontFamily=Architects Daughter;fontSource=https%3A%2F%2Ffonts.googleapis.com%2Fcss%3Ffamily%3DArchitects%2BDaughter;fontSize=15;fontColor=#232F3E;fontStyle=1;labelBackgroundColor=none;endArrow=classic;flowAnimation=1;entryX=1;entryY=0.25;entryDx=0;entryDy=0;entryPerimeter=0;" edge="1" parent="bHU1ZNU5g2B9R8OCuO9E-1" source="bHU1ZNU5g2B9R8OCuO9E-11" target="bHU1ZNU5g2B9R8OCuO9E-7">
          <mxGeometry relative="1" as="geometry" />
        </mxCell>
        <mxCell id="bHU1ZNU5g2B9R8OCuO9E-11" value="Application VPC 01" style="sketch=0;outlineConnect=0;gradientColor=none;html=1;whiteSpace=wrap;fontSize=14;fontStyle=1;shape=mxgraph.aws4.group;grIcon=mxgraph.aws4.group_vpc;strokeColor=#879196;fillColor=none;verticalAlign=top;align=left;spacingLeft=30;fontColor=#879196;dashed=0;hachureGap=4;jiggle=2;curveFitting=1;fontFamily=Architects Daughter;fontSource=https%3A%2F%2Ffonts.googleapis.com%2Fcss%3Ffamily%3DArchitects%2BDaughter;labelBackgroundColor=none;" vertex="1" parent="bHU1ZNU5g2B9R8OCuO9E-1">
          <mxGeometry x="700" y="420" width="500" height="230" as="geometry" />
        </mxCell>
        <mxCell id="bHU1ZNU5g2B9R8OCuO9E-12" style="edgeStyle=orthogonalEdgeStyle;curved=1;rounded=0;hachureGap=4;orthogonalLoop=1;jettySize=auto;html=1;entryX=1;entryY=0.75;entryDx=0;entryDy=0;entryPerimeter=0;strokeColor=#7F00FF;strokeWidth=2;align=center;verticalAlign=middle;fontFamily=Architects Daughter;fontSource=https%3A%2F%2Ffonts.googleapis.com%2Fcss%3Ffamily%3DArchitects%2BDaughter;fontSize=15;fontColor=#232F3E;fontStyle=1;labelBackgroundColor=none;endArrow=classic;flowAnimation=1;" edge="1" parent="bHU1ZNU5g2B9R8OCuO9E-1" source="bHU1ZNU5g2B9R8OCuO9E-19" target="bHU1ZNU5g2B9R8OCuO9E-7">
          <mxGeometry relative="1" as="geometry">
            <mxPoint x="770" y="795.0000000000002" as="sourcePoint" />
          </mxGeometry>
        </mxCell>
        <mxCell id="bHU1ZNU5g2B9R8OCuO9E-13" value="NGFW for Cloud" style="shape=image;verticalLabelPosition=bottom;labelBackgroundColor=none;verticalAlign=top;aspect=fixed;imageAspect=0;image=https://www.paloaltonetworks.com/content/dam/pan/en_US/includes/igw/cloud-ngfw/assets/images/overview/circle-logo-1.png;fontSize=14;fontFamily=Gloria Hallelujah;fontSource=https%3A%2F%2Ffonts.googleapis.com%2Fcss%3Ffamily%3DGloria%2BHallelujah;fontStyle=1" vertex="1" parent="bHU1ZNU5g2B9R8OCuO9E-1">
          <mxGeometry x="294.77" y="870" width="110.47" height="110" as="geometry" />
        </mxCell>
        <mxCell id="bHU1ZNU5g2B9R8OCuO9E-14" value="Private subnet" style="points=[[0,0],[0.25,0],[0.5,0],[0.75,0],[1,0],[1,0.25],[1,0.5],[1,0.75],[1,1],[0.75,1],[0.5,1],[0.25,1],[0,1],[0,0.75],[0,0.5],[0,0.25]];outlineConnect=0;gradientColor=none;html=1;whiteSpace=wrap;fontSize=14;fontStyle=1;container=1;pointerEvents=0;collapsible=0;recursiveResize=0;shape=mxgraph.aws4.group;grIcon=mxgraph.aws4.group_security_group;grStroke=0;strokeColor=#00A4A6;fillColor=#E6F6F7;verticalAlign=top;align=left;spacingLeft=30;fontColor=#147EBA;dashed=0;sketch=0;fontFamily=Gloria Hallelujah;fontSource=https%3A%2F%2Ffonts.googleapis.com%2Fcss%3Ffamily%3DGloria%2BHallelujah;labelBackgroundColor=none;" vertex="1" parent="bHU1ZNU5g2B9R8OCuO9E-1">
          <mxGeometry x="720" y="460" width="460" height="170" as="geometry" />
        </mxCell>
        <mxCell id="bHU1ZNU5g2B9R8OCuO9E-15" value="EC2" style="sketch=0;points=[[0,0,0],[0.25,0,0],[0.5,0,0],[0.75,0,0],[1,0,0],[0,1,0],[0.25,1,0],[0.5,1,0],[0.75,1,0],[1,1,0],[0,0.25,0],[0,0.5,0],[0,0.75,0],[1,0.25,0],[1,0.5,0],[1,0.75,0]];outlineConnect=0;fontColor=#232F3E;fillColor=#ED7100;strokeColor=#ffffff;dashed=0;verticalLabelPosition=bottom;verticalAlign=top;align=center;html=1;fontSize=14;fontStyle=1;aspect=fixed;shape=mxgraph.aws4.resourceIcon;resIcon=mxgraph.aws4.ec2;fontFamily=Gloria Hallelujah;fontSource=https%3A%2F%2Ffonts.googleapis.com%2Fcss%3Ffamily%3DGloria%2BHallelujah;labelBackgroundColor=none;" vertex="1" parent="bHU1ZNU5g2B9R8OCuO9E-14">
          <mxGeometry x="40" y="46" width="78" height="78" as="geometry" />
        </mxCell>
        <mxCell id="bHU1ZNU5g2B9R8OCuO9E-16" style="edgeStyle=orthogonalEdgeStyle;curved=1;rounded=0;hachureGap=4;orthogonalLoop=1;jettySize=auto;html=1;exitX=1;exitY=0.5;exitDx=0;exitDy=0;exitPerimeter=0;strokeColor=#7F00FF;strokeWidth=2;align=center;verticalAlign=middle;fontFamily=Gloria Hallelujah;fontSource=https%3A%2F%2Ffonts.googleapis.com%2Fcss%3Ffamily%3DGloria%2BHallelujah;fontSize=14;fontColor=#232F3E;fontStyle=1;labelBackgroundColor=none;endArrow=classic;flowAnimation=1;" edge="1" parent="bHU1ZNU5g2B9R8OCuO9E-14" source="bHU1ZNU5g2B9R8OCuO9E-17" target="bHU1ZNU5g2B9R8OCuO9E-18">
          <mxGeometry relative="1" as="geometry" />
        </mxCell>
        <mxCell id="bHU1ZNU5g2B9R8OCuO9E-17" value="EC2&lt;br&gt;(EKS Node)" style="sketch=0;points=[[0,0,0],[0.25,0,0],[0.5,0,0],[0.75,0,0],[1,0,0],[0,1,0],[0.25,1,0],[0.5,1,0],[0.75,1,0],[1,1,0],[0,0.25,0],[0,0.5,0],[0,0.75,0],[1,0.25,0],[1,0.5,0],[1,0.75,0]];outlineConnect=0;fontColor=#232F3E;fillColor=#ED7100;strokeColor=#ffffff;dashed=0;verticalLabelPosition=bottom;verticalAlign=top;align=center;html=1;fontSize=14;fontStyle=1;aspect=fixed;shape=mxgraph.aws4.resourceIcon;resIcon=mxgraph.aws4.ec2;fontFamily=Gloria Hallelujah;fontSource=https%3A%2F%2Ffonts.googleapis.com%2Fcss%3Ffamily%3DGloria%2BHallelujah;labelBackgroundColor=none;" vertex="1" parent="bHU1ZNU5g2B9R8OCuO9E-14">
          <mxGeometry x="170" y="46" width="78" height="78" as="geometry" />
        </mxCell>
        <mxCell id="bHU1ZNU5g2B9R8OCuO9E-18" value="Private Endpoint" style="sketch=0;outlineConnect=0;fontColor=#232F3E;gradientColor=none;fillColor=#8C4FFF;strokeColor=none;dashed=0;verticalLabelPosition=bottom;verticalAlign=top;align=center;html=1;fontSize=14;fontStyle=1;aspect=fixed;pointerEvents=1;shape=mxgraph.aws4.endpoints;fontFamily=Gloria Hallelujah;fontSource=https%3A%2F%2Ffonts.googleapis.com%2Fcss%3Ffamily%3DGloria%2BHallelujah;labelBackgroundColor=none;" vertex="1" parent="bHU1ZNU5g2B9R8OCuO9E-14">
          <mxGeometry x="350" y="46" width="78" height="78" as="geometry" />
        </mxCell>
        <mxCell id="bHU1ZNU5g2B9R8OCuO9E-19" value="Application VPC 02" style="sketch=0;outlineConnect=0;gradientColor=none;html=1;whiteSpace=wrap;fontSize=14;fontStyle=1;shape=mxgraph.aws4.group;grIcon=mxgraph.aws4.group_vpc;strokeColor=#879196;fillColor=none;verticalAlign=top;align=left;spacingLeft=30;fontColor=#879196;dashed=0;hachureGap=4;jiggle=2;curveFitting=1;fontFamily=Architects Daughter;fontSource=https%3A%2F%2Ffonts.googleapis.com%2Fcss%3Ffamily%3DArchitects%2BDaughter;labelBackgroundColor=none;" vertex="1" parent="bHU1ZNU5g2B9R8OCuO9E-1">
          <mxGeometry x="700" y="680" width="500" height="230" as="geometry" />
        </mxCell>
        <mxCell id="bHU1ZNU5g2B9R8OCuO9E-20" value="Private subnet" style="points=[[0,0],[0.25,0],[0.5,0],[0.75,0],[1,0],[1,0.25],[1,0.5],[1,0.75],[1,1],[0.75,1],[0.5,1],[0.25,1],[0,1],[0,0.75],[0,0.5],[0,0.25]];outlineConnect=0;gradientColor=none;html=1;whiteSpace=wrap;fontSize=14;fontStyle=1;container=1;pointerEvents=0;collapsible=0;recursiveResize=0;shape=mxgraph.aws4.group;grIcon=mxgraph.aws4.group_security_group;grStroke=0;strokeColor=#00A4A6;fillColor=#E6F6F7;verticalAlign=top;align=left;spacingLeft=30;fontColor=#147EBA;dashed=0;sketch=0;fontFamily=Gloria Hallelujah;fontSource=https%3A%2F%2Ffonts.googleapis.com%2Fcss%3Ffamily%3DGloria%2BHallelujah;labelBackgroundColor=none;" vertex="1" parent="bHU1ZNU5g2B9R8OCuO9E-1">
          <mxGeometry x="720" y="720" width="460" height="170" as="geometry" />
        </mxCell>
        <mxCell id="bHU1ZNU5g2B9R8OCuO9E-21" value="EC2" style="sketch=0;points=[[0,0,0],[0.25,0,0],[0.5,0,0],[0.75,0,0],[1,0,0],[0,1,0],[0.25,1,0],[0.5,1,0],[0.75,1,0],[1,1,0],[0,0.25,0],[0,0.5,0],[0,0.75,0],[1,0.25,0],[1,0.5,0],[1,0.75,0]];outlineConnect=0;fontColor=#232F3E;fillColor=#ED7100;strokeColor=#ffffff;dashed=0;verticalLabelPosition=bottom;verticalAlign=top;align=center;html=1;fontSize=14;fontStyle=1;aspect=fixed;shape=mxgraph.aws4.resourceIcon;resIcon=mxgraph.aws4.ec2;fontFamily=Gloria Hallelujah;fontSource=https%3A%2F%2Ffonts.googleapis.com%2Fcss%3Ffamily%3DGloria%2BHallelujah;labelBackgroundColor=none;" vertex="1" parent="bHU1ZNU5g2B9R8OCuO9E-20">
          <mxGeometry x="40" y="46" width="78" height="78" as="geometry" />
        </mxCell>
        <mxCell id="bHU1ZNU5g2B9R8OCuO9E-22" style="edgeStyle=orthogonalEdgeStyle;curved=1;rounded=0;hachureGap=4;orthogonalLoop=1;jettySize=auto;html=1;exitX=1;exitY=0.5;exitDx=0;exitDy=0;exitPerimeter=0;strokeColor=#7F00FF;strokeWidth=2;align=center;verticalAlign=middle;fontFamily=Gloria Hallelujah;fontSource=https%3A%2F%2Ffonts.googleapis.com%2Fcss%3Ffamily%3DGloria%2BHallelujah;fontSize=14;fontColor=#232F3E;fontStyle=1;labelBackgroundColor=none;endArrow=classic;flowAnimation=1;" edge="1" parent="bHU1ZNU5g2B9R8OCuO9E-20" source="bHU1ZNU5g2B9R8OCuO9E-23" target="bHU1ZNU5g2B9R8OCuO9E-24">
          <mxGeometry relative="1" as="geometry" />
        </mxCell>
        <mxCell id="bHU1ZNU5g2B9R8OCuO9E-23" value="EC2" style="sketch=0;points=[[0,0,0],[0.25,0,0],[0.5,0,0],[0.75,0,0],[1,0,0],[0,1,0],[0.25,1,0],[0.5,1,0],[0.75,1,0],[1,1,0],[0,0.25,0],[0,0.5,0],[0,0.75,0],[1,0.25,0],[1,0.5,0],[1,0.75,0]];outlineConnect=0;fontColor=#232F3E;fillColor=#ED7100;strokeColor=#ffffff;dashed=0;verticalLabelPosition=bottom;verticalAlign=top;align=center;html=1;fontSize=14;fontStyle=1;aspect=fixed;shape=mxgraph.aws4.resourceIcon;resIcon=mxgraph.aws4.ec2;fontFamily=Gloria Hallelujah;fontSource=https%3A%2F%2Ffonts.googleapis.com%2Fcss%3Ffamily%3DGloria%2BHallelujah;labelBackgroundColor=none;" vertex="1" parent="bHU1ZNU5g2B9R8OCuO9E-20">
          <mxGeometry x="170" y="46" width="78" height="78" as="geometry" />
        </mxCell>
        <mxCell id="bHU1ZNU5g2B9R8OCuO9E-24" value="Private Endpoint" style="sketch=0;outlineConnect=0;fontColor=#232F3E;gradientColor=none;fillColor=#8C4FFF;strokeColor=none;dashed=0;verticalLabelPosition=bottom;verticalAlign=top;align=center;html=1;fontSize=14;fontStyle=1;aspect=fixed;pointerEvents=1;shape=mxgraph.aws4.endpoints;fontFamily=Gloria Hallelujah;fontSource=https%3A%2F%2Ffonts.googleapis.com%2Fcss%3Ffamily%3DGloria%2BHallelujah;labelBackgroundColor=none;" vertex="1" parent="bHU1ZNU5g2B9R8OCuO9E-20">
          <mxGeometry x="350" y="46" width="78" height="78" as="geometry" />
        </mxCell>
        <mxCell id="bHU1ZNU5g2B9R8OCuO9E-25" value="" style="group;fontStyle=1;labelBackgroundColor=none;" vertex="1" connectable="0" parent="bHU1ZNU5g2B9R8OCuO9E-20">
          <mxGeometry x="230" y="110" width="30" height="30.5" as="geometry" />
        </mxCell>
        <mxCell id="bHU1ZNU5g2B9R8OCuO9E-26" value="" style="rounded=0;whiteSpace=wrap;html=1;dashed=0;strokeColor=#000000;align=center;verticalAlign=middle;fontFamily=Gloria Hallelujah;fontSource=https%3A%2F%2Ffonts.googleapis.com%2Fcss%3Ffamily%3DGloria%2BHallelujah;fontSize=14;fontColor=#232F3E;fontStyle=1;labelBackgroundColor=none;fillColor=#000000;" vertex="1" parent="bHU1ZNU5g2B9R8OCuO9E-25">
          <mxGeometry width="30" height="29.737499999999997" as="geometry" />
        </mxCell>
        <mxCell id="bHU1ZNU5g2B9R8OCuO9E-27" value="" style="shape=image;imageAspect=0;aspect=fixed;verticalLabelPosition=bottom;verticalAlign=top;rounded=1;dashed=0;sketch=1;jiggle=2;curveFitting=1;strokeColor=#000000;align=center;fontFamily=Gloria Hallelujah;fontSource=https%3A%2F%2Ffonts.googleapis.com%2Fcss%3Ffamily%3DGloria%2BHallelujah;fontSize=14;fontColor=#232F3E;fontStyle=1;labelBackgroundColor=none;fillColor=none;image=https://images.crunchbase.com/image/upload/c_pad,f_auto,q_auto:eco,dpr_1/rfuwf3yqq2cermkmrej6;" vertex="1" parent="bHU1ZNU5g2B9R8OCuO9E-25">
          <mxGeometry x="3.4800000000000004" width="23.025" height="30" as="geometry" />
        </mxCell>
        <mxCell id="bHU1ZNU5g2B9R8OCuO9E-28" value="Firewall Subnet" style="points=[[0,0],[0.25,0],[0.5,0],[0.75,0],[1,0],[1,0.25],[1,0.5],[1,0.75],[1,1],[0.75,1],[0.5,1],[0.25,1],[0,1],[0,0.75],[0,0.5],[0,0.25]];outlineConnect=0;gradientColor=none;html=1;whiteSpace=wrap;fontSize=14;fontStyle=1;container=1;pointerEvents=0;collapsible=0;recursiveResize=0;shape=mxgraph.aws4.group;grIcon=mxgraph.aws4.group_security_group;grStroke=0;strokeColor=#7AA116;fillColor=#F2F6E8;verticalAlign=top;align=left;spacingLeft=30;fontColor=#248814;dashed=0;sketch=0;fontFamily=Gloria Hallelujah;fontSource=https%3A%2F%2Ffonts.googleapis.com%2Fcss%3Ffamily%3DGloria%2BHallelujah;labelBackgroundColor=none;" vertex="1" parent="bHU1ZNU5g2B9R8OCuO9E-1">
          <mxGeometry x="260" y="550" width="180" height="180" as="geometry" />
        </mxCell>
        <mxCell id="bHU1ZNU5g2B9R8OCuO9E-29" value="NGFW Endpoint" style="sketch=0;outlineConnect=0;fontColor=#232F3E;gradientColor=none;fillColor=#DD344C;strokeColor=none;dashed=0;verticalLabelPosition=bottom;verticalAlign=top;align=center;html=1;fontSize=12;fontStyle=1;aspect=fixed;pointerEvents=1;shape=mxgraph.aws4.network_firewall_endpoints;jiggle=2;curveFitting=1;fontFamily=Gloria Hallelujah;fontSource=https://fonts.googleapis.com/css?family=Gloria+Hallelujah;labelBackgroundColor=none;" vertex="1" parent="bHU1ZNU5g2B9R8OCuO9E-28">
          <mxGeometry x="55.50999999999999" y="61" width="69" height="69" as="geometry" />
        </mxCell>
        <mxCell id="bHU1ZNU5g2B9R8OCuO9E-30" style="edgeStyle=orthogonalEdgeStyle;curved=1;rounded=0;hachureGap=4;orthogonalLoop=1;jettySize=auto;html=1;strokeColor=#CC6600;strokeWidth=2;align=center;verticalAlign=middle;fontFamily=Gloria Hallelujah;fontSource=https%3A%2F%2Ffonts.googleapis.com%2Fcss%3Ffamily%3DGloria%2BHallelujah;fontSize=14;fontColor=#232F3E;fontStyle=1;labelBackgroundColor=none;endArrow=classic;flowAnimation=1;startArrow=classic;startFill=1;" edge="1" parent="bHU1ZNU5g2B9R8OCuO9E-1" target="bHU1ZNU5g2B9R8OCuO9E-13">
          <mxGeometry relative="1" as="geometry">
            <mxPoint x="350" y="730" as="sourcePoint" />
            <Array as="points">
              <mxPoint x="350" y="730" />
              <mxPoint x="350" y="730" />
            </Array>
          </mxGeometry>
        </mxCell>
        <mxCell id="bHU1ZNU5g2B9R8OCuO9E-31" value="S3 Buckets" style="sketch=0;points=[[0,0,0],[0.25,0,0],[0.5,0,0],[0.75,0,0],[1,0,0],[0,1,0],[0.25,1,0],[0.5,1,0],[0.75,1,0],[1,1,0],[0,0.25,0],[0,0.5,0],[0,0.75,0],[1,0.25,0],[1,0.5,0],[1,0.75,0]];outlineConnect=0;fontColor=#232F3E;fillColor=#7AA116;strokeColor=#ffffff;dashed=0;verticalLabelPosition=bottom;verticalAlign=top;align=center;html=1;fontSize=14;fontStyle=1;aspect=fixed;shape=mxgraph.aws4.resourceIcon;resIcon=mxgraph.aws4.s3;fontFamily=Gloria Hallelujah;fontSource=https%3A%2F%2Ffonts.googleapis.com%2Fcss%3Ffamily%3DGloria%2BHallelujah;labelBackgroundColor=none;" vertex="1" parent="bHU1ZNU5g2B9R8OCuO9E-1">
          <mxGeometry x="1250" y="506" width="78" height="78" as="geometry" />
        </mxCell>
        <mxCell id="bHU1ZNU5g2B9R8OCuO9E-32" value="Private&lt;div&gt;Link&lt;/div&gt;" style="edgeStyle=orthogonalEdgeStyle;curved=1;rounded=0;hachureGap=4;orthogonalLoop=1;jettySize=auto;html=1;entryX=0;entryY=0.5;entryDx=0;entryDy=0;entryPerimeter=0;strokeColor=#7F00FF;strokeWidth=2;align=center;verticalAlign=middle;fontFamily=Gloria Hallelujah;fontSource=https%3A%2F%2Ffonts.googleapis.com%2Fcss%3Ffamily%3DGloria%2BHallelujah;fontSize=14;fontColor=#232F3E;fontStyle=1;labelBackgroundColor=none;endArrow=classic;flowAnimation=1;" edge="1" parent="bHU1ZNU5g2B9R8OCuO9E-1" source="bHU1ZNU5g2B9R8OCuO9E-18" target="bHU1ZNU5g2B9R8OCuO9E-31">
          <mxGeometry relative="1" as="geometry" />
        </mxCell>
        <mxCell id="bHU1ZNU5g2B9R8OCuO9E-33" value="RDS" style="sketch=0;points=[[0,0,0],[0.25,0,0],[0.5,0,0],[0.75,0,0],[1,0,0],[0,1,0],[0.25,1,0],[0.5,1,0],[0.75,1,0],[1,1,0],[0,0.25,0],[0,0.5,0],[0,0.75,0],[1,0.25,0],[1,0.5,0],[1,0.75,0]];outlineConnect=0;fontColor=#232F3E;fillColor=#C925D1;strokeColor=#ffffff;dashed=0;verticalLabelPosition=bottom;verticalAlign=top;align=center;html=1;fontSize=14;fontStyle=1;aspect=fixed;shape=mxgraph.aws4.resourceIcon;resIcon=mxgraph.aws4.rds;fontFamily=Gloria Hallelujah;fontSource=https%3A%2F%2Ffonts.googleapis.com%2Fcss%3Ffamily%3DGloria%2BHallelujah;labelBackgroundColor=none;" vertex="1" parent="bHU1ZNU5g2B9R8OCuO9E-1">
          <mxGeometry x="1250" y="766" width="78" height="78" as="geometry" />
        </mxCell>
        <mxCell id="bHU1ZNU5g2B9R8OCuO9E-34" style="edgeStyle=orthogonalEdgeStyle;curved=1;rounded=0;hachureGap=4;orthogonalLoop=1;jettySize=auto;html=1;entryX=0;entryY=0.5;entryDx=0;entryDy=0;entryPerimeter=0;strokeColor=#7F00FF;strokeWidth=2;align=center;verticalAlign=middle;fontFamily=Gloria Hallelujah;fontSource=https%3A%2F%2Ffonts.googleapis.com%2Fcss%3Ffamily%3DGloria%2BHallelujah;fontSize=14;fontColor=#232F3E;fontStyle=1;labelBackgroundColor=none;endArrow=classic;flowAnimation=1;" edge="1" parent="bHU1ZNU5g2B9R8OCuO9E-1" source="bHU1ZNU5g2B9R8OCuO9E-24" target="bHU1ZNU5g2B9R8OCuO9E-33">
          <mxGeometry relative="1" as="geometry" />
        </mxCell>
        <mxCell id="bHU1ZNU5g2B9R8OCuO9E-35" value="CloudTrial" style="sketch=0;points=[[0,0,0],[0.25,0,0],[0.5,0,0],[0.75,0,0],[1,0,0],[0,1,0],[0.25,1,0],[0.5,1,0],[0.75,1,0],[1,1,0],[0,0.25,0],[0,0.5,0],[0,0.75,0],[1,0.25,0],[1,0.5,0],[1,0.75,0]];points=[[0,0,0],[0.25,0,0],[0.5,0,0],[0.75,0,0],[1,0,0],[0,1,0],[0.25,1,0],[0.5,1,0],[0.75,1,0],[1,1,0],[0,0.25,0],[0,0.5,0],[0,0.75,0],[1,0.25,0],[1,0.5,0],[1,0.75,0]];outlineConnect=0;fontColor=#232F3E;fillColor=#E7157B;strokeColor=#ffffff;dashed=0;verticalLabelPosition=bottom;verticalAlign=top;align=center;html=1;fontSize=14;fontStyle=1;aspect=fixed;shape=mxgraph.aws4.resourceIcon;resIcon=mxgraph.aws4.cloudtrail;fontFamily=Gloria Hallelujah;fontSource=https%3A%2F%2Ffonts.googleapis.com%2Fcss%3Ffamily%3DGloria%2BHallelujah;labelBackgroundColor=none;" vertex="1" parent="bHU1ZNU5g2B9R8OCuO9E-1">
          <mxGeometry x="370" y="280" width="78" height="78" as="geometry" />
        </mxCell>
        <mxCell id="bHU1ZNU5g2B9R8OCuO9E-36" value="S3 Buckets&lt;div&gt;&lt;br&gt;&lt;/div&gt;" style="sketch=0;points=[[0,0,0],[0.25,0,0],[0.5,0,0],[0.75,0,0],[1,0,0],[0,1,0],[0.25,1,0],[0.5,1,0],[0.75,1,0],[1,1,0],[0,0.25,0],[0,0.5,0],[0,0.75,0],[1,0.25,0],[1,0.5,0],[1,0.75,0]];outlineConnect=0;fontColor=#232F3E;fillColor=#7AA116;strokeColor=#ffffff;dashed=0;verticalLabelPosition=bottom;verticalAlign=top;align=center;html=1;fontSize=14;fontStyle=1;aspect=fixed;shape=mxgraph.aws4.resourceIcon;resIcon=mxgraph.aws4.s3;fontFamily=Gloria Hallelujah;fontSource=https%3A%2F%2Ffonts.googleapis.com%2Fcss%3Ffamily%3DGloria%2BHallelujah;labelBackgroundColor=none;" vertex="1" parent="bHU1ZNU5g2B9R8OCuO9E-1">
          <mxGeometry x="642" y="280" width="78" height="78" as="geometry" />
        </mxCell>
        <mxCell id="bHU1ZNU5g2B9R8OCuO9E-37" value="Runtime Analysis" style="edgeStyle=orthogonalEdgeStyle;curved=1;rounded=0;hachureGap=4;orthogonalLoop=1;jettySize=auto;html=1;entryX=1;entryY=0.5;entryDx=0;entryDy=0;entryPerimeter=0;strokeColor=#FF00FF;strokeWidth=2;align=center;verticalAlign=middle;fontFamily=Gloria Hallelujah;fontSource=https%3A%2F%2Ffonts.googleapis.com%2Fcss%3Ffamily%3DGloria%2BHallelujah;fontSize=14;fontColor=#232F3E;fontStyle=1;labelBackgroundColor=none;endArrow=classic;flowAnimation=0;exitX=0.376;exitY=-0.004;exitDx=0;exitDy=0;exitPerimeter=0;sketch=1;curveFitting=1;jiggle=2;" edge="1" parent="bHU1ZNU5g2B9R8OCuO9E-1" source="bHU1ZNU5g2B9R8OCuO9E-11" target="bHU1ZNU5g2B9R8OCuO9E-36">
          <mxGeometry x="-0.0827" y="21" relative="1" as="geometry">
            <mxPoint as="offset" />
          </mxGeometry>
        </mxCell>
        <mxCell id="bHU1ZNU5g2B9R8OCuO9E-38" value="CloudWatch&lt;div style=&quot;font-size: 14px;&quot;&gt;&lt;br style=&quot;font-size: 14px;&quot;&gt;&lt;/div&gt;" style="sketch=0;points=[[0,0,0],[0.25,0,0],[0.5,0,0],[0.75,0,0],[1,0,0],[0,1,0],[0.25,1,0],[0.5,1,0],[0.75,1,0],[1,1,0],[0,0.25,0],[0,0.5,0],[0,0.75,0],[1,0.25,0],[1,0.5,0],[1,0.75,0]];points=[[0,0,0],[0.25,0,0],[0.5,0,0],[0.75,0,0],[1,0,0],[0,1,0],[0.25,1,0],[0.5,1,0],[0.75,1,0],[1,1,0],[0,0.25,0],[0,0.5,0],[0,0.75,0],[1,0.25,0],[1,0.5,0],[1,0.75,0]];outlineConnect=0;fontColor=#232F3E;fillColor=#E7157B;strokeColor=#ffffff;dashed=0;verticalLabelPosition=bottom;verticalAlign=top;align=center;html=1;fontSize=14;fontStyle=1;aspect=fixed;shape=mxgraph.aws4.resourceIcon;resIcon=mxgraph.aws4.cloudwatch_2;fontFamily=Gloria Hallelujah;fontSource=https%3A%2F%2Ffonts.googleapis.com%2Fcss%3Ffamily%3DGloria%2BHallelujah;labelBackgroundColor=none;" vertex="1" parent="bHU1ZNU5g2B9R8OCuO9E-1">
          <mxGeometry x="520" y="280" width="78" height="78" as="geometry" />
        </mxCell>
        <mxCell id="bHU1ZNU5g2B9R8OCuO9E-39" value="" style="shape=curlyBracket;whiteSpace=wrap;html=1;rounded=1;labelPosition=left;verticalLabelPosition=middle;align=right;verticalAlign=middle;dashed=0;sketch=1;strokeColor=#000000;fontFamily=Gloria Hallelujah;fontSource=https%3A%2F%2Ffonts.googleapis.com%2Fcss%3Ffamily%3DGloria%2BHallelujah;fontSize=14;fontColor=#000000;fontStyle=1;labelBackgroundColor=none;fillColor=#ED7100;rotation=90;curveFitting=1;jiggle=2;" vertex="1" parent="bHU1ZNU5g2B9R8OCuO9E-1">
          <mxGeometry x="615" y="160" width="10" height="200" as="geometry" />
        </mxCell>
        <mxCell id="bHU1ZNU5g2B9R8OCuO9E-40" value="VPC Flow Log" style="text;html=1;align=center;verticalAlign=middle;whiteSpace=wrap;rounded=0;fontFamily=Gloria Hallelujah;fontSource=https%3A%2F%2Ffonts.googleapis.com%2Fcss%3Ffamily%3DGloria%2BHallelujah;fontSize=14;fontColor=#232F3E;fontStyle=1;labelBackgroundColor=none;" vertex="1" parent="bHU1ZNU5g2B9R8OCuO9E-1">
          <mxGeometry x="570" y="220" width="100" height="30" as="geometry" />
        </mxCell>
        <mxCell id="bHU1ZNU5g2B9R8OCuO9E-41" value="OR" style="text;html=1;align=center;verticalAlign=middle;whiteSpace=wrap;rounded=0;fontFamily=Gloria Hallelujah;fontSource=https%3A%2F%2Ffonts.googleapis.com%2Fcss%3Ffamily%3DGloria%2BHallelujah;fontSize=14;fontColor=#232F3E;fontStyle=1;labelBackgroundColor=none;" vertex="1" parent="bHU1ZNU5g2B9R8OCuO9E-1">
          <mxGeometry x="602" y="304" width="40" height="30" as="geometry" />
        </mxCell>
        <mxCell id="3EA29baTlGRzZGvwGKuO-8" value="Alerts" style="edgeStyle=orthogonalEdgeStyle;curved=1;rounded=0;hachureGap=4;orthogonalLoop=1;jettySize=auto;html=1;exitX=0.16;exitY=0.55;exitDx=0;exitDy=0;exitPerimeter=0;entryX=1;entryY=0.5;entryDx=0;entryDy=0;strokeColor=#808080;strokeWidth=2;align=center;verticalAlign=middle;fontFamily=Gloria Hallelujah;fontSource=https%3A%2F%2Ffonts.googleapis.com%2Fcss%3Ffamily%3DGloria%2BHallelujah;fontSize=14;fontColor=#232F3E;fontStyle=1;labelBackgroundColor=default;endArrow=classic;flowAnimation=1;" edge="1" parent="bHU1ZNU5g2B9R8OCuO9E-1" source="bHU1ZNU5g2B9R8OCuO9E-59" target="3EA29baTlGRzZGvwGKuO-6">
          <mxGeometry relative="1" as="geometry" />
        </mxCell>
        <mxCell id="bHU1ZNU5g2B9R8OCuO9E-59" value="Prisma Cloud&lt;br style=&quot;font-size: 18px;&quot;&gt;(SaaS)" style="ellipse;shape=cloud;whiteSpace=wrap;html=1;rounded=1;dashed=0;sketch=1;jiggle=2;curveFitting=1;strokeColor=#000000;align=center;verticalAlign=middle;fontFamily=Gloria Hallelujah;fontSource=https%3A%2F%2Ffonts.googleapis.com%2Fcss%3Ffamily%3DGloria%2BHallelujah;fontSize=18;fontColor=#232F3E;fontStyle=1;labelBackgroundColor=none;fillColor=none;" vertex="1" parent="bHU1ZNU5g2B9R8OCuO9E-1">
          <mxGeometry x="-515" y="760" width="220" height="140" as="geometry" />
        </mxCell>
        <mxCell id="bHU1ZNU5g2B9R8OCuO9E-60" value="" style="shape=image;imageAspect=0;aspect=fixed;verticalLabelPosition=bottom;verticalAlign=top;rounded=1;dashed=0;sketch=1;jiggle=2;curveFitting=1;strokeColor=#000000;align=center;fontFamily=Gloria Hallelujah;fontSource=https%3A%2F%2Ffonts.googleapis.com%2Fcss%3Ffamily%3DGloria%2BHallelujah;fontSize=14;fontColor=#232F3E;fontStyle=1;labelBackgroundColor=none;fillColor=none;image=https://images.crunchbase.com/image/upload/c_pad,f_auto,q_auto:eco,dpr_1/rfuwf3yqq2cermkmrej6;" vertex="1" parent="bHU1ZNU5g2B9R8OCuO9E-1">
          <mxGeometry x="-520" y="740" width="69.06" height="90" as="geometry" />
        </mxCell>
        <mxCell id="bHU1ZNU5g2B9R8OCuO9E-61" value="Vulnerabilities" style="rounded=1;whiteSpace=wrap;html=1;dashed=0;sketch=1;jiggle=2;curveFitting=1;strokeColor=#d79b00;align=center;verticalAlign=middle;fontFamily=Gloria Hallelujah;fontSource=https%3A%2F%2Ffonts.googleapis.com%2Fcss%3Ffamily%3DGloria%2BHallelujah;fontSize=16;fontStyle=1;labelBackgroundColor=none;fillColor=#ffcd28;gradientColor=#ffa500;" vertex="1" parent="bHU1ZNU5g2B9R8OCuO9E-1">
          <mxGeometry x="-575" y="270" width="140" height="60" as="geometry" />
        </mxCell>
        <mxCell id="bHU1ZNU5g2B9R8OCuO9E-62" value="Compliance" style="rounded=1;whiteSpace=wrap;html=1;dashed=0;sketch=1;jiggle=2;curveFitting=1;strokeColor=#d79b00;align=center;verticalAlign=middle;fontFamily=Gloria Hallelujah;fontSource=https%3A%2F%2Ffonts.googleapis.com%2Fcss%3Ffamily%3DGloria%2BHallelujah;fontSize=16;fontStyle=1;labelBackgroundColor=none;fillColor=#ffcd28;gradientColor=#ffa500;" vertex="1" parent="bHU1ZNU5g2B9R8OCuO9E-1">
          <mxGeometry x="-415" y="270" width="140" height="60" as="geometry" />
        </mxCell>
        <mxCell id="bHU1ZNU5g2B9R8OCuO9E-63" value="Runtime" style="rounded=1;whiteSpace=wrap;html=1;dashed=0;sketch=1;jiggle=2;curveFitting=1;strokeColor=#d79b00;align=center;verticalAlign=middle;fontFamily=Gloria Hallelujah;fontSource=https%3A%2F%2Ffonts.googleapis.com%2Fcss%3Ffamily%3DGloria%2BHallelujah;fontSize=16;fontStyle=1;labelBackgroundColor=none;fillColor=#ffcd28;gradientColor=#ffa500;" vertex="1" parent="bHU1ZNU5g2B9R8OCuO9E-1">
          <mxGeometry x="-255" y="270" width="140" height="60" as="geometry" />
        </mxCell>
        <mxCell id="bHU1ZNU5g2B9R8OCuO9E-64" value="Web App&lt;div style=&quot;font-size: 16px;&quot;&gt;API Security&lt;/div&gt;" style="rounded=1;whiteSpace=wrap;html=1;dashed=0;sketch=1;jiggle=2;curveFitting=1;strokeColor=#d79b00;align=center;verticalAlign=middle;fontFamily=Gloria Hallelujah;fontSource=https%3A%2F%2Ffonts.googleapis.com%2Fcss%3Ffamily%3DGloria%2BHallelujah;fontSize=16;fontStyle=1;labelBackgroundColor=none;fillColor=#ffcd28;gradientColor=#ffa500;" vertex="1" parent="bHU1ZNU5g2B9R8OCuO9E-1">
          <mxGeometry x="-95" y="270" width="140" height="60" as="geometry" />
        </mxCell>
        <mxCell id="bHU1ZNU5g2B9R8OCuO9E-65" value="Cloud" style="rounded=1;whiteSpace=wrap;html=1;dashed=0;sketch=1;jiggle=2;curveFitting=1;strokeColor=#d6b656;align=center;verticalAlign=middle;fontFamily=Gloria Hallelujah;fontSource=https%3A%2F%2Ffonts.googleapis.com%2Fcss%3Ffamily%3DGloria%2BHallelujah;fontSize=16;fontStyle=1;labelBackgroundColor=none;fillColor=#fff2cc;gradientColor=#ffd966;" vertex="1" parent="bHU1ZNU5g2B9R8OCuO9E-1">
          <mxGeometry x="-740" y="350" width="140" height="60" as="geometry" />
        </mxCell>
        <mxCell id="bHU1ZNU5g2B9R8OCuO9E-66" value="Cluster / Host" style="rounded=1;whiteSpace=wrap;html=1;dashed=0;sketch=1;jiggle=2;curveFitting=1;strokeColor=#d6b656;align=center;verticalAlign=middle;fontFamily=Gloria Hallelujah;fontSource=https%3A%2F%2Ffonts.googleapis.com%2Fcss%3Ffamily%3DGloria%2BHallelujah;fontSize=16;fontStyle=1;labelBackgroundColor=none;fillColor=#fff2cc;gradientColor=#ffd966;" vertex="1" parent="bHU1ZNU5g2B9R8OCuO9E-1">
          <mxGeometry x="-740" y="430" width="140" height="60" as="geometry" />
        </mxCell>
        <mxCell id="bHU1ZNU5g2B9R8OCuO9E-67" value="Container / Serverless" style="rounded=1;whiteSpace=wrap;html=1;dashed=0;sketch=1;jiggle=2;curveFitting=1;strokeColor=#d6b656;align=center;verticalAlign=middle;fontFamily=Gloria Hallelujah;fontSource=https%3A%2F%2Ffonts.googleapis.com%2Fcss%3Ffamily%3DGloria%2BHallelujah;fontSize=16;fontStyle=1;labelBackgroundColor=none;fillColor=#fff2cc;gradientColor=#ffd966;" vertex="1" parent="bHU1ZNU5g2B9R8OCuO9E-1">
          <mxGeometry x="-740" y="510" width="140" height="60" as="geometry" />
        </mxCell>
        <mxCell id="bHU1ZNU5g2B9R8OCuO9E-68" value="Code" style="rounded=1;whiteSpace=wrap;html=1;dashed=0;sketch=1;jiggle=2;curveFitting=1;strokeColor=#d6b656;align=center;verticalAlign=middle;fontFamily=Gloria Hallelujah;fontSource=https%3A%2F%2Ffonts.googleapis.com%2Fcss%3Ffamily%3DGloria%2BHallelujah;fontSize=16;fontStyle=1;labelBackgroundColor=none;fillColor=#fff2cc;gradientColor=#ffd966;" vertex="1" parent="bHU1ZNU5g2B9R8OCuO9E-1">
          <mxGeometry x="-740" y="595" width="140" height="60" as="geometry" />
        </mxCell>
        <mxCell id="bHU1ZNU5g2B9R8OCuO9E-69" value="&lt;div style=&quot;font-size: 16px;&quot;&gt;CSPM / CIEM / DSPM&lt;br style=&quot;font-size: 16px;&quot;&gt;&lt;/div&gt;" style="rounded=1;whiteSpace=wrap;html=1;dashed=0;sketch=1;jiggle=2;curveFitting=1;strokeColor=#82b366;align=center;verticalAlign=middle;fontFamily=Gloria Hallelujah;fontSource=https%3A%2F%2Ffonts.googleapis.com%2Fcss%3Ffamily%3DGloria%2BHallelujah;fontSize=16;fontStyle=1;labelBackgroundColor=none;fillColor=#d5e8d4;" vertex="1" parent="bHU1ZNU5g2B9R8OCuO9E-1">
          <mxGeometry x="-575" y="350" width="525" height="60" as="geometry" />
        </mxCell>
        <mxCell id="bHU1ZNU5g2B9R8OCuO9E-70" value="CWPP&lt;br style=&quot;font-size: 16px;&quot;&gt;&lt;br style=&quot;font-size: 16px;&quot;&gt;(Cloud Workload Protection Platform)&lt;br style=&quot;font-size: 16px;&quot;&gt;&lt;div style=&quot;font-size: 16px;&quot;&gt;&lt;br style=&quot;font-size: 16px;&quot;&gt;&lt;/div&gt;&lt;div style=&quot;font-size: 16px;&quot;&gt;Supporting Both Agent &amp;amp; Agentless Approach&lt;/div&gt;" style="rounded=1;whiteSpace=wrap;html=1;dashed=0;sketch=1;jiggle=2;curveFitting=1;strokeColor=#82b366;align=center;verticalAlign=middle;fontFamily=Gloria Hallelujah;fontSource=https%3A%2F%2Ffonts.googleapis.com%2Fcss%3Ffamily%3DGloria%2BHallelujah;fontSize=16;fontStyle=1;labelBackgroundColor=none;fillColor=#d5e8d4;" vertex="1" parent="bHU1ZNU5g2B9R8OCuO9E-1">
          <mxGeometry x="-575" y="430" width="615" height="140" as="geometry" />
        </mxCell>
        <mxCell id="bHU1ZNU5g2B9R8OCuO9E-71" value="&lt;div style=&quot;font-size: 16px;&quot;&gt;CAS&lt;br style=&quot;font-size: 16px;&quot;&gt;&lt;/div&gt;&lt;div style=&quot;font-size: 16px;&quot;&gt;(Cloud Application Security)&lt;/div&gt;" style="rounded=1;whiteSpace=wrap;html=1;dashed=0;sketch=1;jiggle=2;curveFitting=1;strokeColor=#82b366;align=center;verticalAlign=middle;fontFamily=Gloria Hallelujah;fontSource=https%3A%2F%2Ffonts.googleapis.com%2Fcss%3Ffamily%3DGloria%2BHallelujah;fontSize=16;fontStyle=1;labelBackgroundColor=none;fillColor=#d5e8d4;" vertex="1" parent="bHU1ZNU5g2B9R8OCuO9E-1">
          <mxGeometry x="-575" y="595" width="305" height="60" as="geometry" />
        </mxCell>
        <mxCell id="bHU1ZNU5g2B9R8OCuO9E-72" value="CNCF&lt;div style=&quot;font-size: 16px;&quot;&gt;4C&lt;/div&gt;&lt;div style=&quot;font-size: 16px;&quot;&gt;Security&lt;/div&gt;" style="shape=curlyBracket;whiteSpace=wrap;html=1;rounded=1;labelPosition=left;verticalLabelPosition=middle;align=center;verticalAlign=middle;dashed=0;sketch=1;jiggle=2;curveFitting=1;strokeColor=#000000;fontFamily=Gloria Hallelujah;fontSource=https%3A%2F%2Ffonts.googleapis.com%2Fcss%3Ffamily%3DGloria%2BHallelujah;fontSize=16;fontColor=#232F3E;fontStyle=1;labelBackgroundColor=none;fillColor=none;" vertex="1" parent="bHU1ZNU5g2B9R8OCuO9E-1">
          <mxGeometry x="-790" y="350" width="20" height="310" as="geometry" />
        </mxCell>
        <mxCell id="bHU1ZNU5g2B9R8OCuO9E-73" value="Prisma Cloud Security Protection Area" style="endArrow=classic;startArrow=classic;html=1;rounded=0;hachureGap=4;strokeColor=#7F00FF;strokeWidth=2;align=center;verticalAlign=middle;fontFamily=Gloria Hallelujah;fontSource=https%3A%2F%2Ffonts.googleapis.com%2Fcss%3Ffamily%3DGloria%2BHallelujah;fontSize=16;fontColor=#232F3E;fontStyle=1;labelBackgroundColor=none;edgeStyle=orthogonalEdgeStyle;flowAnimation=1;curved=1;" edge="1" parent="bHU1ZNU5g2B9R8OCuO9E-1">
          <mxGeometry x="-0.0081" y="10" width="50" height="50" relative="1" as="geometry">
            <mxPoint x="-575" y="190" as="sourcePoint" />
            <mxPoint x="40" y="190" as="targetPoint" />
            <mxPoint as="offset" />
          </mxGeometry>
        </mxCell>
        <mxCell id="bHU1ZNU5g2B9R8OCuO9E-74" value="" style="shape=image;imageAspect=0;aspect=fixed;verticalLabelPosition=bottom;verticalAlign=top;rounded=1;dashed=0;sketch=1;jiggle=2;curveFitting=1;strokeColor=#000000;align=center;fontFamily=Gloria Hallelujah;fontSource=https%3A%2F%2Ffonts.googleapis.com%2Fcss%3Ffamily%3DGloria%2BHallelujah;fontSize=16;fontColor=#232F3E;fontStyle=1;labelBackgroundColor=none;fillColor=none;image=https://images.crunchbase.com/image/upload/c_pad,f_auto,q_auto:eco,dpr_1/rfuwf3yqq2cermkmrej6;" vertex="1" parent="bHU1ZNU5g2B9R8OCuO9E-1">
          <mxGeometry x="-469.99999999999994" y="150" width="38.37" height="50" as="geometry" />
        </mxCell>
        <mxCell id="bHU1ZNU5g2B9R8OCuO9E-77" value="Application&lt;div&gt;Users&lt;/div&gt;" style="shape=umlActor;verticalLabelPosition=bottom;verticalAlign=top;html=1;outlineConnect=0;rounded=1;dashed=0;sketch=1;jiggle=2;curveFitting=1;strokeColor=#000000;align=center;fontFamily=Gloria Hallelujah;fontSource=https%3A%2F%2Ffonts.googleapis.com%2Fcss%3Ffamily%3DGloria%2BHallelujah;fontSize=14;fontColor=#232F3E;fontStyle=1;labelBackgroundColor=none;fillColor=none;" vertex="1" parent="bHU1ZNU5g2B9R8OCuO9E-1">
          <mxGeometry x="-379" y="910" width="40.5" height="81" as="geometry" />
        </mxCell>
        <mxCell id="bHU1ZNU5g2B9R8OCuO9E-82" style="edgeStyle=orthogonalEdgeStyle;curved=1;rounded=0;hachureGap=4;orthogonalLoop=1;jettySize=auto;html=1;exitX=0;exitY=0.5;exitDx=0;exitDy=0;entryX=0.5;entryY=1;entryDx=0;entryDy=0;strokeColor=#FF00FF;strokeWidth=2;align=center;verticalAlign=middle;fontFamily=Gloria Hallelujah;fontSource=https%3A%2F%2Ffonts.googleapis.com%2Fcss%3Ffamily%3DGloria%2BHallelujah;fontSize=14;fontColor=#232F3E;fontStyle=1;labelBackgroundColor=none;endArrow=classic;flowAnimation=0;sketch=1;curveFitting=1;jiggle=2;" edge="1" parent="bHU1ZNU5g2B9R8OCuO9E-1" source="bHU1ZNU5g2B9R8OCuO9E-83" target="bHU1ZNU5g2B9R8OCuO9E-26">
          <mxGeometry relative="1" as="geometry" />
        </mxCell>
        <mxCell id="bHU1ZNU5g2B9R8OCuO9E-83" value="Agent Base CWPP Protection" style="text;html=1;align=center;verticalAlign=middle;whiteSpace=wrap;rounded=0;fontFamily=Gloria Hallelujah;fontSource=https%3A%2F%2Ffonts.googleapis.com%2Fcss%3Ffamily%3DGloria%2BHallelujah;fontSize=14;fontColor=#232F3E;fontStyle=1;labelBackgroundColor=none;" vertex="1" parent="bHU1ZNU5g2B9R8OCuO9E-1">
          <mxGeometry x="1110" y="900" width="120" height="30" as="geometry" />
        </mxCell>
        <mxCell id="bHU1ZNU5g2B9R8OCuO9E-84" value="" style="group;fontStyle=1;labelBackgroundColor=none;" vertex="1" connectable="0" parent="bHU1ZNU5g2B9R8OCuO9E-1">
          <mxGeometry x="300" y="260" width="30" height="30.5" as="geometry" />
        </mxCell>
        <mxCell id="bHU1ZNU5g2B9R8OCuO9E-85" value="" style="rounded=0;whiteSpace=wrap;html=1;dashed=0;strokeColor=#000000;align=center;verticalAlign=middle;fontFamily=Gloria Hallelujah;fontSource=https%3A%2F%2Ffonts.googleapis.com%2Fcss%3Ffamily%3DGloria%2BHallelujah;fontSize=14;fontColor=#232F3E;fontStyle=1;labelBackgroundColor=none;fillColor=#000000;" vertex="1" parent="bHU1ZNU5g2B9R8OCuO9E-84">
          <mxGeometry width="30" height="29.737499999999997" as="geometry" />
        </mxCell>
        <mxCell id="bHU1ZNU5g2B9R8OCuO9E-86" value="" style="shape=image;imageAspect=0;aspect=fixed;verticalLabelPosition=bottom;verticalAlign=top;rounded=1;dashed=0;sketch=1;jiggle=2;curveFitting=1;strokeColor=#000000;align=center;fontFamily=Gloria Hallelujah;fontSource=https%3A%2F%2Ffonts.googleapis.com%2Fcss%3Ffamily%3DGloria%2BHallelujah;fontSize=14;fontColor=#232F3E;fontStyle=1;labelBackgroundColor=none;fillColor=none;image=https://images.crunchbase.com/image/upload/c_pad,f_auto,q_auto:eco,dpr_1/rfuwf3yqq2cermkmrej6;" vertex="1" parent="bHU1ZNU5g2B9R8OCuO9E-84">
          <mxGeometry x="3.4800000000000004" width="23.025" height="30" as="geometry" />
        </mxCell>
        <mxCell id="bHU1ZNU5g2B9R8OCuO9E-87" style="edgeStyle=orthogonalEdgeStyle;curved=1;rounded=0;sketch=1;hachureGap=4;jiggle=2;curveFitting=1;orthogonalLoop=1;jettySize=auto;html=1;entryX=0.5;entryY=0;entryDx=0;entryDy=0;strokeColor=#FF00FF;strokeWidth=2;align=center;verticalAlign=middle;fontFamily=Gloria Hallelujah;fontSource=https%3A%2F%2Ffonts.googleapis.com%2Fcss%3Ffamily%3DGloria%2BHallelujah;fontSize=14;fontColor=#232F3E;fontStyle=1;labelBackgroundColor=none;endArrow=classic;flowAnimation=0;" edge="1" parent="bHU1ZNU5g2B9R8OCuO9E-1" source="bHU1ZNU5g2B9R8OCuO9E-88" target="bHU1ZNU5g2B9R8OCuO9E-86">
          <mxGeometry relative="1" as="geometry" />
        </mxCell>
        <mxCell id="bHU1ZNU5g2B9R8OCuO9E-88" value="IAM Security" style="text;html=1;align=center;verticalAlign=middle;whiteSpace=wrap;rounded=0;fontFamily=Gloria Hallelujah;fontSource=https%3A%2F%2Ffonts.googleapis.com%2Fcss%3Ffamily%3DGloria%2BHallelujah;fontSize=14;fontColor=#232F3E;fontStyle=1;labelBackgroundColor=none;" vertex="1" parent="bHU1ZNU5g2B9R8OCuO9E-1">
          <mxGeometry x="343.24" y="210" width="62" height="30" as="geometry" />
        </mxCell>
        <mxCell id="bHU1ZNU5g2B9R8OCuO9E-89" style="edgeStyle=orthogonalEdgeStyle;curved=1;rounded=0;sketch=1;hachureGap=4;jiggle=2;curveFitting=1;orthogonalLoop=1;jettySize=auto;html=1;entryX=0.5;entryY=0;entryDx=0;entryDy=0;strokeColor=#FF00FF;strokeWidth=2;align=center;verticalAlign=middle;fontFamily=Gloria Hallelujah;fontSource=https%3A%2F%2Ffonts.googleapis.com%2Fcss%3Ffamily%3DGloria%2BHallelujah;fontSize=14;fontColor=#232F3E;fontStyle=1;labelBackgroundColor=none;endArrow=classic;flowAnimation=0;" edge="1" parent="bHU1ZNU5g2B9R8OCuO9E-1" source="bHU1ZNU5g2B9R8OCuO9E-90" target="bHU1ZNU5g2B9R8OCuO9E-4">
          <mxGeometry relative="1" as="geometry" />
        </mxCell>
        <mxCell id="bHU1ZNU5g2B9R8OCuO9E-90" value="CSPM" style="text;html=1;align=center;verticalAlign=middle;whiteSpace=wrap;rounded=0;fontFamily=Gloria Hallelujah;fontSource=https%3A%2F%2Ffonts.googleapis.com%2Fcss%3Ffamily%3DGloria%2BHallelujah;fontSize=14;fontColor=#232F3E;fontStyle=1;labelBackgroundColor=none;" vertex="1" parent="bHU1ZNU5g2B9R8OCuO9E-1">
          <mxGeometry x="240" y="110" width="62" height="30" as="geometry" />
        </mxCell>
        <mxCell id="bHU1ZNU5g2B9R8OCuO9E-91" style="edgeStyle=orthogonalEdgeStyle;curved=1;rounded=0;sketch=1;hachureGap=4;jiggle=2;curveFitting=1;orthogonalLoop=1;jettySize=auto;html=1;strokeColor=#FF00FF;strokeWidth=2;align=center;verticalAlign=middle;fontFamily=Gloria Hallelujah;fontSource=https%3A%2F%2Ffonts.googleapis.com%2Fcss%3Ffamily%3DGloria%2BHallelujah;fontSize=14;fontColor=#232F3E;fontStyle=1;labelBackgroundColor=none;endArrow=classic;flowAnimation=0;entryX=1;entryY=0.75;entryDx=0;entryDy=0;exitX=0.5;exitY=0;exitDx=0;exitDy=0;" edge="1" parent="bHU1ZNU5g2B9R8OCuO9E-1" source="bHU1ZNU5g2B9R8OCuO9E-92" target="bHU1ZNU5g2B9R8OCuO9E-94">
          <mxGeometry relative="1" as="geometry" />
        </mxCell>
        <mxCell id="3EA29baTlGRzZGvwGKuO-70" style="edgeStyle=orthogonalEdgeStyle;curved=1;rounded=0;sketch=1;hachureGap=4;jiggle=2;curveFitting=1;orthogonalLoop=1;jettySize=auto;html=1;entryX=1;entryY=0.5;entryDx=0;entryDy=0;strokeColor=#FF00FF;strokeWidth=2;align=center;verticalAlign=middle;fontFamily=Gloria Hallelujah;fontSource=https%3A%2F%2Ffonts.googleapis.com%2Fcss%3Ffamily%3DGloria%2BHallelujah;fontSize=14;fontColor=#232F3E;fontStyle=1;labelBackgroundColor=none;endArrow=classic;flowAnimation=0;exitX=0.5;exitY=1;exitDx=0;exitDy=0;" edge="1" parent="bHU1ZNU5g2B9R8OCuO9E-1" source="bHU1ZNU5g2B9R8OCuO9E-92" target="3EA29baTlGRzZGvwGKuO-68">
          <mxGeometry relative="1" as="geometry" />
        </mxCell>
        <mxCell id="bHU1ZNU5g2B9R8OCuO9E-92" value="Data Security" style="text;html=1;align=center;verticalAlign=middle;whiteSpace=wrap;rounded=0;fontFamily=Gloria Hallelujah;fontSource=https%3A%2F%2Ffonts.googleapis.com%2Fcss%3Ffamily%3DGloria%2BHallelujah;fontSize=14;fontColor=#232F3E;fontStyle=1;labelBackgroundColor=none;" vertex="1" parent="bHU1ZNU5g2B9R8OCuO9E-1">
          <mxGeometry x="1370" y="625" width="62" height="30" as="geometry" />
        </mxCell>
        <mxCell id="bHU1ZNU5g2B9R8OCuO9E-93" value="" style="group;fontStyle=1;labelBackgroundColor=none;" vertex="1" connectable="0" parent="bHU1ZNU5g2B9R8OCuO9E-1">
          <mxGeometry x="1310" y="480" width="30" height="30.5" as="geometry" />
        </mxCell>
        <mxCell id="bHU1ZNU5g2B9R8OCuO9E-94" value="" style="rounded=0;whiteSpace=wrap;html=1;dashed=0;strokeColor=#000000;align=center;verticalAlign=middle;fontFamily=Gloria Hallelujah;fontSource=https%3A%2F%2Ffonts.googleapis.com%2Fcss%3Ffamily%3DGloria%2BHallelujah;fontSize=14;fontColor=#232F3E;fontStyle=1;labelBackgroundColor=none;fillColor=#000000;" vertex="1" parent="bHU1ZNU5g2B9R8OCuO9E-93">
          <mxGeometry width="30" height="29.737499999999997" as="geometry" />
        </mxCell>
        <mxCell id="bHU1ZNU5g2B9R8OCuO9E-95" value="" style="shape=image;imageAspect=0;aspect=fixed;verticalLabelPosition=bottom;verticalAlign=top;rounded=1;dashed=0;sketch=1;jiggle=2;curveFitting=1;strokeColor=#000000;align=center;fontFamily=Gloria Hallelujah;fontSource=https%3A%2F%2Ffonts.googleapis.com%2Fcss%3Ffamily%3DGloria%2BHallelujah;fontSize=14;fontColor=#232F3E;fontStyle=1;labelBackgroundColor=none;fillColor=none;image=https://images.crunchbase.com/image/upload/c_pad,f_auto,q_auto:eco,dpr_1/rfuwf3yqq2cermkmrej6;" vertex="1" parent="bHU1ZNU5g2B9R8OCuO9E-93">
          <mxGeometry x="3.4800000000000004" width="23.025" height="30" as="geometry" />
        </mxCell>
        <mxCell id="bHU1ZNU5g2B9R8OCuO9E-96" value="Code Pipeline" style="sketch=0;points=[[0,0,0],[0.25,0,0],[0.5,0,0],[0.75,0,0],[1,0,0],[0,1,0],[0.25,1,0],[0.5,1,0],[0.75,1,0],[1,1,0],[0,0.25,0],[0,0.5,0],[0,0.75,0],[1,0.25,0],[1,0.5,0],[1,0.75,0]];outlineConnect=0;fontColor=#232F3E;fillColor=#C925D1;strokeColor=#ffffff;dashed=0;verticalLabelPosition=bottom;verticalAlign=top;align=center;html=1;fontSize=14;fontStyle=1;aspect=fixed;shape=mxgraph.aws4.resourceIcon;resIcon=mxgraph.aws4.codepipeline;rounded=1;jiggle=2;curveFitting=1;fontFamily=Gloria Hallelujah;fontSource=https%3A%2F%2Ffonts.googleapis.com%2Fcss%3Ffamily%3DGloria%2BHallelujah;labelBackgroundColor=none;" vertex="1" parent="bHU1ZNU5g2B9R8OCuO9E-1">
          <mxGeometry x="1051" y="280" width="78" height="78" as="geometry" />
        </mxCell>
        <mxCell id="bHU1ZNU5g2B9R8OCuO9E-97" value="" style="group;fontStyle=1;labelBackgroundColor=none;" vertex="1" connectable="0" parent="bHU1ZNU5g2B9R8OCuO9E-1">
          <mxGeometry x="1110" y="260" width="30" height="30.5" as="geometry" />
        </mxCell>
        <mxCell id="bHU1ZNU5g2B9R8OCuO9E-98" value="" style="rounded=0;whiteSpace=wrap;html=1;dashed=0;strokeColor=#000000;align=center;verticalAlign=middle;fontFamily=Gloria Hallelujah;fontSource=https%3A%2F%2Ffonts.googleapis.com%2Fcss%3Ffamily%3DGloria%2BHallelujah;fontSize=14;fontColor=#232F3E;fontStyle=1;labelBackgroundColor=none;fillColor=#000000;" vertex="1" parent="bHU1ZNU5g2B9R8OCuO9E-97">
          <mxGeometry width="30" height="29.737499999999997" as="geometry" />
        </mxCell>
        <mxCell id="bHU1ZNU5g2B9R8OCuO9E-99" value="" style="shape=image;imageAspect=0;aspect=fixed;verticalLabelPosition=bottom;verticalAlign=top;rounded=1;dashed=0;sketch=1;jiggle=2;curveFitting=1;strokeColor=#000000;align=center;fontFamily=Gloria Hallelujah;fontSource=https%3A%2F%2Ffonts.googleapis.com%2Fcss%3Ffamily%3DGloria%2BHallelujah;fontSize=14;fontColor=#232F3E;fontStyle=1;labelBackgroundColor=none;fillColor=none;image=https://images.crunchbase.com/image/upload/c_pad,f_auto,q_auto:eco,dpr_1/rfuwf3yqq2cermkmrej6;" vertex="1" parent="bHU1ZNU5g2B9R8OCuO9E-97">
          <mxGeometry x="3.4800000000000004" width="23.025" height="30" as="geometry" />
        </mxCell>
        <mxCell id="bHU1ZNU5g2B9R8OCuO9E-100" style="edgeStyle=orthogonalEdgeStyle;curved=1;rounded=0;sketch=1;hachureGap=4;jiggle=2;curveFitting=1;orthogonalLoop=1;jettySize=auto;html=1;exitX=0.5;exitY=1;exitDx=0;exitDy=0;entryX=1;entryY=0.75;entryDx=0;entryDy=0;strokeColor=#FF00FF;strokeWidth=2;align=center;verticalAlign=middle;fontFamily=Gloria Hallelujah;fontSource=https%3A%2F%2Ffonts.googleapis.com%2Fcss%3Ffamily%3DGloria%2BHallelujah;fontSize=14;fontColor=#232F3E;fontStyle=1;labelBackgroundColor=none;endArrow=classic;flowAnimation=0;entryPerimeter=0;" edge="1" parent="bHU1ZNU5g2B9R8OCuO9E-1" source="bHU1ZNU5g2B9R8OCuO9E-101" target="bHU1ZNU5g2B9R8OCuO9E-96">
          <mxGeometry relative="1" as="geometry" />
        </mxCell>
        <mxCell id="bHU1ZNU5g2B9R8OCuO9E-101" value="Code&lt;div&gt;Security&lt;/div&gt;" style="text;html=1;align=center;verticalAlign=middle;whiteSpace=wrap;rounded=0;fontFamily=Gloria Hallelujah;fontSource=https%3A%2F%2Ffonts.googleapis.com%2Fcss%3Ffamily%3DGloria%2BHallelujah;fontSize=14;fontColor=#232F3E;fontStyle=1;labelBackgroundColor=none;" vertex="1" parent="bHU1ZNU5g2B9R8OCuO9E-1">
          <mxGeometry x="1180" y="220" width="62" height="30" as="geometry" />
        </mxCell>
        <mxCell id="bHU1ZNU5g2B9R8OCuO9E-102" value="CI/CD" style="edgeStyle=orthogonalEdgeStyle;curved=1;rounded=0;hachureGap=4;orthogonalLoop=1;jettySize=auto;html=1;exitX=0;exitY=0.75;exitDx=0;exitDy=0;exitPerimeter=0;entryX=0.75;entryY=0;entryDx=0;entryDy=0;entryPerimeter=0;strokeColor=#FF00FF;strokeWidth=2;align=center;verticalAlign=middle;fontFamily=Gloria Hallelujah;fontSource=https%3A%2F%2Ffonts.googleapis.com%2Fcss%3Ffamily%3DGloria%2BHallelujah;fontSize=14;fontColor=#232F3E;fontStyle=1;labelBackgroundColor=none;endArrow=classic;flowAnimation=1;" edge="1" parent="bHU1ZNU5g2B9R8OCuO9E-1" source="bHU1ZNU5g2B9R8OCuO9E-96" target="bHU1ZNU5g2B9R8OCuO9E-17">
          <mxGeometry x="0.1405" y="21" relative="1" as="geometry">
            <mxPoint y="1" as="offset" />
          </mxGeometry>
        </mxCell>
        <mxCell id="bHU1ZNU5g2B9R8OCuO9E-112" value="API Integration" style="edgeStyle=orthogonalEdgeStyle;curved=1;rounded=0;hachureGap=4;orthogonalLoop=1;jettySize=auto;html=1;exitX=0.875;exitY=0.5;exitDx=0;exitDy=0;exitPerimeter=0;entryX=0;entryY=0.5;entryDx=0;entryDy=0;strokeColor=#808080;strokeWidth=2;align=center;verticalAlign=middle;fontFamily=Gloria Hallelujah;fontSource=https%3A%2F%2Ffonts.googleapis.com%2Fcss%3Ffamily%3DGloria%2BHallelujah;fontSize=14;fontColor=#232F3E;fontStyle=1;labelBackgroundColor=default;endArrow=classic;flowAnimation=1;" edge="1" parent="bHU1ZNU5g2B9R8OCuO9E-1" source="bHU1ZNU5g2B9R8OCuO9E-59" target="bHU1ZNU5g2B9R8OCuO9E-4">
          <mxGeometry x="0.135" y="70" relative="1" as="geometry">
            <Array as="points">
              <mxPoint x="-60" y="830" />
              <mxPoint x="-60" y="610" />
              <mxPoint x="110" y="610" />
              <mxPoint x="110" y="211" />
            </Array>
            <mxPoint as="offset" />
          </mxGeometry>
        </mxCell>
        <mxCell id="3EA29baTlGRzZGvwGKuO-6" value="" style="shape=message;html=1;html=1;outlineConnect=0;labelPosition=center;verticalLabelPosition=bottom;align=center;verticalAlign=top;sketch=1;hachureGap=4;jiggle=2;curveFitting=1;fontFamily=Architects Daughter;fontSource=https%3A%2F%2Ffonts.googleapis.com%2Fcss%3Ffamily%3DArchitects%2BDaughter;fontSize=11;fontColor=default;labelBackgroundColor=default;" vertex="1" parent="bHU1ZNU5g2B9R8OCuO9E-1">
          <mxGeometry x="-697.5" y="864" width="45" height="30" as="geometry" />
        </mxCell>
        <mxCell id="3EA29baTlGRzZGvwGKuO-26" style="edgeStyle=orthogonalEdgeStyle;curved=1;rounded=0;hachureGap=4;orthogonalLoop=1;jettySize=auto;html=1;exitX=1;exitY=0.5;exitDx=0;exitDy=0;exitPerimeter=0;strokeColor=#808080;strokeWidth=2;align=center;verticalAlign=middle;fontFamily=Gloria Hallelujah;fontSource=https%3A%2F%2Ffonts.googleapis.com%2Fcss%3Ffamily%3DGloria%2BHallelujah;fontSize=14;fontColor=#232F3E;fontStyle=1;labelBackgroundColor=default;endArrow=classic;flowAnimation=1;" edge="1" parent="bHU1ZNU5g2B9R8OCuO9E-1" source="3EA29baTlGRzZGvwGKuO-24" target="bHU1ZNU5g2B9R8OCuO9E-29">
          <mxGeometry relative="1" as="geometry" />
        </mxCell>
        <mxCell id="3EA29baTlGRzZGvwGKuO-24" value="Cloud Front" style="sketch=0;points=[[0,0,0],[0.25,0,0],[0.5,0,0],[0.75,0,0],[1,0,0],[0,1,0],[0.25,1,0],[0.5,1,0],[0.75,1,0],[1,1,0],[0,0.25,0],[0,0.5,0],[0,0.75,0],[1,0.25,0],[1,0.5,0],[1,0.75,0]];outlineConnect=0;fontColor=#232F3E;fillColor=#8C4FFF;strokeColor=#ffffff;dashed=0;verticalLabelPosition=bottom;verticalAlign=top;align=center;html=1;fontSize=14;fontStyle=0;aspect=fixed;shape=mxgraph.aws4.resourceIcon;resIcon=mxgraph.aws4.cloudfront;hachureGap=4;jiggle=2;curveFitting=1;fontFamily=Gloria Hallelujah;fontSource=https%3A%2F%2Ffonts.googleapis.com%2Fcss%3Ffamily%3DGloria%2BHallelujah;labelBackgroundColor=default;" vertex="1" parent="bHU1ZNU5g2B9R8OCuO9E-1">
          <mxGeometry x="110" y="650" width="78" height="78" as="geometry" />
        </mxCell>
        <mxCell id="3EA29baTlGRzZGvwGKuO-25" style="edgeStyle=orthogonalEdgeStyle;curved=1;rounded=0;hachureGap=4;orthogonalLoop=1;jettySize=auto;html=1;entryX=0;entryY=0.5;entryDx=0;entryDy=0;entryPerimeter=0;strokeColor=#808080;strokeWidth=2;align=center;verticalAlign=middle;fontFamily=Gloria Hallelujah;fontSource=https%3A%2F%2Ffonts.googleapis.com%2Fcss%3Ffamily%3DGloria%2BHallelujah;fontSize=14;fontColor=#232F3E;fontStyle=1;labelBackgroundColor=default;endArrow=classic;flowAnimation=1;exitX=0.5;exitY=0.5;exitDx=0;exitDy=0;exitPerimeter=0;" edge="1" parent="bHU1ZNU5g2B9R8OCuO9E-1" source="bHU1ZNU5g2B9R8OCuO9E-77" target="3EA29baTlGRzZGvwGKuO-24">
          <mxGeometry relative="1" as="geometry">
            <Array as="points">
              <mxPoint x="-42" y="951" />
              <mxPoint x="-42" y="689" />
            </Array>
          </mxGeometry>
        </mxCell>
        <mxCell id="3EA29baTlGRzZGvwGKuO-27" value="" style="group" vertex="1" connectable="0" parent="bHU1ZNU5g2B9R8OCuO9E-1">
          <mxGeometry x="560" y="950" width="570" height="280" as="geometry" />
        </mxCell>
        <mxCell id="3EA29baTlGRzZGvwGKuO-9" value="Non-VPC Workloads (PaaS)" style="rounded=0;whiteSpace=wrap;html=1;sketch=1;jiggle=2;curveFitting=1;strokeColor=default;align=center;verticalAlign=top;fontFamily=Gloria Hallelujah;fontSource=https%3A%2F%2Ffonts.googleapis.com%2Fcss%3Ffamily%3DGloria%2BHallelujah;fontSize=12;fontColor=default;fillColor=default;" vertex="1" parent="3EA29baTlGRzZGvwGKuO-27">
          <mxGeometry width="570" height="280" as="geometry" />
        </mxCell>
        <mxCell id="3EA29baTlGRzZGvwGKuO-10" value="Image&lt;div&gt;Registry&lt;/div&gt;" style="shape=cylinder3;whiteSpace=wrap;html=1;boundedLbl=1;backgroundOutline=1;size=15;sketch=1;jiggle=2;curveFitting=1;strokeColor=default;align=center;verticalAlign=top;fontFamily=Gloria Hallelujah;fontSource=https%3A%2F%2Ffonts.googleapis.com%2Fcss%3Ffamily%3DGloria%2BHallelujah;fontSize=12;fontColor=default;fillColor=default;" vertex="1" parent="3EA29baTlGRzZGvwGKuO-27">
          <mxGeometry x="47.297872340425535" y="161" width="121.27659574468086" height="93.33333333333334" as="geometry" />
        </mxCell>
        <mxCell id="3EA29baTlGRzZGvwGKuO-11" value="ECR" style="sketch=0;points=[[0,0,0],[0.25,0,0],[0.5,0,0],[0.75,0,0],[1,0,0],[0,1,0],[0.25,1,0],[0.5,1,0],[0.75,1,0],[1,1,0],[0,0.25,0],[0,0.5,0],[0,0.75,0],[1,0.25,0],[1,0.5,0],[1,0.75,0]];outlineConnect=0;fontColor=#232F3E;fillColor=#ED7100;strokeColor=#ffffff;dashed=0;verticalLabelPosition=bottom;verticalAlign=top;align=center;html=1;fontSize=12;fontStyle=0;aspect=fixed;shape=mxgraph.aws4.resourceIcon;resIcon=mxgraph.aws4.ecr;jiggle=2;curveFitting=1;fontFamily=Gloria Hallelujah;fontSource=https%3A%2F%2Ffonts.googleapis.com%2Fcss%3Ffamily%3DGloria%2BHallelujah;" vertex="1" parent="3EA29baTlGRzZGvwGKuO-27">
          <mxGeometry x="12.127659574468087" y="187.83333333333334" width="56" height="56" as="geometry" />
        </mxCell>
        <mxCell id="3EA29baTlGRzZGvwGKuO-12" value="DB" style="shape=cylinder3;whiteSpace=wrap;html=1;boundedLbl=1;backgroundOutline=1;size=15;sketch=1;jiggle=2;curveFitting=1;strokeColor=default;align=center;verticalAlign=middle;fontFamily=Gloria Hallelujah;fontSource=https%3A%2F%2Ffonts.googleapis.com%2Fcss%3Ffamily%3DGloria%2BHallelujah;fontSize=12;fontColor=default;fillColor=default;" vertex="1" parent="3EA29baTlGRzZGvwGKuO-27">
          <mxGeometry x="255.20234042553201" y="163.33333333333334" width="72.76595744680851" height="93.33333333333334" as="geometry" />
        </mxCell>
        <mxCell id="3EA29baTlGRzZGvwGKuO-14" value="Large Lang&lt;div&gt;Model (LLM)&lt;/div&gt;" style="rounded=1;whiteSpace=wrap;html=1;sketch=1;jiggle=2;curveFitting=1;strokeColor=default;align=center;verticalAlign=middle;fontFamily=Gloria Hallelujah;fontSource=https%3A%2F%2Ffonts.googleapis.com%2Fcss%3Ffamily%3DGloria%2BHallelujah;fontSize=12;fontColor=default;fillColor=default;" vertex="1" parent="3EA29baTlGRzZGvwGKuO-27">
          <mxGeometry x="408.7021276595745" y="166.83333333333334" width="124.91489361702129" height="70" as="geometry" />
        </mxCell>
        <mxCell id="3EA29baTlGRzZGvwGKuO-15" value="Cloud Storage" style="shape=cylinder3;whiteSpace=wrap;html=1;boundedLbl=1;backgroundOutline=1;size=15;sketch=1;jiggle=2;curveFitting=1;strokeColor=default;align=center;verticalAlign=top;fontFamily=Gloria Hallelujah;fontSource=https%3A%2F%2Ffonts.googleapis.com%2Fcss%3Ffamily%3DGloria%2BHallelujah;fontSize=12;fontColor=default;fillColor=default;" vertex="1" parent="3EA29baTlGRzZGvwGKuO-27">
          <mxGeometry x="59.42553191489362" y="49" width="97.0212765957447" height="93.33333333333334" as="geometry" />
        </mxCell>
        <mxCell id="3EA29baTlGRzZGvwGKuO-16" value="S3" style="sketch=0;points=[[0,0,0],[0.25,0,0],[0.5,0,0],[0.75,0,0],[1,0,0],[0,1,0],[0.25,1,0],[0.5,1,0],[0.75,1,0],[1,1,0],[0,0.25,0],[0,0.5,0],[0,0.75,0],[1,0.25,0],[1,0.5,0],[1,0.75,0]];outlineConnect=0;fontColor=#232F3E;fillColor=#7AA116;strokeColor=#ffffff;dashed=0;verticalLabelPosition=bottom;verticalAlign=top;align=center;html=1;fontSize=12;fontStyle=0;aspect=fixed;shape=mxgraph.aws4.resourceIcon;resIcon=mxgraph.aws4.s3;jiggle=2;curveFitting=1;fontFamily=Gloria Hallelujah;fontSource=https%3A%2F%2Ffonts.googleapis.com%2Fcss%3Ffamily%3DGloria%2BHallelujah;" vertex="1" parent="3EA29baTlGRzZGvwGKuO-27">
          <mxGeometry x="9.702127659574469" y="37.333333333333336" width="58.333333333333336" height="58.333333333333336" as="geometry" />
        </mxCell>
        <mxCell id="3EA29baTlGRzZGvwGKuO-17" value="Large Lang&lt;div&gt;Model (LLM)&lt;/div&gt;" style="rounded=1;whiteSpace=wrap;html=1;sketch=1;jiggle=2;curveFitting=1;strokeColor=default;align=center;verticalAlign=middle;fontFamily=Gloria Hallelujah;fontSource=https%3A%2F%2Ffonts.googleapis.com%2Fcss%3Ffamily%3DGloria%2BHallelujah;fontSize=12;fontColor=default;fillColor=default;" vertex="1" parent="3EA29baTlGRzZGvwGKuO-27">
          <mxGeometry x="420.82978723404256" y="178.5" width="124.91489361702129" height="70" as="geometry" />
        </mxCell>
        <mxCell id="3EA29baTlGRzZGvwGKuO-18" value="Fire&lt;div&gt;Shares&lt;/div&gt;" style="shape=document;whiteSpace=wrap;html=1;boundedLbl=1;sketch=1;jiggle=2;curveFitting=1;strokeColor=default;align=center;verticalAlign=top;fontFamily=Gloria Hallelujah;fontSource=https%3A%2F%2Ffonts.googleapis.com%2Fcss%3Ffamily%3DGloria%2BHallelujah;fontSize=12;fontColor=default;fillColor=default;" vertex="1" parent="3EA29baTlGRzZGvwGKuO-27">
          <mxGeometry x="243.34148936170212" y="60.66666666666667" width="96.49978723404256" height="81.66666666666667" as="geometry" />
        </mxCell>
        <mxCell id="3EA29baTlGRzZGvwGKuO-19" value="EFS" style="sketch=0;points=[[0,0,0],[0.25,0,0],[0.5,0,0],[0.75,0,0],[1,0,0],[0,1,0],[0.25,1,0],[0.5,1,0],[0.75,1,0],[1,1,0],[0,0.25,0],[0,0.5,0],[0,0.75,0],[1,0.25,0],[1,0.5,0],[1,0.75,0]];outlineConnect=0;fontColor=#232F3E;fillColor=#7AA116;strokeColor=#ffffff;dashed=0;verticalLabelPosition=bottom;verticalAlign=top;align=center;html=1;fontSize=12;fontStyle=0;aspect=fixed;shape=mxgraph.aws4.resourceIcon;resIcon=mxgraph.aws4.efs_standard;jiggle=2;curveFitting=1;fontFamily=Gloria Hallelujah;fontSource=https%3A%2F%2Ffonts.googleapis.com%2Fcss%3Ffamily%3DGloria%2BHallelujah;" vertex="1" parent="3EA29baTlGRzZGvwGKuO-27">
          <mxGeometry x="196.98957446808507" y="38.5" width="56" height="56" as="geometry" />
        </mxCell>
        <mxCell id="3EA29baTlGRzZGvwGKuO-20" value="Fargate" style="sketch=0;points=[[0,0,0],[0.25,0,0],[0.5,0,0],[0.75,0,0],[1,0,0],[0,1,0],[0.25,1,0],[0.5,1,0],[0.75,1,0],[1,1,0],[0,0.25,0],[0,0.5,0],[0,0.75,0],[1,0.25,0],[1,0.5,0],[1,0.75,0]];outlineConnect=0;fontColor=#232F3E;fillColor=#ED7100;strokeColor=#ffffff;dashed=0;verticalLabelPosition=bottom;verticalAlign=top;align=center;html=1;fontSize=12;fontStyle=0;aspect=fixed;shape=mxgraph.aws4.resourceIcon;resIcon=mxgraph.aws4.fargate;jiggle=2;curveFitting=1;fontFamily=Gloria Hallelujah;fontSource=https%3A%2F%2Ffonts.googleapis.com%2Fcss%3Ffamily%3DGloria%2BHallelujah;" vertex="1" parent="3EA29baTlGRzZGvwGKuO-27">
          <mxGeometry x="388.0851063829788" y="49" width="55.41666666666667" height="55.41666666666667" as="geometry" />
        </mxCell>
        <mxCell id="3EA29baTlGRzZGvwGKuO-21" value="Lambda" style="sketch=0;points=[[0,0,0],[0.25,0,0],[0.5,0,0],[0.75,0,0],[1,0,0],[0,1,0],[0.25,1,0],[0.5,1,0],[0.75,1,0],[1,1,0],[0,0.25,0],[0,0.5,0],[0,0.75,0],[1,0.25,0],[1,0.5,0],[1,0.75,0]];outlineConnect=0;fontColor=#232F3E;fillColor=#ED7100;strokeColor=#ffffff;dashed=0;verticalLabelPosition=bottom;verticalAlign=top;align=center;html=1;fontSize=12;fontStyle=0;aspect=fixed;shape=mxgraph.aws4.resourceIcon;resIcon=mxgraph.aws4.lambda;jiggle=2;curveFitting=1;fontFamily=Gloria Hallelujah;fontSource=https%3A%2F%2Ffonts.googleapis.com%2Fcss%3Ffamily%3DGloria%2BHallelujah;" vertex="1" parent="3EA29baTlGRzZGvwGKuO-27">
          <mxGeometry x="476.6170212765958" y="49.583333333333336" width="54.833333333333336" height="54.833333333333336" as="geometry" />
        </mxCell>
        <mxCell id="3EA29baTlGRzZGvwGKuO-22" value="Sagemaker/Bedrock" style="sketch=0;points=[[0,0,0],[0.25,0,0],[0.5,0,0],[0.75,0,0],[1,0,0],[0,1,0],[0.25,1,0],[0.5,1,0],[0.75,1,0],[1,1,0],[0,0.25,0],[0,0.5,0],[0,0.75,0],[1,0.25,0],[1,0.5,0],[1,0.75,0]];outlineConnect=0;fontColor=#232F3E;fillColor=#01A88D;strokeColor=#ffffff;dashed=0;verticalLabelPosition=bottom;verticalAlign=top;align=center;html=1;fontSize=12;fontStyle=0;aspect=fixed;shape=mxgraph.aws4.resourceIcon;resIcon=mxgraph.aws4.sagemaker;jiggle=2;curveFitting=1;fontFamily=Gloria Hallelujah;fontSource=https%3A%2F%2Ffonts.googleapis.com%2Fcss%3Ffamily%3DGloria%2BHallelujah;" vertex="1" parent="3EA29baTlGRzZGvwGKuO-27">
          <mxGeometry x="367.468085106383" y="187.83333333333334" width="56" height="56" as="geometry" />
        </mxCell>
        <mxCell id="3EA29baTlGRzZGvwGKuO-29" value="" style="group;fontStyle=1;labelBackgroundColor=none;" vertex="1" connectable="0" parent="3EA29baTlGRzZGvwGKuO-27">
          <mxGeometry x="430" y="30.16999999999996" width="30" height="30.5" as="geometry" />
        </mxCell>
        <mxCell id="3EA29baTlGRzZGvwGKuO-30" value="" style="rounded=0;whiteSpace=wrap;html=1;dashed=0;strokeColor=#000000;align=center;verticalAlign=middle;fontFamily=Gloria Hallelujah;fontSource=https%3A%2F%2Ffonts.googleapis.com%2Fcss%3Ffamily%3DGloria%2BHallelujah;fontSize=14;fontColor=#232F3E;fontStyle=1;labelBackgroundColor=none;fillColor=#000000;" vertex="1" parent="3EA29baTlGRzZGvwGKuO-29">
          <mxGeometry width="30" height="29.737499999999997" as="geometry" />
        </mxCell>
        <mxCell id="3EA29baTlGRzZGvwGKuO-31" value="" style="shape=image;imageAspect=0;aspect=fixed;verticalLabelPosition=bottom;verticalAlign=top;rounded=1;dashed=0;sketch=1;jiggle=2;curveFitting=1;strokeColor=#000000;align=center;fontFamily=Gloria Hallelujah;fontSource=https%3A%2F%2Ffonts.googleapis.com%2Fcss%3Ffamily%3DGloria%2BHallelujah;fontSize=14;fontColor=#232F3E;fontStyle=1;labelBackgroundColor=none;fillColor=none;image=https://images.crunchbase.com/image/upload/c_pad,f_auto,q_auto:eco,dpr_1/rfuwf3yqq2cermkmrej6;" vertex="1" parent="3EA29baTlGRzZGvwGKuO-29">
          <mxGeometry x="3.4800000000000004" width="23.025" height="30" as="geometry" />
        </mxCell>
        <mxCell id="3EA29baTlGRzZGvwGKuO-32" value="" style="group;fontStyle=1;labelBackgroundColor=none;" vertex="1" connectable="0" parent="3EA29baTlGRzZGvwGKuO-27">
          <mxGeometry x="520" y="30.16999999999996" width="30" height="30.5" as="geometry" />
        </mxCell>
        <mxCell id="3EA29baTlGRzZGvwGKuO-33" value="" style="rounded=0;whiteSpace=wrap;html=1;dashed=0;strokeColor=#000000;align=center;verticalAlign=middle;fontFamily=Gloria Hallelujah;fontSource=https%3A%2F%2Ffonts.googleapis.com%2Fcss%3Ffamily%3DGloria%2BHallelujah;fontSize=14;fontColor=#232F3E;fontStyle=1;labelBackgroundColor=none;fillColor=#000000;" vertex="1" parent="3EA29baTlGRzZGvwGKuO-32">
          <mxGeometry width="30" height="29.737499999999997" as="geometry" />
        </mxCell>
        <mxCell id="3EA29baTlGRzZGvwGKuO-34" value="" style="shape=image;imageAspect=0;aspect=fixed;verticalLabelPosition=bottom;verticalAlign=top;rounded=1;dashed=0;sketch=1;jiggle=2;curveFitting=1;strokeColor=#000000;align=center;fontFamily=Gloria Hallelujah;fontSource=https%3A%2F%2Ffonts.googleapis.com%2Fcss%3Ffamily%3DGloria%2BHallelujah;fontSize=14;fontColor=#232F3E;fontStyle=1;labelBackgroundColor=none;fillColor=none;image=https://images.crunchbase.com/image/upload/c_pad,f_auto,q_auto:eco,dpr_1/rfuwf3yqq2cermkmrej6;" vertex="1" parent="3EA29baTlGRzZGvwGKuO-32">
          <mxGeometry x="3.4800000000000004" width="23.025" height="30" as="geometry" />
        </mxCell>
        <mxCell id="3EA29baTlGRzZGvwGKuO-37" value="" style="group;fontStyle=1;labelBackgroundColor=none;" vertex="1" connectable="0" parent="3EA29baTlGRzZGvwGKuO-27">
          <mxGeometry x="-17.870000000000005" y="-20" width="30" height="30.5" as="geometry" />
        </mxCell>
        <mxCell id="3EA29baTlGRzZGvwGKuO-38" value="" style="rounded=0;whiteSpace=wrap;html=1;dashed=0;strokeColor=#000000;align=center;verticalAlign=middle;fontFamily=Gloria Hallelujah;fontSource=https%3A%2F%2Ffonts.googleapis.com%2Fcss%3Ffamily%3DGloria%2BHallelujah;fontSize=14;fontColor=#232F3E;fontStyle=1;labelBackgroundColor=none;fillColor=#000000;" vertex="1" parent="3EA29baTlGRzZGvwGKuO-37">
          <mxGeometry width="30" height="29.737499999999997" as="geometry" />
        </mxCell>
        <mxCell id="3EA29baTlGRzZGvwGKuO-39" value="" style="shape=image;imageAspect=0;aspect=fixed;verticalLabelPosition=bottom;verticalAlign=top;rounded=1;dashed=0;sketch=1;jiggle=2;curveFitting=1;strokeColor=#000000;align=center;fontFamily=Gloria Hallelujah;fontSource=https%3A%2F%2Ffonts.googleapis.com%2Fcss%3Ffamily%3DGloria%2BHallelujah;fontSize=14;fontColor=#232F3E;fontStyle=1;labelBackgroundColor=none;fillColor=none;image=https://images.crunchbase.com/image/upload/c_pad,f_auto,q_auto:eco,dpr_1/rfuwf3yqq2cermkmrej6;" vertex="1" parent="3EA29baTlGRzZGvwGKuO-37">
          <mxGeometry x="3.4800000000000004" width="23.025" height="30" as="geometry" />
        </mxCell>
        <mxCell id="3EA29baTlGRzZGvwGKuO-52" value="Dynamo DB" style="sketch=0;points=[[0,0,0],[0.25,0,0],[0.5,0,0],[0.75,0,0],[1,0,0],[0,1,0],[0.25,1,0],[0.5,1,0],[0.75,1,0],[1,1,0],[0,0.25,0],[0,0.5,0],[0,0.75,0],[1,0.25,0],[1,0.5,0],[1,0.75,0]];outlineConnect=0;fontColor=#232F3E;fillColor=#C925D1;strokeColor=#ffffff;dashed=0;verticalLabelPosition=bottom;verticalAlign=top;align=center;html=1;fontSize=14;fontStyle=0;aspect=fixed;shape=mxgraph.aws4.resourceIcon;resIcon=mxgraph.aws4.dynamodb;hachureGap=4;jiggle=2;curveFitting=1;fontFamily=Gloria Hallelujah;fontSource=https%3A%2F%2Ffonts.googleapis.com%2Fcss%3Ffamily%3DGloria%2BHallelujah;labelBackgroundColor=none;" vertex="1" parent="3EA29baTlGRzZGvwGKuO-27">
          <mxGeometry x="210" y="185.82999999999993" width="58" height="58" as="geometry" />
        </mxCell>
        <mxCell id="3EA29baTlGRzZGvwGKuO-42" style="edgeStyle=orthogonalEdgeStyle;curved=1;rounded=0;sketch=1;hachureGap=4;jiggle=2;curveFitting=1;orthogonalLoop=1;jettySize=auto;html=1;entryX=0;entryY=0.5;entryDx=0;entryDy=0;strokeColor=#FF00FF;strokeWidth=2;align=center;verticalAlign=middle;fontFamily=Gloria Hallelujah;fontSource=https%3A%2F%2Ffonts.googleapis.com%2Fcss%3Ffamily%3DGloria%2BHallelujah;fontSize=14;fontColor=#232F3E;fontStyle=1;labelBackgroundColor=none;endArrow=classic;flowAnimation=0;" edge="1" parent="bHU1ZNU5g2B9R8OCuO9E-1" source="3EA29baTlGRzZGvwGKuO-40" target="3EA29baTlGRzZGvwGKuO-39">
          <mxGeometry relative="1" as="geometry" />
        </mxCell>
        <mxCell id="3EA29baTlGRzZGvwGKuO-40" value="Configuration Drift Detection" style="text;html=1;align=center;verticalAlign=middle;whiteSpace=wrap;rounded=0;fontFamily=Gloria Hallelujah;fontSource=https%3A%2F%2Ffonts.googleapis.com%2Fcss%3Ffamily%3DGloria%2BHallelujah;fontSize=14;fontColor=#232F3E;fontStyle=1;labelBackgroundColor=none;" vertex="1" parent="bHU1ZNU5g2B9R8OCuO9E-1">
          <mxGeometry x="338" y="1100" width="110" height="40" as="geometry" />
        </mxCell>
        <mxCell id="3EA29baTlGRzZGvwGKuO-46" value="" style="group;fontStyle=1;labelBackgroundColor=none;" vertex="1" connectable="0" parent="bHU1ZNU5g2B9R8OCuO9E-1">
          <mxGeometry x="430" y="260" width="30" height="30.5" as="geometry" />
        </mxCell>
        <mxCell id="3EA29baTlGRzZGvwGKuO-47" value="" style="rounded=0;whiteSpace=wrap;html=1;dashed=0;strokeColor=#000000;align=center;verticalAlign=middle;fontFamily=Gloria Hallelujah;fontSource=https%3A%2F%2Ffonts.googleapis.com%2Fcss%3Ffamily%3DGloria%2BHallelujah;fontSize=14;fontColor=#232F3E;fontStyle=1;labelBackgroundColor=none;fillColor=#000000;" vertex="1" parent="3EA29baTlGRzZGvwGKuO-46">
          <mxGeometry width="30" height="29.737499999999997" as="geometry" />
        </mxCell>
        <mxCell id="3EA29baTlGRzZGvwGKuO-48" value="" style="shape=image;imageAspect=0;aspect=fixed;verticalLabelPosition=bottom;verticalAlign=top;rounded=1;dashed=0;sketch=1;jiggle=2;curveFitting=1;strokeColor=#000000;align=center;fontFamily=Gloria Hallelujah;fontSource=https%3A%2F%2Ffonts.googleapis.com%2Fcss%3Ffamily%3DGloria%2BHallelujah;fontSize=14;fontColor=#232F3E;fontStyle=1;labelBackgroundColor=none;fillColor=none;image=https://images.crunchbase.com/image/upload/c_pad,f_auto,q_auto:eco,dpr_1/rfuwf3yqq2cermkmrej6;" vertex="1" parent="3EA29baTlGRzZGvwGKuO-46">
          <mxGeometry x="3.4800000000000004" width="23.025" height="30" as="geometry" />
        </mxCell>
        <mxCell id="3EA29baTlGRzZGvwGKuO-49" style="edgeStyle=orthogonalEdgeStyle;curved=1;rounded=0;sketch=1;hachureGap=4;jiggle=2;curveFitting=1;orthogonalLoop=1;jettySize=auto;html=1;entryX=0.5;entryY=0;entryDx=0;entryDy=0;strokeColor=#FF00FF;strokeWidth=2;align=center;verticalAlign=middle;fontFamily=Gloria Hallelujah;fontSource=https%3A%2F%2Ffonts.googleapis.com%2Fcss%3Ffamily%3DGloria%2BHallelujah;fontSize=14;fontColor=#232F3E;fontStyle=1;labelBackgroundColor=none;endArrow=classic;flowAnimation=0;" edge="1" parent="bHU1ZNU5g2B9R8OCuO9E-1" source="bHU1ZNU5g2B9R8OCuO9E-88" target="3EA29baTlGRzZGvwGKuO-48">
          <mxGeometry relative="1" as="geometry">
            <mxPoint x="488" y="225" as="sourcePoint" />
          </mxGeometry>
        </mxCell>
        <mxCell id="3EA29baTlGRzZGvwGKuO-35" style="edgeStyle=orthogonalEdgeStyle;curved=1;rounded=0;sketch=1;hachureGap=4;jiggle=2;curveFitting=1;orthogonalLoop=1;jettySize=auto;html=1;entryX=0.75;entryY=0;entryDx=0;entryDy=0;strokeColor=#FF00FF;strokeWidth=2;align=center;verticalAlign=middle;fontFamily=Gloria Hallelujah;fontSource=https%3A%2F%2Ffonts.googleapis.com%2Fcss%3Ffamily%3DGloria%2BHallelujah;fontSize=14;fontColor=#232F3E;fontStyle=1;labelBackgroundColor=none;endArrow=classic;flowAnimation=0;" edge="1" parent="bHU1ZNU5g2B9R8OCuO9E-1" source="bHU1ZNU5g2B9R8OCuO9E-83" target="3EA29baTlGRzZGvwGKuO-30">
          <mxGeometry relative="1" as="geometry" />
        </mxCell>
        <mxCell id="3EA29baTlGRzZGvwGKuO-36" style="edgeStyle=orthogonalEdgeStyle;curved=1;rounded=0;sketch=1;hachureGap=4;jiggle=2;curveFitting=1;orthogonalLoop=1;jettySize=auto;html=1;exitX=0.5;exitY=1;exitDx=0;exitDy=0;entryX=1;entryY=0.5;entryDx=0;entryDy=0;strokeColor=#FF00FF;strokeWidth=2;align=center;verticalAlign=middle;fontFamily=Gloria Hallelujah;fontSource=https%3A%2F%2Ffonts.googleapis.com%2Fcss%3Ffamily%3DGloria%2BHallelujah;fontSize=14;fontColor=#232F3E;fontStyle=1;labelBackgroundColor=none;endArrow=classic;flowAnimation=0;" edge="1" parent="bHU1ZNU5g2B9R8OCuO9E-1" source="bHU1ZNU5g2B9R8OCuO9E-83" target="3EA29baTlGRzZGvwGKuO-33">
          <mxGeometry relative="1" as="geometry" />
        </mxCell>
        <mxCell id="3EA29baTlGRzZGvwGKuO-53" style="edgeStyle=orthogonalEdgeStyle;curved=1;rounded=0;sketch=1;hachureGap=4;jiggle=2;curveFitting=1;orthogonalLoop=1;jettySize=auto;html=1;entryX=1;entryY=0.75;entryDx=0;entryDy=0;entryPerimeter=0;strokeColor=#FF00FF;strokeWidth=2;align=center;verticalAlign=middle;fontFamily=Gloria Hallelujah;fontSource=https%3A%2F%2Ffonts.googleapis.com%2Fcss%3Ffamily%3DGloria%2BHallelujah;fontSize=14;fontColor=#232F3E;fontStyle=1;labelBackgroundColor=none;endArrow=classic;flowAnimation=0;" edge="1" parent="bHU1ZNU5g2B9R8OCuO9E-1" source="3EA29baTlGRzZGvwGKuO-40" target="3EA29baTlGRzZGvwGKuO-24">
          <mxGeometry relative="1" as="geometry" />
        </mxCell>
        <mxCell id="3EA29baTlGRzZGvwGKuO-55" value="" style="group" vertex="1" connectable="0" parent="bHU1ZNU5g2B9R8OCuO9E-1">
          <mxGeometry x="-740" y="916.5" width="130" height="188.5" as="geometry" />
        </mxCell>
        <mxCell id="3EA29baTlGRzZGvwGKuO-1" value="Slack" style="rounded=1;whiteSpace=wrap;html=1;sketch=1;hachureGap=4;jiggle=2;curveFitting=1;strokeColor=default;align=center;verticalAlign=middle;fontFamily=Architects Daughter;fontSource=https%3A%2F%2Ffonts.googleapis.com%2Fcss%3Ffamily%3DArchitects%2BDaughter;fontSize=16;fontColor=default;fontStyle=1;labelBackgroundColor=default;fillColor=default;" vertex="1" parent="3EA29baTlGRzZGvwGKuO-55">
          <mxGeometry y="40" width="130" height="30" as="geometry" />
        </mxCell>
        <mxCell id="3EA29baTlGRzZGvwGKuO-2" value="Jira" style="rounded=1;whiteSpace=wrap;html=1;sketch=1;hachureGap=4;jiggle=2;curveFitting=1;strokeColor=default;align=center;verticalAlign=middle;fontFamily=Architects Daughter;fontSource=https%3A%2F%2Ffonts.googleapis.com%2Fcss%3Ffamily%3DArchitects%2BDaughter;fontSize=16;fontColor=default;fontStyle=1;labelBackgroundColor=default;fillColor=default;" vertex="1" parent="3EA29baTlGRzZGvwGKuO-55">
          <mxGeometry y="80" width="130" height="30" as="geometry" />
        </mxCell>
        <mxCell id="3EA29baTlGRzZGvwGKuO-3" value="Email" style="rounded=1;whiteSpace=wrap;html=1;sketch=1;hachureGap=4;jiggle=2;curveFitting=1;strokeColor=default;align=center;verticalAlign=middle;fontFamily=Architects Daughter;fontSource=https%3A%2F%2Ffonts.googleapis.com%2Fcss%3Ffamily%3DArchitects%2BDaughter;fontSize=16;fontColor=default;fontStyle=1;labelBackgroundColor=default;fillColor=default;" vertex="1" parent="3EA29baTlGRzZGvwGKuO-55">
          <mxGeometry width="130" height="30" as="geometry" />
        </mxCell>
        <mxCell id="3EA29baTlGRzZGvwGKuO-4" value="Teams" style="rounded=1;whiteSpace=wrap;html=1;sketch=1;hachureGap=4;jiggle=2;curveFitting=1;strokeColor=default;align=center;verticalAlign=middle;fontFamily=Architects Daughter;fontSource=https%3A%2F%2Ffonts.googleapis.com%2Fcss%3Ffamily%3DArchitects%2BDaughter;fontSize=16;fontColor=default;fontStyle=1;labelBackgroundColor=default;fillColor=default;" vertex="1" parent="3EA29baTlGRzZGvwGKuO-55">
          <mxGeometry y="120" width="130" height="30" as="geometry" />
        </mxCell>
        <mxCell id="3EA29baTlGRzZGvwGKuO-54" value="ServiceNOW" style="rounded=1;whiteSpace=wrap;html=1;sketch=1;hachureGap=4;jiggle=2;curveFitting=1;strokeColor=default;align=center;verticalAlign=middle;fontFamily=Architects Daughter;fontSource=https%3A%2F%2Ffonts.googleapis.com%2Fcss%3Ffamily%3DArchitects%2BDaughter;fontSize=16;fontColor=default;fontStyle=1;labelBackgroundColor=default;fillColor=default;" vertex="1" parent="3EA29baTlGRzZGvwGKuO-55">
          <mxGeometry y="158.5" width="130" height="30" as="geometry" />
        </mxCell>
        <mxCell id="3EA29baTlGRzZGvwGKuO-56" value="Static Risk" style="rounded=1;whiteSpace=wrap;html=1;dashed=0;sketch=1;jiggle=2;curveFitting=1;strokeColor=#6c8ebf;align=center;verticalAlign=middle;fontFamily=Gloria Hallelujah;fontSource=https%3A%2F%2Ffonts.googleapis.com%2Fcss%3Ffamily%3DGloria%2BHallelujah;fontSize=16;fontStyle=1;labelBackgroundColor=none;fillColor=#dae8fc;gradientColor=#7ea6e0;" vertex="1" parent="bHU1ZNU5g2B9R8OCuO9E-1">
          <mxGeometry x="-575" y="217.5" width="295" height="35" as="geometry" />
        </mxCell>
        <mxCell id="3EA29baTlGRzZGvwGKuO-57" value="Dynamic Risk" style="rounded=1;whiteSpace=wrap;html=1;dashed=0;sketch=1;jiggle=2;curveFitting=1;strokeColor=#6c8ebf;align=center;verticalAlign=middle;fontFamily=Gloria Hallelujah;fontSource=https%3A%2F%2Ffonts.googleapis.com%2Fcss%3Ffamily%3DGloria%2BHallelujah;fontSize=16;fontStyle=1;labelBackgroundColor=none;fillColor=#dae8fc;gradientColor=#7ea6e0;" vertex="1" parent="bHU1ZNU5g2B9R8OCuO9E-1">
          <mxGeometry x="-250" y="217.5" width="295" height="35" as="geometry" />
        </mxCell>
        <mxCell id="3EA29baTlGRzZGvwGKuO-58" value="" style="group;fontStyle=1;labelBackgroundColor=none;" vertex="1" connectable="0" parent="bHU1ZNU5g2B9R8OCuO9E-1">
          <mxGeometry x="850" y="290" width="30" height="30.5" as="geometry" />
        </mxCell>
        <mxCell id="3EA29baTlGRzZGvwGKuO-59" value="" style="rounded=0;whiteSpace=wrap;html=1;dashed=0;strokeColor=#000000;align=center;verticalAlign=middle;fontFamily=Gloria Hallelujah;fontSource=https%3A%2F%2Ffonts.googleapis.com%2Fcss%3Ffamily%3DGloria%2BHallelujah;fontSize=14;fontColor=#232F3E;fontStyle=1;labelBackgroundColor=none;fillColor=#000000;" vertex="1" parent="3EA29baTlGRzZGvwGKuO-58">
          <mxGeometry width="30" height="29.737499999999997" as="geometry" />
        </mxCell>
        <mxCell id="3EA29baTlGRzZGvwGKuO-60" value="" style="shape=image;imageAspect=0;aspect=fixed;verticalLabelPosition=bottom;verticalAlign=top;rounded=1;dashed=0;sketch=1;jiggle=2;curveFitting=1;strokeColor=#000000;align=center;fontFamily=Gloria Hallelujah;fontSource=https%3A%2F%2Ffonts.googleapis.com%2Fcss%3Ffamily%3DGloria%2BHallelujah;fontSize=14;fontColor=#232F3E;fontStyle=1;labelBackgroundColor=none;fillColor=none;image=https://images.crunchbase.com/image/upload/c_pad,f_auto,q_auto:eco,dpr_1/rfuwf3yqq2cermkmrej6;" vertex="1" parent="3EA29baTlGRzZGvwGKuO-58">
          <mxGeometry x="3.4800000000000004" width="23.025" height="30" as="geometry" />
        </mxCell>
        <mxCell id="3EA29baTlGRzZGvwGKuO-67" value="" style="group;fontStyle=1;labelBackgroundColor=none;" vertex="1" connectable="0" parent="bHU1ZNU5g2B9R8OCuO9E-1">
          <mxGeometry x="1320" y="750" width="30" height="30.5" as="geometry" />
        </mxCell>
        <mxCell id="3EA29baTlGRzZGvwGKuO-68" value="" style="rounded=0;whiteSpace=wrap;html=1;dashed=0;strokeColor=#000000;align=center;verticalAlign=middle;fontFamily=Gloria Hallelujah;fontSource=https%3A%2F%2Ffonts.googleapis.com%2Fcss%3Ffamily%3DGloria%2BHallelujah;fontSize=14;fontColor=#232F3E;fontStyle=1;labelBackgroundColor=none;fillColor=#000000;" vertex="1" parent="3EA29baTlGRzZGvwGKuO-67">
          <mxGeometry width="30" height="29.737499999999997" as="geometry" />
        </mxCell>
        <mxCell id="3EA29baTlGRzZGvwGKuO-69" value="" style="shape=image;imageAspect=0;aspect=fixed;verticalLabelPosition=bottom;verticalAlign=top;rounded=1;dashed=0;sketch=1;jiggle=2;curveFitting=1;strokeColor=#000000;align=center;fontFamily=Gloria Hallelujah;fontSource=https%3A%2F%2Ffonts.googleapis.com%2Fcss%3Ffamily%3DGloria%2BHallelujah;fontSize=14;fontColor=#232F3E;fontStyle=1;labelBackgroundColor=none;fillColor=none;image=https://images.crunchbase.com/image/upload/c_pad,f_auto,q_auto:eco,dpr_1/rfuwf3yqq2cermkmrej6;" vertex="1" parent="3EA29baTlGRzZGvwGKuO-67">
          <mxGeometry x="3.4800000000000004" width="23.025" height="30" as="geometry" />
        </mxCell>
        <mxCell id="3EA29baTlGRzZGvwGKuO-71" value="API Gateway" style="sketch=0;points=[[0,0,0],[0.25,0,0],[0.5,0,0],[0.75,0,0],[1,0,0],[0,1,0],[0.25,1,0],[0.5,1,0],[0.75,1,0],[1,1,0],[0,0.25,0],[0,0.5,0],[0,0.75,0],[1,0.25,0],[1,0.5,0],[1,0.75,0]];outlineConnect=0;fontColor=#232F3E;fillColor=#8C4FFF;strokeColor=#ffffff;dashed=0;verticalLabelPosition=bottom;verticalAlign=top;align=center;html=1;fontSize=12;fontStyle=0;aspect=fixed;shape=mxgraph.aws4.resourceIcon;resIcon=mxgraph.aws4.api_gateway;hachureGap=4;jiggle=2;curveFitting=1;fontFamily=Gloria Hallelujah;fontSource=https%3A%2F%2Ffonts.googleapis.com%2Fcss%3Ffamily%3DGloria%2BHallelujah;labelBackgroundColor=none;" vertex="1" parent="bHU1ZNU5g2B9R8OCuO9E-1">
          <mxGeometry x="110" y="776" width="74" height="74" as="geometry" />
        </mxCell>
        <mxCell id="3EA29baTlGRzZGvwGKuO-72" value="API Inventory&lt;div&gt;Discovery &amp;amp; Risk Profiling&lt;/div&gt;" style="text;html=1;align=center;verticalAlign=middle;whiteSpace=wrap;rounded=0;fontFamily=Gloria Hallelujah;fontSource=https%3A%2F%2Ffonts.googleapis.com%2Fcss%3Ffamily%3DGloria%2BHallelujah;fontSize=14;fontColor=#232F3E;fontStyle=1;labelBackgroundColor=none;" vertex="1" parent="bHU1ZNU5g2B9R8OCuO9E-1">
          <mxGeometry x="10" y="950" width="110" height="40" as="geometry" />
        </mxCell>
        <mxCell id="3EA29baTlGRzZGvwGKuO-73" value="" style="group;fontStyle=1;labelBackgroundColor=none;" vertex="1" connectable="0" parent="bHU1ZNU5g2B9R8OCuO9E-1">
          <mxGeometry x="170" y="766" width="30" height="30.5" as="geometry" />
        </mxCell>
        <mxCell id="3EA29baTlGRzZGvwGKuO-74" value="" style="rounded=0;whiteSpace=wrap;html=1;dashed=0;strokeColor=#000000;align=center;verticalAlign=middle;fontFamily=Gloria Hallelujah;fontSource=https%3A%2F%2Ffonts.googleapis.com%2Fcss%3Ffamily%3DGloria%2BHallelujah;fontSize=14;fontColor=#232F3E;fontStyle=1;labelBackgroundColor=none;fillColor=#000000;" vertex="1" parent="3EA29baTlGRzZGvwGKuO-73">
          <mxGeometry width="30" height="29.737499999999997" as="geometry" />
        </mxCell>
        <mxCell id="3EA29baTlGRzZGvwGKuO-75" value="" style="shape=image;imageAspect=0;aspect=fixed;verticalLabelPosition=bottom;verticalAlign=top;rounded=1;dashed=0;sketch=1;jiggle=2;curveFitting=1;strokeColor=#000000;align=center;fontFamily=Gloria Hallelujah;fontSource=https%3A%2F%2Ffonts.googleapis.com%2Fcss%3Ffamily%3DGloria%2BHallelujah;fontSize=14;fontColor=#232F3E;fontStyle=1;labelBackgroundColor=none;fillColor=none;image=https://images.crunchbase.com/image/upload/c_pad,f_auto,q_auto:eco,dpr_1/rfuwf3yqq2cermkmrej6;" vertex="1" parent="3EA29baTlGRzZGvwGKuO-73">
          <mxGeometry x="3.4800000000000004" width="23.025" height="30" as="geometry" />
        </mxCell>
        <mxCell id="3EA29baTlGRzZGvwGKuO-77" style="edgeStyle=orthogonalEdgeStyle;curved=1;rounded=0;sketch=1;hachureGap=4;jiggle=2;curveFitting=1;orthogonalLoop=1;jettySize=auto;html=1;exitX=0.5;exitY=0;exitDx=0;exitDy=0;entryX=0;entryY=0.5;entryDx=0;entryDy=0;entryPerimeter=0;strokeColor=#FF00FF;strokeWidth=2;align=center;verticalAlign=middle;fontFamily=Gloria Hallelujah;fontSource=https%3A%2F%2Ffonts.googleapis.com%2Fcss%3Ffamily%3DGloria%2BHallelujah;fontSize=14;fontColor=#232F3E;fontStyle=1;labelBackgroundColor=none;endArrow=classic;flowAnimation=0;" edge="1" parent="bHU1ZNU5g2B9R8OCuO9E-1" source="3EA29baTlGRzZGvwGKuO-72" target="3EA29baTlGRzZGvwGKuO-71">
          <mxGeometry relative="1" as="geometry" />
        </mxCell>
        <mxCell id="3EA29baTlGRzZGvwGKuO-78" value="" style="group;fontStyle=1;labelBackgroundColor=none;" vertex="1" connectable="0" parent="bHU1ZNU5g2B9R8OCuO9E-1">
          <mxGeometry x="96" y="636" width="30" height="30.5" as="geometry" />
        </mxCell>
        <mxCell id="3EA29baTlGRzZGvwGKuO-79" value="" style="rounded=0;whiteSpace=wrap;html=1;dashed=0;strokeColor=#000000;align=center;verticalAlign=middle;fontFamily=Gloria Hallelujah;fontSource=https%3A%2F%2Ffonts.googleapis.com%2Fcss%3Ffamily%3DGloria%2BHallelujah;fontSize=14;fontColor=#232F3E;fontStyle=1;labelBackgroundColor=none;fillColor=#000000;" vertex="1" parent="3EA29baTlGRzZGvwGKuO-78">
          <mxGeometry width="30" height="29.737499999999997" as="geometry" />
        </mxCell>
        <mxCell id="3EA29baTlGRzZGvwGKuO-80" value="" style="shape=image;imageAspect=0;aspect=fixed;verticalLabelPosition=bottom;verticalAlign=top;rounded=1;dashed=0;sketch=1;jiggle=2;curveFitting=1;strokeColor=#000000;align=center;fontFamily=Gloria Hallelujah;fontSource=https%3A%2F%2Ffonts.googleapis.com%2Fcss%3Ffamily%3DGloria%2BHallelujah;fontSize=14;fontColor=#232F3E;fontStyle=1;labelBackgroundColor=none;fillColor=none;image=https://images.crunchbase.com/image/upload/c_pad,f_auto,q_auto:eco,dpr_1/rfuwf3yqq2cermkmrej6;" vertex="1" parent="3EA29baTlGRzZGvwGKuO-78">
          <mxGeometry x="3.4800000000000004" width="23.025" height="30" as="geometry" />
        </mxCell>
        <mxCell id="3EA29baTlGRzZGvwGKuO-82" value="Cloud Discovery &amp;amp; Exposure Management&lt;div&gt;(Attack Surface Management)&lt;/div&gt;" style="text;html=1;align=center;verticalAlign=middle;whiteSpace=wrap;rounded=0;fontFamily=Gloria Hallelujah;fontSource=https%3A%2F%2Ffonts.googleapis.com%2Fcss%3Ffamily%3DGloria%2BHallelujah;fontSize=14;fontColor=#232F3E;fontStyle=1;labelBackgroundColor=none;" vertex="1" parent="bHU1ZNU5g2B9R8OCuO9E-1">
          <mxGeometry x="-172" y="1049" width="278" height="40" as="geometry" />
        </mxCell>
        <mxCell id="3EA29baTlGRzZGvwGKuO-83" style="edgeStyle=orthogonalEdgeStyle;curved=1;rounded=0;sketch=1;hachureGap=4;jiggle=2;curveFitting=1;orthogonalLoop=1;jettySize=auto;html=1;exitX=0.5;exitY=0;exitDx=0;exitDy=0;entryX=0;entryY=0.75;entryDx=0;entryDy=0;entryPerimeter=0;strokeColor=#FF00FF;strokeWidth=2;align=center;verticalAlign=middle;fontFamily=Gloria Hallelujah;fontSource=https%3A%2F%2Ffonts.googleapis.com%2Fcss%3Ffamily%3DGloria%2BHallelujah;fontSize=14;fontColor=#232F3E;fontStyle=1;labelBackgroundColor=none;endArrow=classic;flowAnimation=0;" edge="1" parent="bHU1ZNU5g2B9R8OCuO9E-1" source="3EA29baTlGRzZGvwGKuO-82" target="3EA29baTlGRzZGvwGKuO-24">
          <mxGeometry relative="1" as="geometry" />
        </mxCell>
      </root>
    </mxGraphModel>
  </diagram>
</mxfile>
